SplineFontDB: 3.0
FontName: Prociono-Regular
FullName: Prociono Regular
FamilyName: Prociono
Weight: Regular
Copyright: This font has been released into the public domain by its author, Barry Schwartz. This applies worldwide.\n\nIn some countries this may not be legally possible; if so:\nBarry Schwartz grants anyone the right to use this work for any purpose, without any conditions, unless such conditions are required by law.
Version: 2.2
ItalicAngle: 0
UnderlinePosition: -100
UnderlineWidth: 50
Ascent: 797
Descent: 203
sfntRevision: 0x00023333
LayerCount: 2
Layer: 0 0 "Back"  1
Layer: 1 0 "Fore"  0
NeedsXUIDChange: 1
XUID: [1021 658 797806517 9773845]
FSType: 0
OS2Version: 3
OS2_WeightWidthSlopeOnly: 0
OS2_UseTypoMetrics: 1
CreationTime: 1167379177
ModificationTime: 1278207701
PfmFamily: 17
TTFWeight: 400
TTFWidth: 5
LineGap: 100
VLineGap: 0
Panose: 2 0 5 3 0 0 0 0 0 0
OS2TypoAscent: 0
OS2TypoAOffset: 1
OS2TypoDescent: 0
OS2TypoDOffset: 1
OS2TypoLinegap: 0
OS2WinAscent: 0
OS2WinAOffset: 1
OS2WinDescent: -1
OS2WinDOffset: 1
HheadAscent: 0
HheadAOffset: 1
HheadDescent: 1
HheadDOffset: 1
OS2SubXSize: 650
OS2SubYSize: 700
OS2SubXOff: 0
OS2SubYOff: 480
OS2SupXSize: 650
OS2SupYSize: 700
OS2SupXOff: 0
OS2SupYOff: 0
OS2StrikeYSize: 49
OS2StrikeYPos: 258
OS2Vendor: 'PfEd'
OS2CodePages: 00000012.00000000
OS2UnicodeRanges: 8000006f.40000042.00000000.00000000
Lookup: 1 0 0 "Single Substitution in Latin lookup 0"  {"Single Substitution in Latin lookup 0 subtable"  } ['CAPS' ('DFLT' <'dflt' > 'latn' <'dflt' > ) ]
Lookup: 1 0 0 "'salt' Stylistic Alternatives in Latin lookup 1"  {"'salt' Stylistic Alternatives in Latin lookup 1 subtable"  } ['salt' ('DFLT' <'dflt' > 'latn' <'dflt' > ) ]
Lookup: 1 0 0 "'ss01' Style Set 1 in Latin lookup 2"  {"'ss01' Style Set 1 in Latin lookup 2 subtable"  } ['ss01' ('DFLT' <'dflt' > 'latn' <'dflt' > ) ]

StartChar: .notdef
Encoding: 65536 -1 0
Width: 500
Flags: MW
HStem: 0 50<100 400 100 450> 481 50<100 400 100 100>
VStem: 50 50<50 50 50 481> 400 50<50 481 481 481>
LayerCount: 2
Fore
SplineSet
50 0 m 1
 50 531 l 1
 450 531 l 1
 450 0 l 1
 50 0 l 1
100 50 m 1
 400 50 l 1
 400 481 l 1
 100 481 l 1
 100 50 l 1
EndSplineSet
EndChar

StartChar: exclam
Encoding: 33 33 2
Width: 240
GlyphClass: 2
Flags: MW
HStem: -10 158<95 116>
VStem: 56 114<49.5 90>
LayerCount: 2
Fore
SplineSet
69 742 m 1
 104 747 144 753 171 759 c 1
 183 748 l 1
 167 548 143 270 129 196 c 1
 96 202 l 1
 91 286 l 2
 83 428 69 701 69 742 c 1
170 60 m 0
 170 39 128 -10 104 -10 c 0
 83 -10 56 76 56 84 c 0
 56 96 82 148 108 148 c 0
 133 148 170 74 170 60 c 0
EndSplineSet
EndChar

StartChar: quotedbl
Encoding: 34 34 3
Width: 368
GlyphClass: 2
Flags: MW
HStem: 565 232<96.5 115.5 96.5 126 86 115.5 252.5 271.5 96.5 282 96.5 242>
VStem: 86 40<565 565> 242 40<565 565>
LayerCount: 2
Fore
SplineSet
216 791 m 1
 225 795 243 797 262 797 c 0
 281 797 299 795 308 791 c 1
 282 565 l 1
 242 565 l 1
 216 791 l 1
60 791 m 1
 69 795 87 797 106 797 c 0
 125 797 143 795 152 791 c 1
 126 565 l 1
 86 565 l 1
 60 791 l 1
EndSplineSet
EndChar

StartChar: numbersign
Encoding: 35 35 4
Width: 487
GlyphClass: 2
Flags: MW
HStem: 163 44<48 135 57 131> 301 45<206 298 200 302>
VStem: 112 62<5 43.5> 164 69<463 485> 264 63<4 42> 314 66<465 485>
LayerCount: 2
Fore
SplineSet
48 163 m 1xe8
 57 207 l 1
 135 207 l 1
 144 300 l 1
 67 300 l 1
 76 344 l 1
 152 344 l 1
 156 375 164 451 164 475 c 1
 176 481 233 485 233 485 c 1
 223 455 211 401 206 346 c 1
 302 346 l 1
 306 377 314 453 314 477 c 1
 326 483 380 485 380 485 c 1xd4
 371 455 359 403 354 348 c 1
 447 348 l 1
 437 302 l 1
 349 302 l 1
 337 211 l 1
 426 211 l 1
 417 163 l 1
 338 163 l 1
 331 132 327 69 327 15 c 1
 315 9 264 4 264 4 c 1
 272 47 280 119 284 162 c 1
 184 162 l 1
 177 131 174 71 174 16 c 1
 163 10 112 5 112 5 c 1
 119 48 128 121 131 163 c 1
 48 163 l 1xe8
189 208 m 1
 286 208 l 1
 298 301 l 1
 200 301 l 1
 189 208 l 1
EndSplineSet
EndChar

StartChar: dollar
Encoding: 36 36 5
Width: 480
GlyphClass: 2
Flags: MW
HStem: -17 65<215 215> 465 60<215 259 256 259>
VStem: 84 67<311.5 408> 215 41<-96 -17 -17 -17 48 202 326 465 525 608> 331 65<144 144.5> 335 37<361 390.5>
LayerCount: 2
Fore
SplineSet
84 358 m 0xf8
 84 385 88 412 101 432 c 0
 139 493 167 515 215 522 c 1
 215 608 l 1
 256 608 l 1
 256 525 l 1
 259 525 l 2
 291 525 318 518 341 508 c 0
 356 502 375 495 375 459 c 0
 375 449 372 420 372 361 c 1
 335 361 l 1xf4
 334 375 323 418 310 437 c 0
 299 454 278 462 256 465 c 1
 256 311 l 1
 322 288 396 260 396 158 c 0
 396 130 394 102 381 80 c 0
 334 5 298 -5 256 -13 c 1
 256 -96 l 1
 215 -96 l 1
 215 -17 l 1
 138 -16 104 3 94 19 c 0
 89 27 86 38 86 53 c 0
 86 162 89 171 113 171 c 0
 147 171 126 117 154 79 c 0
 164 64 183 52 215 48 c 1
 215 216 l 1
 151 238 84 265 84 358 c 0xf8
151 400 m 0
 151 361 178 342 215 326 c 1
 215 465 l 1
 158 457 151 416 151 400 c 0
256 48 m 1
 303 54 331 80 331 122 c 0xf8
 331 167 298 187 256 202 c 1
 256 48 l 1
EndSplineSet
EndChar

StartChar: percent
Encoding: 37 37 6
Width: 697
GlyphClass: 2
Flags: MW
HStem: -12 59<509 555> 216 59<159 205> 236 60<515 538.5> 465 59<165 188.5>
VStem: 42 51<339.5 398.5> 252 52<358.5 398> 392 51<111.5 170.5> 602 53<130 170>
LayerCount: 2
Fore
SplineSet
42 369 m 0xdf
 42 428 63 467 91 489 c 0
 120 512 157 524 173 524 c 0
 267 524 304 442 304 367 c 0
 304 350 298 318 292 303 c 0
 285 287 242 216 168 216 c 0
 87 216 42 281 42 369 c 0xdf
93 370 m 0
 93 309 141 275 177 275 c 0
 235 275 252 300 252 367 c 0
 252 429 208 465 169 465 c 0
 138 465 93 463 93 370 c 0
150 -3 m 1
 503 537 l 1
 540 513 l 1
 187 -27 l 1
 150 -3 l 1
392 141 m 0
 392 200 414 239 441 261 c 0
 470 284 507 296 523 296 c 0xbf
 617 296 655 213 655 139 c 0
 655 121 648 89 642 75 c 0
 635 59 592 -12 518 -12 c 0
 437 -12 392 52 392 141 c 0
443 142 m 0
 443 81 491 47 527 47 c 0
 585 47 602 71 602 139 c 0
 602 201 558 236 519 236 c 0
 489 236 443 235 443 142 c 0
EndSplineSet
EndChar

StartChar: ampersand
Encoding: 38 38 7
Width: 780
GlyphClass: 2
Flags: MW
HStem: -18 77<264.5 310> 477 33<516 516> 707 59<290.5 334>
VStem: 45 99<177 224.5> 142 87<593.5 652 589.5 654> 393 66<625.5 728.5>
LayerCount: 2
Fore
SplineSet
45 194 m 0xf4
 45 255 72 310 111 344 c 0
 140 370 179 400 229 430 c 1
 165 509 142 570 142 617 c 0
 142 691 219 766 322 766 c 0
 430 766 459 746 459 711 c 0
 459 680 448 638 422 584 c 1
 388 592 l 1
 390 604 393 618 393 633 c 0
 393 692 355 707 313 707 c 0
 268 707 229 678 229 626 c 0xec
 229 553 348 392 536 222 c 1
 571 287 590 359 590 413 c 0
 590 463 568 473 516 477 c 1
 516 510 l 1
 541 508 583 507 624 507 c 0
 666 507 707 508 732 510 c 1
 732 477 l 1
 606 468 674 386 570 191 c 1
 631 138 698 85 770 33 c 1
 770 0 l 1
 721 0 688 0 637 -4 c 1
 522 117 l 1
 496 83 466 56 435 35 c 2
 403 13 l 2
 369 -11 353 -18 267 -18 c 0
 198 -18 174 -18 116 38 c 0
 65 87 45 142 45 194 c 0xf4
144 221 m 0xf4
 144 133 220 59 309 59 c 0
 382 59 443 98 489 152 c 1
 259 396 l 1
 176 343 144 279 144 221 c 0xf4
EndSplineSet
EndChar

StartChar: quotesingle
Encoding: 39 39 8
Width: 212
GlyphClass: 2
Flags: MW
HStem: 565 232<96.5 115.5 96.5 126 86 115.5>
VStem: 86 40<565 565>
LayerCount: 2
Fore
SplineSet
60 791 m 1
 69 795 87 797 106 797 c 0
 125 797 143 795 152 791 c 1
 126 565 l 1
 86 565 l 1
 60 791 l 1
EndSplineSet
EndChar

StartChar: parenleft
Encoding: 40 40 9
Width: 330
GlyphClass: 2
Flags: MW
VStem: 100 95<239.5 353 239.5 359.5>
LayerCount: 2
Fore
SplineSet
100 296 m 0
 100 423 133 554 157 613 c 0
 197 711 307 800 308 802 c 1
 330 780 l 1
 281 707 234 606 225 586 c 0
 201 537 195 410 195 296 c 0
 195 183 201 56 225 6 c 0
 234 -13 281 -114 330 -187 c 1
 308 -209 l 1
 307 -208 197 -118 157 -20 c 0
 133 38 100 172 100 296 c 0
EndSplineSet
EndChar

StartChar: parenright
Encoding: 41 41 10
Width: 330
GlyphClass: 2
Flags: MW
VStem: 135 95<239.5 353>
LayerCount: 2
Fore
SplineSet
0 -187 m 1
 49 -114 96 -13 105 6 c 0
 129 56 135 183 135 296 c 0
 135 410 129 537 105 586 c 0
 96 606 49 707 0 780 c 1
 22 802 l 1
 23 800 133 711 173 613 c 0
 197 554 230 423 230 296 c 0
 230 172 197 38 173 -20 c 0
 133 -118 23 -208 22 -209 c 1
 0 -187 l 1
EndSplineSet
EndChar

StartChar: asterisk
Encoding: 42 42 11
Width: 520
GlyphClass: 2
Flags: MW
HStem: 731 20G<290 290>
LayerCount: 2
Fore
SplineSet
50 554 m 1
 72 633 l 1
 86 641 l 1
 246 564 l 1
 208 749 l 1
 290 751 l 1
 302 741 l 1
 279 565 l 1
 442 659 l 1
 470 581 l 1
 464 566 l 1
 289 535 l 1
 429 408 l 1
 364 357 l 1
 348 359 l 1
 264 515 l 1
 186 343 l 1
 118 389 l 1
 115 405 l 1
 237 533 l 1
 50 554 l 1
EndSplineSet
EndChar

StartChar: plus
Encoding: 43 43 12
Width: 480
GlyphClass: 2
Flags: MW
HStem: 250 66<11 208 25 208 25 208 275 275 275 459> 494 20G<264 264>
VStem: 208 66<67 67 67 250>
LayerCount: 2
Fore
SplineSet
11 250 m 1
 25 316 l 1
 208 316 l 1
 208 501 l 1
 264 514 l 1
 275 502 l 1
 274 316 l 1
 460 316 l 1
 472 305 l 1
 459 250 l 1
 275 250 l 1
 274 67 l 1
 208 53 l 1
 208 250 l 1
 11 250 l 1
EndSplineSet
EndChar

StartChar: comma
Encoding: 44 44 13
Width: 240
GlyphClass: 2
Flags: MW
HStem: -114 262<82 124>
VStem: 108 69<-32 64>
LayerCount: 2
Fore
SplineSet
68 -98 m 0
 68 -87 108 -54 108 -10 c 0
 108 30 63 64 63 88 c 0
 63 90 95 148 113 148 c 0
 135 148 177 80 177 48 c 0
 177 -4 101 -114 83 -114 c 0
 81 -114 68 -106 68 -98 c 0
EndSplineSet
EndChar

StartChar: hyphen
Encoding: 45 45 14
Width: 270
GlyphClass: 2
Flags: MW
HStem: 250 66<17 242 31 241>
VStem: 17 236<250 305>
LayerCount: 2
Fore
SplineSet
17 250 m 1
 31 316 l 1
 242 316 l 1
 253 305 l 1
 241 250 l 1
 17 250 l 1
EndSplineSet
EndChar

StartChar: period
Encoding: 46 46 15
Width: 240
GlyphClass: 2
Flags: MW
HStem: -10 158<102 123>
VStem: 63 114<49.5 90>
LayerCount: 2
Fore
SplineSet
177 60 m 0
 177 39 135 -10 111 -10 c 0
 90 -10 63 76 63 84 c 0
 63 96 89 148 115 148 c 0
 140 148 177 74 177 60 c 0
EndSplineSet
EndChar

StartChar: slash
Encoding: 47 47 16
Width: 480
GlyphClass: 2
Flags: MW
HStem: 777 20G<439 500 500 500>
LayerCount: 2
Fore
SplineSet
-20 -140 m 1
 439 797 l 1
 500 797 l 1
 43 -140 l 1
 -20 -140 l 1
EndSplineSet
EndChar

StartChar: zero
Encoding: 48 48 17
Width: 480
GlyphClass: 2
Flags: MW
HStem: -18 87<214.5 291.5> 439 86<226 267>
VStem: 30 67<194.5 304> 380 70<233 308.5>
LayerCount: 2
Fore
SplineSet
30 252 m 0
 30 356 64 425 108 464 c 0
 154 504 213 525 239 525 c 0
 390 525 450 380 450 248 c 0
 450 218 439 161 430 136 c 0
 420 108 351 -18 232 -18 c 0
 102 -18 30 96 30 252 c 0
97 254 m 0
 97 135 182 69 247 69 c 0
 350 69 380 116 380 248 c 0
 380 369 302 439 232 439 c 0
 178 439 97 436 97 254 c 0
EndSplineSet
EndChar

StartChar: one
Encoding: 49 49 18
Width: 480
GlyphClass: 2
Flags: MW
HStem: 0 31<92 117 92 474 92 117> 505 20G<339 339>
VStem: 259 80<196 225.5>
LayerCount: 2
Fore
SplineSet
60 390 m 1
 110 417 293 516 339 525 c 1
 351 514 l 1
 344 409 339 315 339 203 c 0
 339 174 339 144 340 112 c 0
 342 50 343 35 474 31 c 1
 474 0 l 1
 92 0 l 1
 92 31 l 1
 117 31 l 1
 174 32 251 35 254 76 c 0
 256 90 259 183 259 209 c 0
 259 242 258 268 253 409 c 1
 218 409 174 400 74 360 c 1
 60 390 l 1
EndSplineSet
EndChar

StartChar: two
Encoding: 50 50 19
Width: 480
GlyphClass: 2
Flags: MW
HStem: 0 76 0 83<443 443 443 451> 451 76<226.5 258.5>
VStem: 322 101<329.5 375>
LayerCount: 2
Fore
SplineSet
10 29 m 1x70
 45 58 l 1
 159 147 l 2
 252 220 322 283 322 351 c 0
 322 399 305 451 212 451 c 0
 177 451 159 449 75 410 c 1
 61 439 l 1
 183 521 l 1
 198 525 216 527 237 527 c 0
 317 527 423 494 423 377 c 0
 423 282 319 199 234 140 c 1
 182 105 l 2
 166 94 152 84 142 76 c 1xb0
 179 75 213 74 242 74 c 0
 318 74 404 79 443 83 c 1
 455 72 l 1
 453 55 451 23 451 0 c 1
 24 0 l 1
 10 29 l 1x70
EndSplineSet
EndChar

StartChar: three
Encoding: 51 51 20
Width: 480
GlyphClass: 2
Flags: MW
HStem: -203 51<57 127.5 57 157.5> 171 44 455 70<209.5 215.5>
VStem: 309 90<347 392> 319 93<12 82>
LayerCount: 2
Fore
SplineSet
20 -157 m 1xe8
 25 -149 l 1
 38 -151 51 -152 63 -152 c 0
 192 -152 319 -47 319 52 c 0xe8
 319 112 290 171 148 171 c 0
 141 171 134 170 126 170 c 1
 119 214 l 1
 295 242 309 325 309 353 c 0
 309 431 220 455 211 455 c 0
 197 455 148 445 70 401 c 1
 54 429 l 1
 164 517 l 1
 182 522 200 525 219 525 c 0
 305 525 399 470 399 379 c 0xf0
 399 315 360 259 264 215 c 1
 349 213 412 142 412 76 c 0
 412 -52 272 -203 43 -203 c 1
 20 -157 l 1xe8
EndSplineSet
EndChar

StartChar: four
Encoding: 52 52 21
Width: 480
GlyphClass: 2
Flags: MW
HStem: 0 77<369 444 369 466> 506 20G<350.5 362>
VStem: 279 90
LayerCount: 2
Fore
SplineSet
-3 46 m 1
 68 182 l 1
 140 309 241 470 278 515 c 1
 288 519 339 526 362 526 c 1
 369 518 l 1
 369 77 l 1
 403 77 446 80 476 82 c 1
 480 79 481 78 484 75 c 1
 482 59 476 33 466 0 c 1
 444 0 l 2
 421 0 396 0 369 -2 c 1
 370 -125 375 -192 375 -192 c 1
 353 -193 305 -202 287 -207 c 1
 274 -212 l 1
 274 -212 277 -117 278 -3 c 1
 227 -3 70 -3 21 0 c 1
 -3 46 l 1
82 89 m 1
 94 78 l 1
 128 75 162 74 193 74 c 0
 228 74 257 74 279 75 c 1
 282 178 283 257 283 338 c 2
 283 430 l 1
 234 377 107 172 82 89 c 1
EndSplineSet
EndChar

StartChar: five
Encoding: 53 53 22
Width: 480
GlyphClass: 2
Flags: MW
HStem: -203 51<59 129.5 59 145.5> 184 84 425 83<226 237.5 195.5 258>
VStem: 309 100<-1 107>
LayerCount: 2
Fore
SplineSet
22 -157 m 1
 27 -149 l 1
 40 -151 53 -152 65 -152 c 0
 194 -152 309 -63 309 36 c 0
 309 178 243 184 152 184 c 2
 96 184 l 1
 75 202 l 1
 75 202 117 464 121 496 c 1
 135 510 l 1
 148 509 174 508 217 508 c 0
 258 508 314 509 390 512 c 1
 402 501 l 1
 398 482 396 441 396 423 c 1
 319 424 275 425 241 425 c 0
 211 425 189 424 159 423 c 1
 152 391 139 303 137 268 c 1
 156 270 166 271 210 271 c 0
 303 271 409 219 409 92 c 0
 409 -94 246 -203 45 -203 c 1
 22 -157 l 1
EndSplineSet
EndChar

StartChar: six
Encoding: 54 54 23
Width: 480
GlyphClass: 2
Flags: MW
HStem: -17 53<201 270.5> 396 59<237 244> 747 20G<376 376>
VStem: 25 96<266 270.5 333.5 338 266 393.5> 374 84<182.5 278>
LayerCount: 2
Fore
SplineSet
25 269 m 0
 25 518 142 629 215 684 c 0
 263 720 315 747 376 767 c 1
 395 736 l 1
 385 732 334 705 295 680 c 2
 278 669 l 1
 212 624 131 500 125 380 c 1
 153 424 189 455 285 455 c 0
 374 455 458 408 458 255 c 0
 458 18 306 -17 235 -17 c 0
 127 -17 25 42 25 269 c 0
120 310 m 0
 120 293 121 275 121 266 c 2
 122 248 l 2
 127 149 143 36 259 36 c 0
 341 36 374 138 374 227 c 0
 374 329 349 369 283 389 c 0
 269 394 253 396 235 396 c 0
 163 396 141 366 121 338 c 1
 121 329 120 320 120 310 c 0
EndSplineSet
EndChar

StartChar: seven
Encoding: 55 55 24
Width: 480
GlyphClass: 2
Flags: MW
HStem: 426 82<229.5 353>
LayerCount: 2
Fore
SplineSet
40 336 m 1
 43 386 45 415 45 447 c 0
 45 462 45 478 44 496 c 1
 58 510 l 1
 77 509 180 508 279 508 c 0
 356 508 431 509 461 510 c 1
 473 499 l 1
 465 367 216 -78 109 -212 c 1
 99 -208 86 -201 69 -188 c 1
 256 101 323 276 365 415 c 1
 353 426 l 1
 353 426 139 426 113 427 c 1
 105 423 98 412 69 336 c 1
 40 336 l 1
EndSplineSet
EndChar

StartChar: eight
Encoding: 56 56 25
Width: 480
GlyphClass: 2
Flags: MW
HStem: -17 54<211.5 286 211.5 310.5> 725 51<211 283.5>
VStem: 21 78<147.5 225.5 147.5 241.5> 44 90<595 633> 366 78<587.5 640> 373 85<158 237>
LayerCount: 2
Fore
SplineSet
21 194 m 0xe4
 21 289 58 348 154 403 c 1
 81 444 44 534 44 576 c 0
 44 690 128 776 241 776 c 0
 372 776 444 704 444 619 c 0xd8
 444 556 403 485 317 431 c 1
 351 414 l 1
 422 376 458 297 458 216 c 0
 458 100 384 -17 237 -17 c 0
 107 -17 21 66 21 194 c 0xe4
99 189 m 0xe4
 99 106 183 37 240 37 c 0
 332 37 373 118 373 194 c 0
 373 280 317 317 259 347 c 2
 219 368 l 1
 133 317 99 262 99 189 c 0xe4
134 627 m 0xd8
 134 563 185 498 259 463 c 1
 326 493 366 543 366 601 c 0
 366 679 321 725 246 725 c 0
 176 725 134 686 134 627 c 0xd8
EndSplineSet
EndChar

StartChar: nine
Encoding: 57 57 26
Width: 480
GlyphClass: 2
Flags: MW
HStem: -204 34<39 45> 50 52<201 237.5> 467 58<210.5 291.5>
VStem: 35 86<248.5 358.5 248.5 374.5> 356 96<248 298>
LayerCount: 2
Fore
SplineSet
35 274 m 0
 35 475 152 525 269 525 c 0
 415 525 452 384 452 281 c 0
 452 -149 196 -201 45 -204 c 1
 39 -170 l 1
 210 -146 305 -83 340 87 c 1
 297 61 256 50 219 50 c 0
 113 50 35 141 35 274 c 0
121 301 m 0
 121 196 141 102 261 102 c 0
 304 102 329 113 347 128 c 1
 353 171 356 220 356 276 c 0
 356 320 350 467 233 467 c 0
 175 467 121 416 121 301 c 0
EndSplineSet
EndChar

StartChar: colon
Encoding: 58 58 27
Width: 240
GlyphClass: 2
Flags: MW
HStem: -10 158<102 123> 333 158<102 123>
VStem: 63 114<49.5 90>
LayerCount: 2
Fore
SplineSet
177 403 m 0
 177 382 135 333 111 333 c 0
 90 333 63 419 63 427 c 0
 63 439 89 491 115 491 c 0
 140 491 177 417 177 403 c 0
177 60 m 0
 177 39 135 -10 111 -10 c 0
 90 -10 63 76 63 84 c 0
 63 96 89 148 115 148 c 0
 140 148 177 74 177 60 c 0
EndSplineSet
EndChar

StartChar: semicolon
Encoding: 59 59 28
Width: 240
GlyphClass: 2
Flags: MW
HStem: -114 262<82 124> 333 158<102 123>
VStem: 63 114<22 89> 108 69<-32 64>
LayerCount: 2
Fore
SplineSet
177 403 m 0xd0
 177 382 135 333 111 333 c 0
 90 333 63 419 63 427 c 0xe0
 63 439 89 491 115 491 c 0
 140 491 177 417 177 403 c 0xd0
68 -98 m 0
 68 -87 108 -54 108 -10 c 0xd0
 108 30 63 64 63 88 c 0
 63 90 95 148 113 148 c 0
 135 148 177 80 177 48 c 0
 177 -4 101 -114 83 -114 c 0
 81 -114 68 -106 68 -98 c 0
EndSplineSet
EndChar

StartChar: less
Encoding: 60 60 29
Width: 480
GlyphClass: 2
Flags: MW
HStem: 502 20G<471 471>
LayerCount: 2
Fore
SplineSet
-3 247 m 1
 11 317 l 1
 471 522 l 1
 483 511 l 1
 471 450 l 1
 87 279 l 1
 471 108 l 1
 483 47 l 1
 471 36 l 1
 -3 247 l 1
EndSplineSet
EndChar

StartChar: equal
Encoding: 61 61 30
Width: 480
GlyphClass: 2
Flags: MW
HStem: 172 66<4.5 463.5 18.5 462.5> 328 66<4.5 463.5 18.5 462.5>
LayerCount: 2
Fore
SplineSet
4.5 172 m 1
 18.5 238 l 1
 463.5 238 l 1
 475.5 227 l 1
 462.5 172 l 1
 4.5 172 l 1
4.5 328 m 1
 18.5 394 l 1
 463.5 394 l 1
 475.5 383 l 1
 462.5 328 l 1
 4.5 328 l 1
EndSplineSet
EndChar

StartChar: greater
Encoding: 62 62 31
Width: 480
GlyphClass: 2
Flags: MW
HStem: 502 20G<9 9>
LayerCount: 2
Fore
SplineSet
-3 47 m 1
 9 108 l 1
 393 279 l 1
 9 450 l 1
 -3 511 l 1
 9 522 l 1
 483 311 l 1
 469 241 l 1
 9 36 l 1
 -3 47 l 1
EndSplineSet
EndChar

StartChar: question
Encoding: 63 63 32
Width: 445
GlyphClass: 2
Flags: MW
HStem: -10 158<95 116> 288 70<209.5 241.5 182 291> 665 62<162 254>
VStem: 56 114<49.5 90> 74 25<573 573> 96 33<196 202> 322 78<450.5 503 429 507>
LayerCount: 2
Fore
SplineSet
143 315 m 1xea
 138 268 133 217 129 196 c 1
 96 202 l 1xe6
 85 410 l 1
 133 369 171 358 193 358 c 0
 290 358 322 408 322 493 c 0
 322 521 318 552 313 586 c 0
 304 645 280 665 228 665 c 0
 96 665 110 615 99 573 c 1
 74 573 l 1
 72 613 70 643 70 666 c 0
 70 711 87 727 191 727 c 0
 319 727 385 608 387 600 c 0
 395 560 400 521 400 485 c 0
 400 373 356 288 226 288 c 0
 193 288 166 299 143 315 c 1xea
170 60 m 0xf2
 170 39 128 -10 104 -10 c 0
 83 -10 56 76 56 84 c 0
 56 96 82 148 108 148 c 0
 133 148 170 74 170 60 c 0xf2
EndSplineSet
EndChar

StartChar: at
Encoding: 64 64 33
Width: 920
GlyphClass: 2
Flags: MW
HStem: -203 47<363 501.5> -13 81<407 413.5> -12 61<662.5 697 662.5 701.5> 459 63<454 477> 505 20G<653 653> 683 61<403.5 566.5>
VStem: 20 91<126.5 309 126.5 404> 260 72<190.5 291.5> 587 58 811 88<304 479.5>
LayerCount: 2
Fore
SplineSet
20 238 m 0xafc0
 20 570 284 744 523 744 c 0
 720 744 899 626 899 382 c 0
 899 226 751 -12 652 -12 c 0xafc0
 619 -12 584 5 571 100 c 1
 520 51 433 -13 394 -13 c 0
 370 -13 260 22 260 203 c 0
 260 380 413 522 495 522 c 0xd7c0
 529 522 589 505 618 494 c 1
 653 525 l 1
 675 516 l 1
 654 462 645 150 645 126 c 0
 645 90 651 49 674 49 c 0
 720 49 811 217 811 374 c 0
 811 585 646 683 487 683 c 0
 206 683 111 393 111 225 c 0
 111 28 225 -156 501 -156 c 0
 562 -156 627 -142 667 -133 c 1
 675 -162 l 1
 634 -178 530 -203 473 -203 c 0
 169 -203 20 12 20 238 c 0xafc0
332 225 m 0
 332 156 387 68 427 68 c 0
 476 68 534 105 574 156 c 1
 579 215 587 379 587 390 c 1
 539 438 495 459 459 459 c 0xd7c0
 380 459 332 361 332 225 c 0
EndSplineSet
EndChar

StartChar: A
Encoding: 65 65 34
Width: 755
GlyphClass: 2
Flags: MW
HStem: 0 36<0 0 0 236> 249 43<222 484 222 497 208 484> 723 20G<406.5 410>
AnchorPoint: "Anchor-0" 377 738 basechar 0
LayerCount: 2
Fore
SplineSet
0 0 m 1
 0 36 l 1
 60 42 71 53 134 210 c 2
 342 730 l 1
 353 738 403 743 410 743 c 1
 410 743 666 110 673 96 c 0
 689 68 705 43 755 36 c 1
 755 0 l 1
 469 0 l 1
 469 34 l 1
 505 37 558 45 558 78 c 0
 558 98 550 123 537 153 c 2
 518 197 l 2
 511 213 504 230 497 249 c 1
 208 249 l 1
 186 200 146 98 146 83 c 0
 146 50 193 43 236 39 c 1
 236 0 l 1
 0 0 l 1
222 292 m 1
 484 292 l 1
 351 621 l 1
 222 292 l 1
EndSplineSet
EndChar

StartChar: B
Encoding: 66 66 35
Width: 649
GlyphClass: 2
Flags: MW
HStem: -6 62<350.5 363 363 384> 0 37<29 29> 364 48<328 352 319.5 395.5> 695 49<369 384.5>
VStem: 112 107 119 98<64 153.5> 488 109<528.5 600.5 528.5 608.5> 517 106<159.5 254.5 152.5 262.5>
AnchorPoint: "Anchor-0" 325 738 basechar 0
LayerCount: 2
Fore
SplineSet
29 0 m 1x71
 29 37 l 1
 79 40 119 45 119 83 c 0x75
 119 91 118 462 112 661 c 0
 111 693 90 697 43 700 c 2
 29 701 l 1
 29 738 l 1
 56 736 115 734 167 734 c 0
 321 734 322 744 369 744 c 2
 389 744 l 2
 572 744 597 628 597 573 c 0x7a
 597 484 552 442 486 409 c 2
 456 394 l 1
 567 357 623 296 623 213 c 0
 623 92 506 -6 384 -6 c 2
 363 -6 l 2xb1
 338 -6 309 -4 284 -2 c 2
 252 0 l 2
 225 2 196 4 167 4 c 0
 115 4 56 2 29 0 c 1x71
217 140 m 0
 217 62 256 56 398 56 c 0
 446 56 517 107 517 212 c 0
 517 313 444 364 347 364 c 0
 309 364 244 362 219 358 c 1xb9
 217 244 217 167 217 140 c 0
219 406 m 1
 262 410 295 412 344 412 c 0
 360 412 374 411 386 410 c 1
 465 433 488 497 488 550 c 0x3a
 488 667 392 695 377 695 c 0
 343 695 262 693 235 683 c 1
 223 672 l 1
 222 622 220 512 219 406 c 1
EndSplineSet
EndChar

StartChar: C
Encoding: 67 67 36
Width: 675
GlyphClass: 2
Flags: MW
HStem: -17 55<375 422.5> 690 62<283.5 466>
VStem: 42 100<330.5 406> 546 77<644 712> 591 37<232 232>
AnchorPoint: "Anchor-0" 407 738 basechar 0
LayerCount: 2
Fore
SplineSet
42 366 m 0xe8
 42 446 53 516 77 572 c 0
 98 621 185 728 313 745 c 0
 342 749 390 752 430 752 c 0
 502 752 581 740 612 723 c 1
 623 712 l 1
 623 702 615 550 614 536 c 1
 579 536 l 1
 571 564 546 643 546 645 c 0xf0
 543 655 539 665 530 671 c 1
 472 686 426 690 381 690 c 0
 186 690 142 605 142 362 c 0
 142 299 147 150 275 72 c 0
 307 53 349 38 401 38 c 0
 458 38 507 58 548 89 c 1
 552 96 567 140 577 178 c 2
 591 232 l 1
 628 232 l 1
 624 191 624 43 624 33 c 1
 559 9 469 -17 376 -17 c 0
 186 -17 42 72 42 366 c 0xe8
EndSplineSet
EndChar

StartChar: D
Encoding: 68 68 37
Width: 776
GlyphClass: 2
Flags: MW
HStem: -6 62<350 377 377 398> 0 37<29 29> 694 50<401 422 422 456.5> 701 37<29 29>
VStem: 112 112 119 97<64 166.5> 632 103<329.5 486>
AnchorPoint: "Anchor-0" 396 738 basechar 0
LayerCount: 2
Fore
SplineSet
29 0 m 1x4a
 29 37 l 1
 79 40 119 45 119 83 c 0x46
 119 91 118 462 112 661 c 0
 111 693 90 697 43 700 c 2
 29 701 l 1
 29 738 l 1x5a
 56 736 115 734 168 734 c 0
 332 734 334 744 401 744 c 2
 422 744 l 2
 639 744 735 642 735 409 c 0
 735 96 539 -6 398 -6 c 2
 377 -6 l 2xaa
 323 -6 237 4 168 4 c 0
 115 4 56 2 29 0 c 1x4a
216 140 m 0
 216 73 255 56 414 56 c 0
 520 56 552 100 592 172 c 0
 615 213 632 282 632 377 c 0
 632 595 549 694 364 694 c 0
 300 694 256 690 235 683 c 1
 224 672 l 1xaa
 220 566 216 193 216 140 c 0
EndSplineSet
EndChar

StartChar: E
Encoding: 69 69 38
Width: 640
GlyphClass: 2
Flags: MW
HStem: 0 37<29 29 29 589> 0 44<331 404.5 331 589> 344 74<446 473 446 473> 370 43<226 226> 685 52<300 302.5 300 335> 701 37<37 37>
VStem: 119 105<66.5 83> 514 34<542 542> 561 37<232 232>
AnchorPoint: "Anchor-0" 335 738 basechar 0
LayerCount: 2
Fore
SplineSet
29 0 m 1x8380
 29 37 l 1
 79 40 119 45 119 83 c 1
 120 115 123 260 123 413 c 0
 123 499 122 588 119 661 c 0
 118 693 97 697 51 700 c 2
 37 701 l 1
 37 738 l 1x9780
 64 736 123 734 175 734 c 0
 220 734 270 735 300 737 c 0x0b80
 305 737 563 738 563 738 c 1x0780
 575 727 l 1
 572 716 549 556 548 542 c 1
 514 542 l 1
 509 569 493 648 492 650 c 0
 489 660 486 669 476 676 c 1
 463 679 454 680 439 682 c 0
 415 685 357 685 313 685 c 0
 256 685 232 680 231 651 c 0
 229 593 228 499 227 413 c 1x1b80
 286 413 452 417 473 418 c 1
 463 344 l 1
 446 344 l 1x2380
 405 374 255 367 226 370 c 1
 224 222 224 92 224 83 c 0
 224 50 271 44 391 44 c 0x5380
 418 44 485 47 496 56 c 0
 521 78 537 140 547 178 c 2
 561 232 l 1
 598 232 l 1
 594 191 589 10 589 0 c 1
 29 0 l 1x8380
EndSplineSet
EndChar

StartChar: F
Encoding: 70 70 39
Width: 564
GlyphClass: 2
Flags: MW
HStem: 0 37<29 29> 344 74<445 473 445 473> 370 43<226 226> 685 52<300 302.5 300 335> 701 37<36 36>
VStem: 119 104<64.5 86> 489 34<542 542>
AnchorPoint: "Anchor-0" 322 738 basechar 0
LayerCount: 2
Fore
SplineSet
29 0 m 1xa6
 29 37 l 1
 78 40 119 45 119 83 c 0
 119 89 122 253 122 421 c 0
 122 507 121 593 119 661 c 0
 118 693 97 697 51 700 c 2
 36 701 l 1
 36 738 l 1xae
 64 736 122 734 175 734 c 0
 220 734 269 735 300 737 c 0x96
 305 737 538 738 538 738 c 1x8e
 550 727 l 1
 547 716 524 556 523 542 c 1
 489 542 l 1
 484 569 468 648 467 650 c 0
 464 660 461 669 451 676 c 1
 438 679 428 680 414 682 c 0
 390 685 357 685 313 685 c 0
 256 685 231 680 230 651 c 0
 229 593 227 499 226 413 c 1xb6
 286 413 452 417 473 418 c 1
 463 344 l 1
 445 344 l 1xc6
 405 374 254 367 226 370 c 1
 224 222 223 92 223 83 c 0
 223 46 261 41 313 37 c 2
 351 34 l 1
 351 0 l 1
 29 0 l 1xa6
EndSplineSet
EndChar

StartChar: G
Encoding: 71 71 40
Width: 757
GlyphClass: 2
Flags: MW
HStem: -17 65<313.5 422.5> 272 34<467 468> 690 62<410 431>
VStem: 42 100<279.5 406> 575 94<91 230 230 237 51 246.5>
AnchorPoint: "Anchor-0" 413 738 basechar 0
LayerCount: 2
Fore
SplineSet
42 366 m 0
 42 446 53 516 77 572 c 0
 98 621 185 728 313 745 c 0
 342 749 390 752 430 752 c 0
 502 752 622 740 652 723 c 1
 664 712 l 1
 664 702 656 550 655 536 c 1
 620 536 l 1
 613 560 588 641 584 651 c 1
 562 665 480 690 382 690 c 0
 186 690 142 605 142 362 c 0
 142 197 199 48 428 48 c 0
 500 48 543 61 575 91 c 1
 575 230 l 2
 575 263 534 267 493 270 c 2
 468 272 l 1
 467 306 l 1
 494 304 570 302 623 302 c 0
 676 302 717 304 744 306 c 1
 744 269 l 1
 730 268 l 2
 683 265 669 256 669 237 c 2
 669 51 l 1
 658 40 l 1
 593 17 469 -17 376 -17 c 0
 186 -17 42 72 42 366 c 0
EndSplineSet
EndChar

StartChar: H
Encoding: 72 72 41
Width: 849
GlyphClass: 2
Flags: MW
HStem: 0 37<29 29 29 306> 370 43<219 630 219 630 218 630> 701 37<29 306 29 306>
VStem: 112 106 119 97<64.5 87> 630 106 632 97<64.5 85.5>
AnchorPoint: "Anchor-0" 425 738 basechar 0
LayerCount: 2
Fore
SplineSet
29 0 m 1xe8
 29 37 l 1
 79 40 119 45 119 83 c 0xe8
 119 91 118 462 112 661 c 0
 111 693 90 697 43 700 c 2
 29 701 l 1
 29 738 l 1
 306 738 l 1
 306 701 l 1
 292 700 l 2
 245 697 224 693 223 661 c 0
 222 607 220 511 219 413 c 1
 630 413 l 1
 629 501 627 591 625 661 c 0
 624 693 603 697 556 700 c 2
 542 701 l 1
 542 738 l 1
 819 738 l 1
 819 701 l 1
 805 700 l 2
 758 697 737 693 736 661 c 0xf4
 731 518 729 92 729 83 c 0
 729 46 767 41 819 37 c 1
 819 0 l 1
 542 0 l 1
 542 37 l 1
 592 40 632 45 632 83 c 0xe2
 632 88 632 221 630 370 c 1
 218 370 l 1xf4
 217 222 216 92 216 83 c 0
 216 46 254 41 306 37 c 1
 306 0 l 1
 29 0 l 1xe8
EndSplineSet
EndChar

StartChar: I
Encoding: 73 73 42
Width: 335
GlyphClass: 2
Flags: MW
HStem: 0 37<29 29 29 306> 701 37<29 306 29 306>
VStem: 112 111<661 661> 119 97<64.5 87>
AnchorPoint: "Anchor-0" 167 738 basechar 0
LayerCount: 2
Fore
SplineSet
29 0 m 1xd0
 29 37 l 1
 79 40 119 45 119 83 c 0xd0
 119 91 118 462 112 661 c 0
 111 693 90 697 43 700 c 2
 29 701 l 1
 29 738 l 1
 306 738 l 1
 306 701 l 1
 292 700 l 2
 245 697 224 693 223 661 c 0xe0
 218 518 216 92 216 83 c 0
 216 46 254 41 306 37 c 1
 306 0 l 1
 29 0 l 1xd0
EndSplineSet
EndChar

StartChar: J
Encoding: 74 74 43
Width: 312
GlyphClass: 2
Flags: MW
HStem: 701 37<15 292 15 292>
VStem: 103 90 103 106
AnchorPoint: "Anchor-0" 153 738 basechar 0
LayerCount: 2
Fore
SplineSet
0 -162 m 1xc0
 27 -141 l 1
 93 -82 103 -33 103 92 c 0
 103 547 99 640 97 661 c 0
 95 693 76 697 29 700 c 2
 15 701 l 1
 15 738 l 1
 292 738 l 1
 292 701 l 1
 277 700 l 2
 231 697 209 693 209 661 c 0xa0
 207 480 199 39 193 8 c 0
 179 -79 120 -137 64 -170 c 1
 20 -194 l 1
 0 -162 l 1xc0
EndSplineSet
EndChar

StartChar: K
Encoding: 75 75 44
Width: 670
GlyphClass: 2
Flags: MW
HStem: 0 37<38 315 38 38> 369 42<224 224> 701 37<32 218>
VStem: 115 109 128 97<64.5 85.5>
AnchorPoint: "Anchor-0" 327 738 basechar 0
LayerCount: 2
Fore
SplineSet
32 701 m 1xf0
 32 738 l 1
 218 738 l 1
 230 727 l 1
 227 664 224 437 224 411 c 1
 292 413 478 674 478 684 c 0
 478 694 469 698 419 701 c 1
 419 738 l 1
 651 738 l 1
 651 701 l 1
 593 697 589 693 556 665 c 0
 521 634 471 581 396 496 c 1
 332 422 l 1
 332 422 520 156 608 60 c 1
 670 36 l 1
 670 0 l 1
 615 0 573 0 518 -4 c 1
 256 362 l 2
 253 366 247 369 241 369 c 2
 224 369 l 1xf0
 224 255 225 112 225 83 c 0
 225 46 263 41 315 37 c 1
 315 0 l 1
 38 0 l 1
 38 37 l 1
 88 40 128 45 128 83 c 0xe8
 128 88 120 529 115 661 c 0
 114 693 93 697 47 700 c 2
 32 701 l 1xf0
EndSplineSet
EndChar

StartChar: L
Encoding: 76 76 45
Width: 558
GlyphClass: 2
Flags: MW
HStem: 0 37<29 29 29 549> 0 44<314 335 335 342.5 314 549> 701 37<29 319 29 319>
VStem: 112 111<661 661> 119 97<71.5 87.5 71.5 95> 521 37<232 232>
AnchorPoint: "Anchor-0" 173 738 basechar 0
LayerCount: 2
Fore
SplineSet
29 0 m 1xac
 29 37 l 1
 82 41 119 46 119 83 c 0xac
 119 107 118 468 112 661 c 1
 110 693 90 697 43 700 c 2
 29 701 l 1
 29 738 l 1
 319 738 l 1
 319 701 l 1
 305 700 l 2
 258 697 224 693 223 661 c 0xb4
 218 518 216 92 216 83 c 0
 216 60 242 44 314 44 c 2
 335 44 l 2x6c
 350 44 443 45 456 56 c 0
 481 78 497 140 507 178 c 2
 521 232 l 1
 558 232 l 1
 554 191 549 10 549 0 c 1
 29 0 l 1xac
EndSplineSet
EndChar

StartChar: M
Encoding: 77 77 46
Width: 953
GlyphClass: 2
Flags: MW
HStem: 0 37<643 920 643 643> 701 37<2 230>
VStem: 733 106<64 88>
AnchorPoint: "Anchor-0" 464 738 basechar 0
LayerCount: 2
Fore
SplineSet
2 701 m 1
 2 738 l 1
 230 738 l 1
 239 711 l 1
 463 155 l 1
 546 335 623 525 690 711 c 1
 699 738 l 1
 927 738 l 1
 927 701 l 1
 868 698 819 695 819 665 c 0
 819 659 826 461 838 116 c 2
 839 88 l 1
 843 44 862 41 920 37 c 1
 920 0 l 1
 643 0 l 1
 643 37 l 1
 693 40 733 45 733 83 c 0
 731 236 725 366 711 597 c 1
 604 362 518 151 460 0 c 1
 421 0 l 1
 165 601 l 1
 156 446 150 290 150 83 c 0
 150 50 196 43 239 39 c 1
 239 0 l 1
 3 0 l 1
 3 36 l 1
 66 43 81 71 86 132 c 1
 108 479 110 666 110 666 c 1
 110 695 60 698 2 701 c 1
EndSplineSet
EndChar

StartChar: N
Encoding: 78 78 47
Width: 777
GlyphClass: 2
Flags: MW
HStem: 0 39<19 255> 700 38<535 535>
VStem: 109 55<450 482 482 516.5> 629 61 633 50
AnchorPoint: "Anchor-0" 398 738 basechar 0
LayerCount: 2
Fore
SplineSet
15 701 m 1xe8
 15 738 l 1
 204 738 l 1
 212 714 389 477 633 159 c 1xe8
 632 173 629 378 629 467 c 0
 629 517 626 601 625 634 c 0
 624 677 621 692 535 700 c 1
 535 738 l 1
 777 738 l 1
 777 702 l 1
 743 699 709 694 696 675 c 0
 693 670 690 644 690 644 c 1xf0
 686 505 683 173 683 164 c 0
 683 122 685 0 685 0 c 1
 626 0 l 1
 576 77 573 75 164 597 c 1
 164 290 l 1
 164 290 169 99 169 83 c 0
 169 50 211 43 255 39 c 1
 255 0 l 1
 19 0 l 1
 19 36 l 1
 62 40 98 48 102 80 c 0
 107 116 109 229 109 450 c 2
 109 482 l 2
 109 551 108 664 108 667 c 0
 106 679 100 692 65 696 c 2
 15 701 l 1xe8
EndSplineSet
EndChar

StartChar: O
Encoding: 79 79 48
Width: 745
GlyphClass: 2
Flags: MW
HStem: -14 66<381 388> 689 62<366.5 367.5>
VStem: 42 102<362 415> 601 103<375.5 473.5>
AnchorPoint: "Anchor-0" 387 738 basechar 0
LayerCount: 2
Fore
SplineSet
42 358 m 0
 42 472 69 554 106 610 c 0
 181 722 338 751 395 751 c 0
 609 751 704 621 704 411 c 0
 704 340 696 214 633 122 c 0
 561 16 417 -14 359 -14 c 0
 136 -14 42 149 42 358 c 0
144 379 m 0
 144 345 144 147 285 75 c 0
 327 54 357 52 405 52 c 0
 522 52 601 128 601 351 c 0
 601 596 507 673 413 687 c 0
 404 689 376 689 359 689 c 0
 237 689 144 610 144 379 c 0
EndSplineSet
EndChar

StartChar: P
Encoding: 80 80 49
Width: 637
GlyphClass: 2
Flags: MW
HStem: 0 37<29 29> 322 50<313.5 413.5 311.5 427.5> 695 49<376 387>
VStem: 119 104<83 83> 119 112 490 112<501.5 551>
AnchorPoint: "Anchor-0" 326 738 basechar 0
LayerCount: 2
Fore
SplineSet
29 0 m 1xf4
 29 37 l 1
 78 40 118 45 119 83 c 0xf4
 120 117 122 218 122 421 c 0
 122 507 121 593 119 661 c 0xec
 118 693 97 697 50 700 c 2
 36 701 l 1
 36 738 l 1
 64 736 122 734 175 734 c 0
 328 734 329 744 376 744 c 2
 396 744 l 2
 561 744 602 639 602 541 c 0
 602 462 523 322 332 322 c 0
 295 322 250 327 225 338 c 1
 224 204 223 91 223 83 c 0
 223 46 280 41 333 37 c 2
 371 34 l 1
 371 0 l 1
 29 0 l 1xf4
226 402 m 1
 242 388 282 372 341 372 c 0
 486 372 490 472 490 524 c 0
 490 578 489 649 413 686 c 0
 402 691 390 695 384 695 c 0
 342 695 268 692 242 683 c 1
 231 672 l 1xec
 229 614 227 488 226 402 c 1
EndSplineSet
EndChar

StartChar: Q
Encoding: 81 81 50
Width: 745
GlyphClass: 2
Flags: MW
HStem: -14 66<247.5 463.5> 689 62<366.5 367.5>
VStem: 42 102<362 415> 601 103<301 473.5>
AnchorPoint: "Anchor-0" 387 738 basechar 0
LayerCount: 2
Fore
SplineSet
42 358 m 0
 42 472 69 554 106 610 c 0
 181 722 338 751 395 751 c 0
 609 751 704 621 704 411 c 0
 704 191 634 80 511 23 c 1
 578 -50 622 -91 654 -114 c 1
 642 -130 617 -172 609 -191 c 1
 595 -195 l 1
 439 -2 l 1
 407 -11 378 -14 359 -14 c 0
 136 -14 42 149 42 358 c 0
144 379 m 0
 144 345 144 147 285 75 c 0
 327 54 357 52 405 52 c 0
 522 52 601 128 601 351 c 0
 601 596 507 673 413 687 c 0
 404 689 376 689 359 689 c 0
 237 689 144 610 144 379 c 0
EndSplineSet
EndChar

StartChar: R
Encoding: 82 82 51
Width: 669
GlyphClass: 2
Flags: MW
HStem: -4 21G<524 524> 0 37<32 32 32 309> 357 50<305 321 321 349> 697 47<344 392>
VStem: 115 107 122 97<64.5 85.5 64.5 87> 454 104<523.5 610.5>
AnchorPoint: "Anchor-0" 315 738 basechar 0
LayerCount: 2
Fore
SplineSet
32 0 m 1x76
 32 37 l 1
 82 40 122 45 122 83 c 0x76
 122 91 121 462 115 661 c 0
 114 693 93 697 46 700 c 2
 32 701 l 1
 32 738 l 1
 60 736 115 734 171 734 c 0
 311 734 331 744 372 744 c 2
 392 744 l 2
 477 744 558 678 558 566 c 0
 558 472 513 433 436 382 c 1
 436 382 541 176 614 60 c 1
 669 36 l 1
 669 0 l 1x7a
 614 0 579 0 524 -4 c 1
 349 357 l 1
 321 357 l 2
 288 357 248 361 222 370 c 1xba
 220 229 219 88 219 83 c 0
 219 46 257 41 309 37 c 1
 309 0 l 1
 32 0 l 1x76
223 424 m 1
 241 413 282 407 328 407 c 0
 429 407 454 495 454 552 c 0
 454 669 372 697 359 697 c 0
 329 697 260 694 237 684 c 1
 227 673 l 1
 225 627 224 523 223 424 c 1
EndSplineSet
EndChar

StartChar: S
Encoding: 83 83 52
Width: 519
GlyphClass: 2
Flags: MW
HStem: -15 71<255 306.5> 528 21G<412 447 412 412> 689 64<258 291>
VStem: 57 80<549.5 581.5> 65 37<211 232> 379 77<636 704> 395 94<168 205.5>
AnchorPoint: "Anchor-0" 285 738 basechar 0
LayerCount: 2
Fore
SplineSet
57 543 m 0xf2
 57 620 73 674 169 727 c 0
 191 739 220 753 296 753 c 0
 355 753 412 732 444 715 c 1
 456 704 l 1
 456 694 448 542 447 528 c 1
 412 528 l 1
 404 556 379 635 379 637 c 0
 375 647 372 656 363 663 c 0
 352 673 316 689 266 689 c 0
 189 689 137 668 137 584 c 0xf4
 137 515 183 487 217 469 c 2
 369 390 l 2
 406 371 489 323 489 204 c 0
 489 132 474 102 424 44 c 0
 403 21 360 -15 253 -15 c 0
 175 -15 99 12 58 30 c 1
 61 71 65 190 65 232 c 1
 102 232 l 1xea
 116 178 l 2
 135 103 140 97 164 78 c 1
 194 65 233 56 277 56 c 0
 351 56 395 78 395 165 c 0
 395 246 333 284 303 300 c 1
 222 340 l 1
 145 380 131 388 115 405 c 2
 107 414 l 2
 72 452 57 498 57 543 c 0xf2
EndSplineSet
EndChar

StartChar: T
Encoding: 84 84 53
Width: 608
GlyphClass: 2
Flags: MW
HStem: 0 35<140 460 140 140> 681 57<195.5 211.5 396.5 412.5>
VStem: 5 35<530 555> 247 105<64 83> 250 110 568 35<530 555>
AnchorPoint: "Anchor-0" 301 738 basechar 0
LayerCount: 2
Fore
SplineSet
0 727 m 1xec
 11 738 l 1
 597 738 l 1
 608 727 l 1
 607 710 603 580 603 530 c 1
 568 530 l 1
 560 559 535 638 534 640 c 0
 532 646 529 654 525 662 c 1
 519 668 513 670 507 671 c 0
 481 676 423 681 402 681 c 0
 391 681 375 679 360 676 c 1xec
 355 558 352 261 352 83 c 0
 352 45 410 39 460 35 c 1
 460 0 l 1
 140 0 l 1
 140 35 l 1
 189 39 247 45 247 83 c 2xf4
 247 83 250 277 250 463 c 0
 250 540 250 616 248 676 c 1
 233 679 217 681 206 681 c 0
 185 681 127 676 101 671 c 0
 95 670 89 668 83 662 c 1
 79 654 76 646 74 640 c 0
 73 638 48 559 40 530 c 1
 5 530 l 1
 5 580 1 710 0 727 c 1xec
EndSplineSet
EndChar

StartChar: U
Encoding: 85 85 54
Width: 757
GlyphClass: 2
Flags: MW
HStem: -14 60<350 439> 701 37<34 310 34 310>
VStem: 118 103<182 390> 618 53<243.5 258 126 400.5>
AnchorPoint: "Anchor-0" 415 738 basechar 0
LayerCount: 2
Fore
SplineSet
34 701 m 1
 34 738 l 1
 310 738 l 1
 310 701 l 1
 257 697 220 692 220 655 c 0
 220 606 221 493 221 390 c 2
 221 310 l 1
 222 255 222 212 222 197 c 0
 222 142 266 46 434 46 c 0
 597 46 618 131 618 356 c 0
 618 445 616 535 616 655 c 0
 616 688 569 695 526 699 c 1
 526 738 l 1
 762 738 l 1
 762 702 l 1
 718 697 684 685 682 658 c 2
 681 640 l 2
 678 599 671 278 671 238 c 0
 671 14 516 -14 362 -14 c 0
 154 -14 118 150 118 214 c 2
 118 214 116 639 115 650 c 0
 110 694 92 697 34 701 c 1
EndSplineSet
EndChar

StartChar: V
Encoding: 86 86 55
Width: 750
GlyphClass: 2
Flags: MW
HStem: 0 21G<337 401 337 337> 701 37<0 276 0 276>
AnchorPoint: "Anchor-0" 397 738 basechar 0
LayerCount: 2
Fore
SplineSet
0 701 m 1
 0 738 l 1
 276 738 l 1
 276 701 l 1
 223 697 202 687 202 666 c 2
 202 662 l 2
 202 640 354 198 391 121 c 1
 458 270 597 629 597 653 c 0
 597 682 586 692 514 699 c 1
 514 738 l 1
 750 738 l 1
 750 702 l 1
 695 696 684 679 636 566 c 1
 401 0 l 1
 337 0 l 1
 78 638 l 2
 63 675 49 698 0 701 c 1
EndSplineSet
EndChar

StartChar: W
Encoding: 87 87 56
Width: 1000
GlyphClass: 2
Flags: MW
HStem: 0 21G<236 314 236 236 672 746 672 672> 701 37<0 260 0 260>
VStem: 458 133<661 679.5>
AnchorPoint: "Anchor-0" 520 738 basechar 0
LayerCount: 2
Fore
SplineSet
0 701 m 1
 0 738 l 1
 260 738 l 1
 260 701 l 1
 196 696 175 693 175 662 c 0
 175 641 278 228 302 167 c 1
 342 268 458 644 458 665 c 0
 458 694 432 698 382 701 c 1
 382 738 l 1
 659 738 l 1
 659 701 l 1
 628 699 591 696 591 668 c 0
 591 654 678 300 730 167 c 1
 790 348 869 634 869 657 c 0
 869 687 843 694 786 699 c 1
 786 738 l 1
 1000 738 l 1
 1000 702 l 1
 968 699 955 688 944 660 c 1
 944 660 753 34 746 0 c 1
 672 0 l 1
 646 124 526 484 495 569 c 1
 465 491 326 68 314 0 c 1
 236 0 l 1
 231 44 110 461 71 596 c 1
 58 638 l 1
 49 676 38 698 0 701 c 1
EndSplineSet
EndChar

StartChar: X
Encoding: 88 88 57
Width: 646
GlyphClass: 2
Flags: MW
HStem: 0 37<389 389 389 646> 701 37<17 294 17 294>
AnchorPoint: "Anchor-0" 358 738 basechar 0
LayerCount: 2
Fore
SplineSet
0 0 m 1
 0 36 l 1
 20 38 51 62 72 82 c 0
 97 105 239 300 283 362 c 1
 78 671 l 2
 66 688 49 699 17 701 c 1
 17 738 l 1
 294 738 l 1
 294 701 l 1
 243 697 226 691 226 675 c 0
 226 660 253 607 353 444 c 1
 428 546 496 651 496 670 c 0
 496 689 486 693 420 699 c 1
 420 738 l 1
 644 738 l 1
 644 702 l 1
 605 697 571 658 549 630 c 2
 379 401 l 1
 511 182 l 2
 593 45 599 40 646 37 c 1
 646 0 l 1
 389 0 l 1
 389 37 l 1
 416 39 464 45 464 66 c 0
 464 73 459 81 453 92 c 2
 309 319 l 1
 239 225 142 85 142 69 c 0
 142 50 177 44 224 39 c 1
 224 0 l 1
 0 0 l 1
EndSplineSet
EndChar

StartChar: Y
Encoding: 89 89 58
Width: 649
GlyphClass: 2
Flags: MW
HStem: 0 35<162 472 162 162> 701 37<0 276 0 276>
VStem: 267 100<133 165.5>
AnchorPoint: "Anchor-0" 358 738 basechar 0
LayerCount: 2
Fore
SplineSet
0 701 m 1
 0 738 l 1
 276 738 l 1
 276 701 l 1
 210 696 193 688 193 668 c 0
 193 646 293 488 344 408 c 1
 381 461 511 652 511 673 c 0
 511 693 486 696 441 699 c 1
 441 738 l 1
 649 738 l 1
 649 702 l 1
 615 698 602 687 594 677 c 2
 370 367 l 1
 368 323 367 258 367 149 c 0
 367 117 368 74 372 67 c 0
 385 43 432 38 472 35 c 1
 472 0 l 1
 162 0 l 1
 162 35 l 1
 212 39 267 45 267 83 c 0
 267 248 263 358 263 358 c 1
 246 389 145 537 64 654 c 1
 64 654 36 698 0 701 c 1
EndSplineSet
EndChar

StartChar: Z
Encoding: 90 90 59
Width: 661
GlyphClass: 2
Flags: MW
HStem: 0 50<254.5 374 254.5 604> 528 21G<74 108 74 74> 687 51<345.5 384>
VStem: 74 34<528 528> 572 40<215 215>
LayerCount: 2
Fore
SplineSet
21 11 m 1
 467 682 l 1
 437 685 406 687 362 687 c 0
 329 687 306 686 186 683 c 0
 163 682 145 648 142 638 c 0
 141 636 116 557 108 528 c 1
 74 528 l 1
 73 543 70 717 70 727 c 1
 82 738 l 1
 613 738 l 1
 625 727 l 1
 464 500 200 124 169 60 c 1
 192 56 226 50 283 50 c 0
 465 50 501 54 511 63 c 0
 536 84 552 140 562 178 c 2
 572 215 l 1
 612 215 l 1
 608 155 604 9 604 0 c 1
 33 0 l 1
 21 11 l 1
EndSplineSet
EndChar

StartChar: bracketleft
Encoding: 91 91 60
Width: 295
GlyphClass: 2
Flags: MW
HStem: -205 34<295 295> 764 33<295 295>
VStem: 100 90<-113 705 -113 786 -113 786>
LayerCount: 2
Fore
SplineSet
100 -193 m 1
 100 786 l 1
 111 797 l 1
 115 796 134 795 179 795 c 0
 207 795 245 795 295 797 c 1
 295 764 l 1
 194 762 191 751 190 705 c 1
 190 -113 l 1
 191 -159 194 -169 295 -171 c 1
 295 -205 l 1
 245 -203 207 -202 179 -202 c 0
 134 -202 115 -204 111 -204 c 1
 100 -193 l 1
EndSplineSet
EndChar

StartChar: backslash
Encoding: 92 92 61
Width: 480
GlyphClass: 2
Flags: MW
HStem: 777 20G<-20 41 41 41>
LayerCount: 2
Fore
SplineSet
-20 797 m 1
 41 797 l 1
 500 -140 l 1
 437 -140 l 1
 -20 797 l 1
EndSplineSet
EndChar

StartChar: bracketright
Encoding: 93 93 62
Width: 295
GlyphClass: 2
Flags: MW
HStem: -205 34<0 0> 764 33<0 0>
VStem: 105 90<-113 705 705 705>
LayerCount: 2
Fore
SplineSet
0 -171 m 1
 101 -169 104 -159 105 -113 c 1
 105 705 l 1
 104 751 101 762 0 764 c 1
 0 797 l 1
 50 795 88 795 116 795 c 0
 161 795 180 796 184 797 c 1
 195 786 l 1
 195 -193 l 1
 184 -204 l 1
 180 -204 161 -202 116 -202 c 0
 88 -202 50 -203 0 -205 c 1
 0 -171 l 1
EndSplineSet
EndChar

StartChar: asciicircum
Encoding: 94 94 63
Width: 480
GlyphClass: 2
Flags: MW
HStem: 727 20G<272 272>
LayerCount: 2
Fore
SplineSet
-3 273 m 1
 202 734 l 1
 272 747 l 1
 483 273 l 1
 472 261 l 1
 411 273 l 1
 240 657 l 1
 69 273 l 1
 8 261 l 1
 -3 273 l 1
EndSplineSet
EndChar

StartChar: underscore
Encoding: 95 95 64
Width: 500
GlyphClass: 2
Flags: MW
HStem: -98 55<0 500 0 0>
LayerCount: 2
Fore
SplineSet
0 -43 m 1
 500 -42 l 1
 500 -98 l 1
 0 -98 l 1
 0 -43 l 1
EndSplineSet
EndChar

StartChar: grave
Encoding: 96 96 65
Width: 500
GlyphClass: 4
Flags: MW
HStem: 559 201<188 338>
VStem: 144 212
AnchorPoint: "Anchor-0" 299 510 mark 0
LayerCount: 2
Fore
SplineSet
144 715 m 1
 146 739 174 760 202 760 c 1
 234 720 302 636 356 580 c 1
 338 559 l 1
 282 596 182 680 144 715 c 1
EndSplineSet
EndChar

StartChar: a
Encoding: 97 97 66
Width: 478
GlyphClass: 2
Flags: MW
HStem: -10 67<178 184.5> 462 64<178.5 237.5>
VStem: 40 90<104.5 178 104.5 205.5> 66 41<338 342> 323 88<106.5 205>
AnchorPoint: "Anchor-0" 246 510 basechar 0
LayerCount: 2
Fore
SplineSet
411 128 m 0xd8
 411 85 456 44 456 26 c 0
 456 22 454 20 447 18 c 2
 447 18 377 -5 370 -5 c 0
 348 -5 334 55 328 67 c 1
 242 11 231 -10 138 -10 c 0
 62 -10 40 58 40 121 c 0xe8
 40 290 170 282 322 316 c 1
 322 340 323 364 323 376 c 0
 323 444 261 462 214 462 c 0
 143 462 133 432 107 338 c 1
 66 342 l 1
 70 376 50 526 259 526 c 0
 413 526 415 441 415 392 c 0
 415 260 411 179 411 128 c 0xd8
130 131 m 0
 130 78 159 57 197 57 c 0
 234 57 280 77 316 107 c 0
 323 113 323 153 323 192 c 0
 323 218 323 247 322 277 c 1
 154 221 130 225 130 131 c 0
EndSplineSet
Substitution2: "Single Substitution in Latin lookup 0 subtable" A
EndChar

StartChar: b
Encoding: 98 98 67
Width: 535
GlyphClass: 2
Flags: MW
HStem: -15 69<230.5 331> 458 69<272 405> 740 33<10 48.5> 777 20G<154.5 164>
VStem: 86 86 420 89<282.5 358.5>
AnchorPoint: "Anchor-0" 124 759 basechar 0
LayerCount: 2
Fore
SplineSet
10 773 m 1
 108 782 149 797 160 797 c 0
 168 797 177 793 177 782 c 2
 177 739 l 1
 173 462 l 1
 281 521 307 527 327 527 c 0
 483 527 509 427 509 294 c 0
 509 207 499 144 466 94 c 0
 460 86 404 24 350 0 c 0
 323 -12 288 -15 253 -15 c 0
 208 -15 114 8 86 47 c 1
 84 379 87 560 82 650 c 0
 77 740 85 740 12 740 c 1
 10 773 l 1
171 213 m 0
 171 126 173 106 181 98 c 1
 196 79 256 54 308 54 c 0
 354 54 384 60 403 122 c 0
 416 164 420 279 420 286 c 0
 420 431 337 458 283 458 c 0
 261 458 244 457 172 419 c 1
 172 353 l 1
 171 293 171 247 171 213 c 0
EndSplineSet
Substitution2: "Single Substitution in Latin lookup 0 subtable" B
EndChar

StartChar: c
Encoding: 99 99 68
Width: 441
GlyphClass: 2
Flags: MW
HStem: -14 77<206.5 267.5> 456 69<237.5 247.5>
VStem: 30 89<217.5 266.5> 363 30<354 359>
AnchorPoint: "Anchor-0" 243 510 basechar 0
LayerCount: 2
Fore
SplineSet
30 240 m 0
 30 293 33 334 43 383 c 0
 48 406 73 432 78 436 c 0
 175 525 215 525 260 525 c 0
 320 525 386 508 396 504 c 1
 394 484 393 364 393 354 c 1
 363 354 l 1
 363 354 353 398 347 418 c 0
 340 443 276 456 219 456 c 0
 139 456 119 414 119 272 c 0
 119 154 139 63 255 63 c 0
 322 63 392 134 392 134 c 1
 413 114 l 1
 365 61 313 -14 222 -14 c 0
 191 -14 155 -6 114 16 c 1
 81 46 64 74 44 120 c 1
 36 154 30 195 30 240 c 0
EndSplineSet
Substitution2: "Single Substitution in Latin lookup 0 subtable" C
EndChar

StartChar: d
Encoding: 100 100 69
Width: 527
GlyphClass: 2
Flags: MW
HStem: -15 86<219.5 249.5> 470 58<225 258.5> 741 33<283 285> 778 20G<428.5 437.5>
VStem: 30 88<206.5 337> 355 96<647 702.5> 358 86<116 200.5 107 262.5>
AnchorPoint: "Anchor-0" 371 759 basechar 0
LayerCount: 2
Fore
SplineSet
30 242 m 0xfa
 30 432 78 458 117 482 c 2
 151 502 l 2
 171 514 199 528 251 528 c 0
 278 528 314 524 357 514 c 1
 357 582 355 630 355 664 c 0
 355 741 352 739 285 741 c 1
 283 774 l 1
 382 783 423 798 434 798 c 0
 441 798 451 794 451 782 c 0xfc
 451 410 444 272 444 129 c 0
 444 85 495 37 495 26 c 0
 495 19 460 11 450 7 c 0
 425 -4 411 -10 403 -10 c 0
 385 -10 371 56 359 68 c 1
 314 18 273 -15 226 -15 c 0
 176 -15 30 46 30 242 c 0xfa
237 470 m 0
 168 470 118 454 118 280 c 0
 118 133 184 71 255 71 c 0
 291 71 328 87 358 116 c 1xfa
 358 409 355 377 355 442 c 1
 328 458 280 470 237 470 c 0
EndSplineSet
Substitution2: "Single Substitution in Latin lookup 0 subtable" D
EndChar

StartChar: e
Encoding: 101 101 70
Width: 467
GlyphClass: 2
Flags: MW
HStem: -15 77<191.5 279.5> 261 45<128 185 185 226 128 331 126 185> 458 65<204.5 284>
VStem: 30 96<211.5 261 211.5 281.5> 343 93
AnchorPoint: "Anchor-0" 248 510 basechar 0
LayerCount: 2
Fore
SplineSet
30 246 m 0
 30 317 44 380 52 399 c 0
 71 442 166 523 243 523 c 0
 447 523 435 350 436 281 c 1
 410 265 373 261 331 261 c 2
 126 261 l 1
 126 162 127 62 256 62 c 0
 317 62 366 85 415 133 c 1
 437 110 l 1
 379 51 323 -15 236 -15 c 0
 68 -15 30 127 30 246 c 0
128 306 m 1
 185 306 l 2
 267 306 319 307 343 324 c 1
 343 370 329 458 239 458 c 0
 143 458 128 411 128 306 c 1
EndSplineSet
Substitution2: "Single Substitution in Latin lookup 0 subtable" E
EndChar

StartChar: f
Encoding: 102 102 71
Width: 365
GlyphClass: 2
Flags: MW
HStem: 0 31<46 326> 448 56<219 353 219 350> 761 37<294 330>
VStem: 119 100<504 519 448 570> 126 89<72.5 119.5> 381 43<647 654.5>
AnchorPoint: "Anchor-0" 300 758 basechar 0
LayerCount: 2
Fore
SplineSet
30 448 m 1xec
 30 482 l 1
 119 497 l 1
 119 643 188 798 344 798 c 0
 413 798 425 758 425 685 c 0
 425 673 424 661 424 648 c 1
 381 647 l 1
 366 729 342 761 318 761 c 0
 270 761 219 636 219 519 c 2
 219 504 l 1
 353 504 l 1
 350 448 l 1
 219 448 l 1xf4
 217 343 215 167 215 97 c 0
 215 40 226 49 326 31 c 1
 326 0 l 1
 46 0 l 1
 46 34 l 1
 119 45 126 43 126 102 c 0
 126 137 123 310 120 448 c 1
 30 448 l 1xec
EndSplineSet
Substitution2: "Single Substitution in Latin lookup 0 subtable" F
EndChar

StartChar: g
Encoding: 103 103 72
Width: 475
GlyphClass: 2
Flags: MW
HStem: -204 39<202 283.5 202 312.5> 30 49<213 307> 449 35 463 61<186.5 275>
VStem: 10 86<-86 -67> 43 92<314 330.5> 59 91<103.5 112.5> 321 95<319 362.5 319 388.5> 379 96<-70.5 -26.5>
AnchorPoint: "Anchor-0" 251 510 basechar 0
LayerCount: 2
Fore
SplineSet
10 -83 m 0xe880
 10 -51 18 0 138 51 c 1
 88 58 59 76 59 105 c 0xe2
 59 120 62 151 148 177 c 1
 81 207 56 234 44 299 c 0
 43 303 43 310 43 318 c 0
 43 343 47 381 60 410 c 0
 73 437 159 524 264 524 c 0xd4
 286 524 328 521 372 484 c 1
 398 485 439 490 469 497 c 1
 475 491 l 1
 475 449 l 1xe480
 396 449 l 1
 407 433 416 378 416 347 c 0
 416 291 400 255 358 216 c 1
 322 195 284 181 232 170 c 1
 177 156 150 138 150 113 c 0xe3
 150 94 168 79 193 79 c 2
 312 79 l 2
 317 79 383 77 403 69 c 0
 431 58 475 15 475 -37 c 0
 475 -104 410 -204 215 -204 c 0
 138 -204 10 -180 10 -83 c 0xe880
96 -54 m 0xc880
 96 -118 172 -165 232 -165 c 0
 335 -165 379 -113 379 -46 c 0
 379 -7 352 30 262 30 c 0
 164 30 96 10 96 -54 c 0xc880
135 324 m 0xd5
 135 266 168 220 236 220 c 0
 301 220 321 248 321 344 c 0
 321 433 299 453 223 462 c 0
 218 463 213 463 209 463 c 0
 164 463 135 434 135 324 c 0xd5
EndSplineSet
Substitution2: "Single Substitution in Latin lookup 0 subtable" G
EndChar

StartChar: h
Encoding: 104 104 73
Width: 565
GlyphClass: 2
Flags: MW
HStem: 0 34<37 241 37 37> 451 73<301.5 428> 740 33<22 59> 777 20G<166.5 176>
VStem: 97 90<411 459 411 642> 400 89<131 149.5 77 310>
AnchorPoint: "Anchor-0" 135 759 basechar 0
LayerCount: 2
Fore
SplineSet
22 773 m 1
 120 782 161 797 172 797 c 0
 180 797 189 793 189 782 c 0
 189 773 188 727 188 717 c 2
 187 459 l 1
 264 502 338 524 379 524 c 0
 477 524 492 451 492 321 c 0
 492 261 489 190 489 109 c 0
 489 45 492 40 540 34 c 1
 540 0 l 1
 350 0 l 1
 350 34 l 1
 398 45 400 51 400 131 c 2
 400 310 l 2
 400 428 391 451 323 451 c 0
 280 451 213 428 187 411 c 1
 187 411 184 295 184 121 c 0
 184 50 185 37 241 34 c 1
 241 0 l 1
 37 0 l 1
 37 34 l 1
 82 37 96 50 96 76 c 0
 96 263 97 357 97 544 c 0
 97 740 94 740 24 740 c 1
 22 773 l 1
EndSplineSet
Substitution2: "Single Substitution in Latin lookup 0 subtable" H
EndChar

StartChar: i
Encoding: 105 105 74
Width: 282
GlyphClass: 2
Flags: MW
HStem: 0 34<30 30 30 262> 469 33<33 50 33 35> 506 20<177.5 187> 605 132<133 150.5 126.5 154>
VStem: 89 113<659 668.5> 107 88<87 211 61 295 61 378.5>
LayerCount: 2
Fore
SplineSet
89 665 m 0xf8
 89 672 110 737 143 737 c 0
 158 737 202 712 202 676 c 0
 202 642 165 605 143 605 c 0
 123 605 89 652 89 665 c 0xf8
30 0 m 1
 30 34 l 1
 100 39 107 48 107 87 c 2
 107 295 l 2
 107 462 101 469 50 469 c 2
 35 469 l 1
 33 502 l 1
 131 511 172 526 183 526 c 0
 191 526 200 522 200 510 c 0
 200 467 195 347 195 75 c 0xf4
 195 47 218 37 262 34 c 1
 262 0 l 1
 30 0 l 1
EndSplineSet
Substitution2: "Single Substitution in Latin lookup 0 subtable" I
EndChar

StartChar: j
Encoding: 106 106 75
Width: 252
GlyphClass: 2
Flags: MW
HStem: 470 33<16 33 16 18> 507 20<160.5 170> 605 132<114.5 132.5 108.5 135.5>
VStem: 70 114<659 668.5> 90 93<229 412>
LayerCount: 2
Fore
SplineSet
70 665 m 0xf0
 70 672 92 737 125 737 c 0
 140 737 184 712 184 676 c 0
 184 642 146 605 125 605 c 0
 104 605 70 652 70 665 c 0xf0
-5 -185 m 1
 86 -71 90 -99 90 368 c 0
 90 456 81 470 33 470 c 2
 18 470 l 1
 16 503 l 1
 115 512 155 527 166 527 c 0
 174 527 183 523 183 511 c 0xe8
 183 -53 179 -66 12 -202 c 1
 -5 -185 l 1
EndSplineSet
Substitution2: "Single Substitution in Latin lookup 0 subtable" J
EndChar

StartChar: k
Encoding: 107 107 76
Width: 575
GlyphClass: 2
Flags: MW
HStem: -4 21G 0 34<32 248 32 32> 476 34<326 326> 740 33<23 25> 777 20G<166.5 176>
VStem: 103 87 347 189<436.5 498>
AnchorPoint: "Anchor-0" 136 759 basechar 0
LayerCount: 2
Fore
SplineSet
23 773 m 1x7e
 121 782 161 797 172 797 c 0
 180 797 190 793 190 782 c 2
 190 776 l 1
 190 754 l 1
 190 739 l 1
 189 295 l 1
 234 295 347 414 347 459 c 0
 347 469 341 476 326 476 c 0
 314 476 307 485 307 494 c 0
 307 502 312 509 326 510 c 1
 349 508 386 507 423 507 c 0
 459 507 495 508 518 510 c 1
 530 510 536 502 536 494 c 0
 536 476 514 475 510 473 c 0
 420 438 290 302 290 302 c 1
 563 30 l 2
 572 21 575 14 575 10 c 0
 575 1 563 0 563 0 c 1x7e
 518 0 487 0 440 -4 c 1xbe
 207 272 242 230 187 253 c 1
 188 239 188 225 188 217 c 0
 188 160 186 123 186 97 c 0
 186 41 194 46 248 34 c 1
 248 0 l 1
 32 0 l 1
 32 34 l 1
 95 48 101 39 101 145 c 0
 101 321 103 445 103 532 c 0
 103 743 92 737 25 740 c 1
 23 773 l 1x7e
EndSplineSet
Substitution2: "Single Substitution in Latin lookup 0 subtable" K
EndChar

StartChar: l
Encoding: 108 108 77
Width: 284
GlyphClass: 2
Flags: MW
HStem: 0 34<26 26 26 262> 739 33<29 44 29 31> 778 20G<173 183>
VStem: 101 97<462 652> 104 84<138 182.5 68.5 323>
AnchorPoint: "Anchor-0" 141 759 basechar 0
LayerCount: 2
Fore
SplineSet
26 0 m 1xe8
 26 34 l 1
 95 47 104 36 104 138 c 2
 104 323 l 2xe8
 104 397 103 501 101 652 c 1
 100 700 l 2
 99 735 85 739 44 739 c 2
 31 739 l 1
 29 772 l 1
 128 783 167 798 179 798 c 0
 187 798 196 795 196 783 c 0
 197 742 198 660 198 577 c 0xf0
 198 347 188 270 188 95 c 0
 188 42 197 42 262 34 c 1
 262 0 l 1
 26 0 l 1xe8
EndSplineSet
Substitution2: "Single Substitution in Latin lookup 0 subtable" L
EndChar

StartChar: m
Encoding: 109 109 78
Width: 834
GlyphClass: 2
Flags: MWO
HStem: 0 34<37 241 37 37> 452 74<324.5 328.5 607.5 617>
VStem: 95 90<88.5 172 88.5 260.5> 379 93<90 171 90 205.5> 664 88<89.5 134>
AnchorPoint: "Anchor-0" 431 510 basechar 0
LayerCount: 2
Fore
SplineSet
32 493 m 1xbc
 104 501 140 527 167 527 c 0
 185 527 190 515 190 474 c 2
 190 460 l 1
 247 492 300 526 349 526 c 0xdc
 386 526 420 512 474 455 c 1xbc
 508 480 574 526 641 526 c 0
 730 526 754 440 754 408 c 0
 754 284 752 201 752 147 c 0
 752 32 761 37 811 34 c 1
 811 0 l 1
 607 0 l 1
 607 34 l 1
 658 37 664 48 664 111 c 0
 664 157 663 230 663 356 c 0
 663 420 661 452 573 452 c 0
 549 452 492 424 473 414 c 1
 472 284 472 195 472 147 c 0
 472 33 481 44 529 34 c 1
 529 0 l 1
 325 0 l 1
 325 34 l 1
 376 37 379 51 379 107 c 0
 379 304 380 333 380 389 c 0
 380 427 366 452 291 452 c 0xdc
 262 452 213 429 192 415 c 1
 188 285 185 200 185 144 c 0
 185 33 192 48 241 34 c 1
 241 0 l 1
 37 0 l 1
 37 34 l 1
 82 37 95 50 95 76 c 0
 95 445 93 433 79 445 c 0
 70 453 55 453 34 455 c 1
 32 493 l 1xbc
EndSplineSet
Substitution2: "Single Substitution in Latin lookup 0 subtable" M
EndChar

StartChar: n
Encoding: 110 110 79
Width: 563
GlyphClass: 2
Flags: MW
HStem: 0 34<36 246 36 36> 452 73<293 422> 507 20G<153.5 176>
VStem: 91 103 98 89<98 151.5 81 152.5> 393 94<78 395 395 408>
AnchorPoint: "Anchor-0" 311 510 basechar 0
LayerCount: 2
Fore
SplineSet
32 493 m 1xd4
 105 501 140 527 167 527 c 0xb4
 185 527 191 515 191 474 c 2
 191 460 l 1
 274 507 335 525 379 525 c 0
 465 525 487 457 487 408 c 2
 487 74 l 2
 487 47 492 37 540 34 c 1
 540 0 l 1
 336 0 l 1
 336 34 l 1
 390 38 393 50 393 78 c 2
 393 395 l 2
 393 448 343 452 305 452 c 0
 281 452 222 434 194 415 c 1xd4
 191 269 187 179 187 124 c 0
 187 38 198 37 246 34 c 1
 246 0 l 1
 36 0 l 1
 36 34 l 1
 95 43 98 46 98 150 c 0xcc
 98 155 93 415 91 422 c 0
 83 454 67 452 35 455 c 1
 32 493 l 1xd4
EndSplineSet
Substitution2: "Single Substitution in Latin lookup 0 subtable" N
EndChar

StartChar: o
Encoding: 111 111 80
Width: 517
GlyphClass: 2
Flags: MW
HStem: -17 71<238.5 258.5> 455 71<248 256>
VStem: 30 95<183 295> 400 91<250.5 324>
AnchorPoint: "Anchor-0" 268 510 basechar 0
LayerCount: 2
Fore
SplineSet
30 260 m 0
 30 330 55 389 71 415 c 0
 108 473 220 526 276 526 c 0
 381 526 491 464 491 294 c 0
 491 207 480 154 447 104 c 0
 441 96 386 24 332 0 c 0
 305 -12 276 -17 241 -17 c 0
 156 -17 30 21 30 260 c 0
125 268 m 0
 125 98 190 54 287 54 c 0
 303 54 320 55 331 59 c 0
 362 71 400 115 400 267 c 0
 400 381 373 425 300 448 c 0
 284 452 266 455 246 455 c 0
 185 455 125 455 125 268 c 0
EndSplineSet
Substitution2: "Single Substitution in Latin lookup 0 subtable" O
EndChar

StartChar: p
Encoding: 112 112 81
Width: 554
GlyphClass: 2
Flags: MW
HStem: -203 34<41 245> -6 48<261.5 329.5 252 376.5> 449 77<324.5 350> 469 33<30 63>
VStem: 98 91<239.5 254 158.5 438> 99 86<-140.5 -84> 432 96<203.5 337.5>
AnchorPoint: "Anchor-0" 316 510 basechar 0
LayerCount: 2
Fore
SplineSet
30 502 m 1xda
 129 511 169 526 180 526 c 0
 188 526 198 522 198 510 c 0
 198 506 195 464 195 454 c 1
 230 471 289 526 360 526 c 0
 377 526 528 513 528 302 c 0
 528 105 437 -6 316 -6 c 0
 207 -6 197 43 189 57 c 1xea
 188 -4 185 -70 185 -98 c 0
 186 -155 195 -160 245 -169 c 1
 245 -203 l 1
 41 -203 l 1
 41 -171 l 1
 85 -166 99 -153 99 -128 c 0xe6
 98 -34 98 64 98 415 c 0
 98 461 94 469 32 469 c 1
 30 502 l 1xda
189 226 m 0
 189 91 207 42 297 42 c 0
 362 42 432 104 432 272 c 0
 432 403 383 449 317 449 c 0
 280 449 237 434 194 412 c 1
 193 346 189 282 189 226 c 0
EndSplineSet
Substitution2: "Single Substitution in Latin lookup 0 subtable" P
EndChar

StartChar: q
Encoding: 113 113 82
Width: 539
GlyphClass: 2
Flags: MW
HStem: -203 34<301 505> -12 72<215 222.5> 457 68<253 266>
VStem: 30 96<170 285.5 169.5 305.5> 359 87 359 96
AnchorPoint: "Anchor-0" 281 510 basechar 0
LayerCount: 2
Fore
SplineSet
30 230 m 0xf4
 30 381 88 435 122 458 c 0
 199 510 233 525 273 525 c 0
 320 525 359 504 505 502 c 1
 505 468 l 1
 469 453 459 447 455 398 c 0xf4
 448 317 446 111 446 -28 c 0xf8
 446 -162 452 -154 505 -169 c 1
 505 -203 l 1
 301 -203 l 1
 301 -171 l 1
 348 -162 362 -156 362 -55 c 0
 362 -26 361 11 359 59 c 1
 306 20 248 -12 197 -12 c 0
 80 -12 30 110 30 230 c 0xf4
126 236 m 0
 126 103 185 60 245 60 c 0
 278 60 312 73 337 91 c 0
 354 103 359 128 359 152 c 2
 359 402 l 1
 359 418 l 1
 357 453 278 457 254 457 c 0
 143 457 126 335 126 236 c 0
EndSplineSet
Substitution2: "Single Substitution in Latin lookup 0 subtable" Q
EndChar

StartChar: r
Encoding: 114 114 83
Width: 398
GlyphClass: 2
Flags: MW
HStem: 0 34<25 25 25 305> 448 75<284 358> 509 20G<156 178.5>
VStem: 102 91<68 182 68 325> 346 36<373 373>
AnchorPoint: "Anchor-0" 220 510 basechar 0
LayerCount: 2
Fore
SplineSet
25 0 m 1xd8
 25 34 l 1
 99 42 102 40 102 149 c 2
 102 182 l 2
 102 468 101 451 37 457 c 1
 35 495 l 1
 107 503 142 529 170 529 c 0xb8
 187 529 193 517 193 476 c 0
 193 458 194 438 194 438 c 1
 259 501 303 523 333 523 c 0
 383 523 398 512 398 481 c 0
 398 458 390 423 382 373 c 1
 346 373 l 1
 342 429 320 448 295 448 c 0
 273 448 194 422 194 362 c 0
 194 309 193 130 193 91 c 0
 193 45 213 44 305 31 c 1
 305 0 l 1
 25 0 l 1xd8
EndSplineSet
Substitution2: "Single Substitution in Latin lookup 0 subtable" R
EndChar

StartChar: s
Encoding: 115 115 84
Width: 387
GlyphClass: 2
Flags: MW
HStem: -17 64<175 190.5> 466 59<184 211>
VStem: 45 67<341.5 371.5> 292 65<144 183.5> 296 37<361 390.5>
AnchorPoint: "Anchor-0" 209 510 basechar 0
LayerCount: 2
Fore
SplineSet
45 358 m 0xf0
 45 385 49 412 62 432 c 0
 111 511 143 525 225 525 c 0
 247 525 276 519 302 508 c 0
 317 502 336 495 336 459 c 0
 336 449 333 420 333 361 c 1
 296 361 l 1xe8
 295 375 284 418 271 437 c 0
 256 459 226 466 196 466 c 0
 120 466 112 418 112 400 c 0
 112 283 357 344 357 158 c 0
 357 130 355 102 342 80 c 0
 322 48 310 33 278 8 c 0
 255 -9 198 -17 183 -17 c 0
 101 -17 65 2 55 19 c 0
 50 27 47 38 47 53 c 0
 47 162 50 171 74 171 c 0
 108 171 87 117 115 79 c 0
 128 61 152 47 198 47 c 0
 257 47 292 75 292 122 c 0
 292 245 45 179 45 358 c 0xf0
EndSplineSet
Substitution2: "Single Substitution in Latin lookup 0 subtable" S
EndChar

StartChar: t
Encoding: 116 116 85
Width: 335
GlyphClass: 2
Flags: MW
HStem: -15 71<153.5 240> 448 56<187 311 187 314>
VStem: 97 90<397 448 397 448 397 504 504 535 397 587>
AnchorPoint: "Anchor-0" 169 573 basechar 0
LayerCount: 2
Fore
SplineSet
187 448 m 1
 187 346 184 264 184 201 c 0
 184 106 191 56 231 56 c 0
 249 56 272 66 304 85 c 1
 325 65 l 1
 268 6 223 -15 199 -15 c 0
 108 -15 94 45 94 188 c 0
 94 256 97 341 97 448 c 1
 10 448 l 1
 10 478 l 1
 97 495 l 1
 97 587 l 1
 178 610 170 611 174 611 c 0
 182 611 189 608 189 596 c 0
 189 584 187 565 187 535 c 2
 187 504 l 1
 314 504 l 1
 311 448 l 1
 187 448 l 1
EndSplineSet
Substitution2: "Single Substitution in Latin lookup 0 subtable" T
EndChar

StartChar: u
Encoding: 117 117 86
Width: 556
GlyphClass: 2
Flags: MW
HStem: -9 79<189.5 262> 468 33<321 355 321 323> 505 20G<158.5 168 465.5 475>
VStem: 89 89<216 249 195.5 311 195.5 389> 391 90<132.5 163.5 105.5 206> 393 96<401.5 426.5>
AnchorPoint: "Anchor-0" 279 510 basechar 0
LayerCount: 2
Fore
SplineSet
481 127 m 0xf8
 481 84 526 43 526 25 c 0
 526 21 524 19 517 17 c 2
 517 17 447 -6 440 -6 c 0
 418 -6 404 54 398 66 c 1
 306 1 232 -9 213 -9 c 0
 166 -9 114 33 99 92 c 0
 94 108 89 174 89 216 c 2
 89 311 l 2
 89 467 84 463 24 464 c 1
 22 498 l 1
 110 508 153 525 164 525 c 0
 172 525 182 522 182 510 c 0
 182 401 178 280 178 218 c 0
 178 173 180 138 188 116 c 0
 198 87 229 70 248 70 c 0
 276 70 331 82 350 92 c 0
 389 112 391 117 391 148 c 0xf8
 391 264 393 338 393 385 c 0
 393 468 387 468 355 468 c 2
 323 468 l 1
 321 501 l 1
 420 511 460 525 471 525 c 0
 479 525 489 522 489 510 c 0xf4
 489 293 481 200 481 127 c 0xf8
EndSplineSet
Substitution2: "Single Substitution in Latin lookup 0 subtable" U
EndChar

StartChar: v
Encoding: 118 118 87
Width: 492
GlyphClass: 2
Flags: MW
HStem: -15 21G<221.5 265> 468 33<0 2> 509 20G
AnchorPoint: "Anchor-0" 263 510 basechar 0
LayerCount: 2
Fore
SplineSet
0 501 m 1
 89 512 132 529 143 529 c 0
 151 529 160 526 160 514 c 0
 160 482 265 105 265 105 c 1
 368 377 371 430 371 446 c 0
 371 490 335 459 335 493 c 0
 335 508 351 511 369 511 c 0
 385 511 401 509 412 509 c 0
 442 509 461 513 478 513 c 0
 490 513 492 505 492 498 c 0
 492 483 473 492 372 241 c 0
 276 4 289 -15 241 -15 c 0
 202 -15 203 8 156 165 c 0
 122 276 91 414 59 450 c 0
 44 467 28 465 2 468 c 1
 0 501 l 1
EndSplineSet
Substitution2: "Single Substitution in Latin lookup 0 subtable" V
EndChar

StartChar: w
Encoding: 119 119 88
Width: 811
GlyphClass: 2
Flags: MW
HStem: -15 21G<220.5 264 530.5 574> 468 33<0 2> 489 20G<715.5 736> 509 20G
AnchorPoint: "Anchor-0" 423 510 basechar 0
LayerCount: 2
Fore
SplineSet
0 501 m 1xc0
 88 512 131 529 142 529 c 0xd0
 150 529 160 526 160 514 c 0
 160 482 265 105 265 105 c 1
 344 315 370 406 370 444 c 0
 370 465 354 483 354 495 c 0
 354 506 369 513 428 513 c 0
 474 513 471 502 473 490 c 0
 492 400 574 105 574 105 c 1
 677 377 680 430 680 446 c 0
 680 496 644 459 644 493 c 0
 644 508 660 511 678 511 c 0
 694 511 710 509 721 509 c 0xa0
 751 509 780 513 797 513 c 0
 809 513 811 505 811 498 c 0
 811 483 782 492 681 241 c 0
 585 4 598 -15 550 -15 c 0
 511 -15 512 8 465 165 c 0
 447 223 430 289 414 343 c 1
 371 241 l 1
 276 4 288 -15 240 -15 c 0
 201 -15 203 8 155 165 c 0
 122 276 90 414 58 450 c 0
 44 467 28 465 2 468 c 1
 0 501 l 1xc0
EndSplineSet
Substitution2: "Single Substitution in Latin lookup 0 subtable" W
EndChar

StartChar: x
Encoding: 120 120 89
Width: 453
GlyphClass: 2
Flags: HMW
HStem: -18 21G<414.5 438.5> 0 34<-5 -5 -5 159> 469 33<17 19> 492 20G<358 386.5> 506 20G<118 143>
AnchorPoint: "Anchor-0" 241 510 basechar 0
LayerCount: 2
Back
SplineSet
-5 0 m 5x40
 -5 34 l 5
 37 37 37 34 190 266 c 5
 75 447 85 462 19 469 c 5
 17 502 l 5
 80 510 108 526 128 526 c 4x68
 158 526 169 491 252 341 c 5
 292 397 329 446 329 458 c 4
 329 494 292 470 292 497 c 4
 292 500 295 514 315 514 c 4
 329 514 344 512 372 512 c 4
 401 512 407 514 430 514 c 4
 442 514 450 509 450 493 c 4
 450 472 423 488 392 446 c 5
 358 404 294 310 284 295 c 5
 451 34 453 22 453 2 c 4
 453 -16 441 -18 436 -18 c 4x90
 393 -18 327 65 223 224 c 5
 155 119 122 74 122 54 c 4
 122 42 135 38 159 34 c 5
 159 0 l 5
 -5 0 l 5x40
EndSplineSet
Fore
SplineSet
-5 0 m 1x40
 -5 34 l 1
 6 35 15 35 24 40 c 0
 48 53 79 97 190 266 c 1
 75 447 85 462 19 469 c 1
 17 502 l 1
 80 510 108 526 128 526 c 0x68
 158 526 169 491 252 341 c 1
 292 397 329 446 329 458 c 0
 329 494 292 470 292 497 c 0
 292 500 295 514 315 514 c 0
 329 514 344 512 372 512 c 0
 401 512 407 514 430 514 c 0
 442 514 450 509 450 493 c 0
 450 472 423 488 392 446 c 1
 358 404 294 310 284 295 c 1
 451 34 453 22 453 2 c 0
 453 -16 441 -18 436 -18 c 0x90
 393 -18 327 65 223 224 c 1
 155 119 122 74 122 54 c 0
 122 42 135 38 159 34 c 1
 159 0 l 1
 -5 0 l 1x40
EndSplineSet
Substitution2: "Single Substitution in Latin lookup 0 subtable" X
EndChar

StartChar: y
Encoding: 121 121 90
Width: 492
GlyphClass: 2
Flags: MW
HStem: 468 33<0 2> 509 20G
AnchorPoint: "Anchor-0" 264 510 basechar 0
LayerCount: 2
Fore
SplineSet
0 501 m 1
 88 512 132 529 143 529 c 0
 151 529 160 526 160 514 c 0
 160 482 265 105 265 105 c 1
 367 377 371 430 371 446 c 0
 371 490 335 459 335 493 c 0
 335 508 351 511 369 511 c 0
 384 511 401 509 412 509 c 0
 442 509 461 513 478 513 c 0
 489 513 492 505 492 498 c 0
 492 483 473 492 371 241 c 1
 193 -202 227 -208 193 -208 c 0
 144 -208 127 -196 127 -179 c 0
 127 -142 198 -76 198 -19 c 0
 198 24 94 410 59 450 c 0
 44 467 28 465 2 468 c 1
 0 501 l 1
EndSplineSet
Substitution2: "Single Substitution in Latin lookup 0 subtable" Y
EndChar

StartChar: z
Encoding: 122 122 91
Width: 516
GlyphClass: 2
Flags: MW
HStem: 0 21G<44 44> 4 47<264 310 192.5 382> 461 45<178.5 233 233 238>
VStem: 54 38<321 321> 436 43<-17 -12.5> 449 42<179 182>
AnchorPoint: "Anchor-0" 278 510 basechar 0
LayerCount: 2
Fore
SplineSet
33 26 m 1xb8
 340 457 l 1
 340 460 321 461 238 461 c 2
 233 461 l 2
 124 461 122 460 92 321 c 1
 54 321 l 1
 62 509 53 509 79 509 c 0
 110 509 110 506 234 506 c 0
 346 506 447 510 447 510 c 2
 470 510 476 500 476 489 c 0
 476 471 447 435 413 394 c 2
 387 362 l 2
 228 165 184 63 184 56 c 0
 184 52 188 51 197 51 c 0
 423 51 417 75 428 102 c 0
 438 127 441 151 449 182 c 1
 491 179 l 1x74
 485 124 479 34 479 -14 c 0
 479 -20 480 -25 480 -30 c 1
 436 -27 l 1
 436 2 427 4 337 4 c 0x78
 191 4 161 2 44 0 c 1
 33 26 l 1xb8
EndSplineSet
Substitution2: "Single Substitution in Latin lookup 0 subtable" Z
EndChar

StartChar: braceleft
Encoding: 123 123 92
Width: 388
GlyphClass: 2
Flags: MW
HStem: -208 33<379 388> 768 33<379 388>
LayerCount: 2
Fore
SplineSet
50 282 m 1
 56 314 l 1
 88 322 120 330 160 343 c 1
 188 383 157 713 212 768 c 1
 252 778 329 793 379 801 c 1
 388 768 l 1
 356 761 324 753 284 740 c 1
 262 708 276 500 257 384 c 0
 249 336 175 300 154 297 c 1
 175 295 249 259 257 211 c 0
 276 95 262 -113 284 -145 c 1
 324 -159 356 -167 388 -175 c 1
 379 -208 l 1
 329 -199 252 -185 212 -175 c 1
 157 -121 185 216 160 253 c 1
 120 266 82 275 50 282 c 1
EndSplineSet
EndChar

StartChar: bar
Encoding: 124 124 93
Width: 240
GlyphClass: 2
Flags: MW
HStem: 777 20G<81 159 159 159>
VStem: 81 78<-203 797 -203 797>
LayerCount: 2
Fore
SplineSet
81 -203 m 1
 81 797 l 1
 159 797 l 1
 159 -203 l 1
 81 -203 l 1
EndSplineSet
EndChar

StartChar: braceright
Encoding: 125 125 94
Width: 388
GlyphClass: 2
Flags: MW
HStem: -208 33<0 9> 768 33<0 9>
LayerCount: 2
Fore
SplineSet
0 -175 m 1
 32 -167 64 -159 104 -145 c 1
 126 -113 112 95 131 211 c 0
 139 259 213 295 234 297 c 1
 213 300 139 336 131 384 c 0
 112 500 126 708 104 740 c 1
 64 753 32 761 0 768 c 1
 9 801 l 1
 59 793 136 778 176 768 c 1
 231 713 200 383 228 343 c 1
 268 330 306 320 338 313 c 1
 332 281 l 1
 300 274 268 266 228 253 c 1
 203 216 231 -121 176 -175 c 1
 136 -185 59 -199 9 -208 c 1
 0 -175 l 1
EndSplineSet
EndChar

StartChar: asciitilde
Encoding: 126 126 95
Width: 480
GlyphClass: 2
Flags: MW
HStem: 248 66<317 356 317 375.5> 311 66<123.5 163>
LayerCount: 2
Fore
SplineSet
2 286 m 1x40
 35 331 76 377 141 377 c 0x40
 217 377 290 314 344 314 c 0
 368 314 388 324 424 373 c 1
 477 340 l 1
 459 312 412 248 339 248 c 0x80
 263 248 196 311 130 311 c 0
 117 311 97 308 55 252 c 1
 2 286 l 1x40
EndSplineSet
EndChar

StartChar: exclamdown
Encoding: 161 161 96
Width: 240
GlyphClass: 2
Flags: MW
HStem: -10 21G<68 68>
VStem: 69 114<659 699.5>
LayerCount: 2
Fore
SplineSet
69 689 m 0
 69 710 111 759 135 759 c 0
 156 759 183 673 183 665 c 0
 183 653 157 601 131 601 c 0
 106 601 69 675 69 689 c 0
170 7 m 1
 135 2 95 -4 68 -10 c 1
 56 1 l 1
 72 201 96 479 110 553 c 1
 143 547 l 1
 148 463 l 2
 156 321 170 48 170 7 c 1
EndSplineSet
EndChar

StartChar: cent
Encoding: 162 162 97
Width: 480
GlyphClass: 2
Flags: MW
HStem: 454 71<279 309>
VStem: 49 89<219.5 266.5> 238 41<-91 -14 -14 -14 66 454 525 613> 382 30<354 359>
LayerCount: 2
Fore
SplineSet
49 240 m 0
 49 293 52 334 62 383 c 0
 67 406 92 432 97 436 c 0
 165 498 205 517 238 523 c 1
 238 613 l 1
 279 613 l 1
 279 525 l 1
 339 525 405 508 415 504 c 1
 413 484 412 364 412 354 c 1
 382 354 l 1
 382 354 372 398 366 418 c 0
 361 437 322 449 279 454 c 1
 279 63 l 1
 345 66 411 134 411 134 c 1
 432 114 l 1
 391 69 347 8 279 -10 c 1
 279 -91 l 1
 238 -91 l 1
 238 -14 l 1
 208 -14 173 -5 133 16 c 1
 100 46 83 74 63 120 c 1
 55 154 49 195 49 240 c 0
138 272 m 0
 138 167 154 84 238 66 c 1
 238 456 l 1
 158 456 138 414 138 272 c 0
EndSplineSet
EndChar

StartChar: sterling
Encoding: 163 163 98
Width: 488
GlyphClass: 2
Flags: MW
HStem: 0 33<25 36> 3 57 246 40<46 105 46 105 201 372> 483 47<294.5 298.5>
VStem: 105 93<246 246 246 286> 395 29<145 150>
LayerCount: 2
Fore
SplineSet
25 33 m 1xbc
 70 42 100 50 105 246 c 1
 46 246 l 1
 46 286 l 1
 105 286 l 1
 111 347 109 374 138 413 c 0
 207 506 269 530 320 530 c 0
 359 530 392 516 415 507 c 1
 400 386 l 1
 377 386 l 1
 370 416 362 440 353 461 c 1
 331 476 309 483 288 483 c 0
 248 483 214 453 208 382 c 0
 205 356 202 316 201 286 c 1
 372 286 l 1
 372 246 l 1
 198 246 l 1
 193 144 168 92 140 60 c 1x7c
 179 58 213 57 241 57 c 0
 315 57 353 63 370 66 c 1
 379 86 l 1
 395 150 l 1
 424 150 l 1
 424 140 426 20 428 0 c 1xbc
 296 2 214 3 161 3 c 0x7c
 71 3 51 1 36 0 c 1
 25 33 l 1xbc
EndSplineSet
EndChar

StartChar: brokenbar
Encoding: 166 166 99
Width: 240
GlyphClass: 2
Flags: MW
HStem: 777 20G<81 159 159 159>
VStem: 81 78<-203 200 -203 200 394 797>
LayerCount: 2
Fore
SplineSet
81 200 m 1
 159 200 l 1
 159 -203 l 1
 81 -203 l 1
 81 200 l 1
81 394 m 1
 81 797 l 1
 159 797 l 1
 159 394 l 1
 81 394 l 1
EndSplineSet
EndChar

StartChar: section
Encoding: 167 167 100
Width: 480
GlyphClass: 2
Flags: MW
HStem: -203 56<193.5 242> -36 20G<86 121 121 121> 721 55<246 257.5>
VStem: 50 84<281 313> 77 68<614 639> 86 35<-29.5 -16> 347 68<-80.5 18.5> 352 78<276.5 335> 355 37<594 607.5>
LayerCount: 2
Fore
SplineSet
50 276 m 0xf2
 50 350 73 377 128 416 c 1
 179 451 l 1
 112 489 77 543 77 604 c 0
 77 674 116 711 143 733 c 0
 178 762 217 776 275 776 c 0
 312 776 369 759 397 738 c 1
 392 703 392 621 392 594 c 1
 355 594 l 1xe880
 354 608 341 670 329 688 c 0
 315 708 274 721 241 721 c 0
 188 721 145 688 145 638 c 0
 145 590 177 554 271 503 c 2
 329 472 l 2
 380 444 430 408 430 329 c 0xe9
 430 224 384 192 307 161 c 1
 343 139 l 2
 369 123 370 121 382 105 c 0
 403 74 415 38 415 -1 c 0
 415 -33 412 -100 335 -164 c 0
 302 -191 265 -203 219 -203 c 0
 168 -203 118 -198 80 -162 c 1
 85 -127 86 -43 86 -16 c 1
 121 -16 l 1xe6
 129 -90 143 -147 233 -147 c 0
 283 -147 347 -119 347 -42 c 0
 347 -26 344 -14 341 -2 c 1
 311 42 293 56 202 107 c 1
 88 169 50 211 50 276 c 0xf2
134 303 m 0xf1
 134 259 167 235 207 214 c 2
 263 185 l 1
 268 185 352 217 352 300 c 0
 352 370 228 422 228 422 c 1
 150 399 134 352 134 303 c 0xf1
EndSplineSet
EndChar

StartChar: dieresis
Encoding: 168 168 101
Width: 500
GlyphClass: 4
Flags: MW
HStem: 584 133<141.5 159 135 162.5 328.5 346.5>
VStem: 97 113<639 648.5> 284 114<639 648.5>
AnchorPoint: "Anchor-0" 243 510 mark 0
LayerCount: 2
Fore
SplineSet
97 645 m 0
 97 652 118 717 152 717 c 0
 166 717 210 692 210 656 c 0
 210 622 173 584 152 584 c 0
 131 584 97 632 97 645 c 0
284 645 m 0
 284 652 306 717 339 717 c 0
 354 717 398 692 398 656 c 0
 398 622 360 584 339 584 c 0
 318 584 284 632 284 645 c 0
EndSplineSet
EndChar

StartChar: copyright
Encoding: 169 169 102
Width: 776
GlyphClass: 2
Flags: MW
HStem: -18 49<299 472.5 299 483.5> 112 61<380.5 392.5> 494 56<385.5 395> 638 48<308.5 467>
VStem: 36 49<254.5 423.5 254.5 436.5> 219 72<325 341> 488 25<411 415> 692 48<248.5 423>
LayerCount: 2
Fore
SplineSet
36 331 m 0
 36 542 204 686 385 686 c 0
 588 686 740 528 740 335 c 0
 740 130 576 -18 391 -18 c 0
 180 -18 36 150 36 331 c 0
85 332 m 0
 85 177 207 31 391 31 c 0
 554 31 692 162 692 335 c 0
 692 511 547 638 387 638 c 0
 230 638 85 515 85 332 c 0
219 319 m 0
 219 363 221 395 229 435 c 0
 232 445 236 457 238 459 c 0
 331 550 366 550 405 550 c 0
 453 550 507 536 515 533 c 1
 513 517 513 419 513 411 c 1
 488 411 l 1
 476 464 l 1
 470 484 418 494 372 494 c 0
 307 494 291 461 291 345 c 0
 291 305 294 274 300 250 c 1
 309 226 320 210 332 196 c 1
 349 182 369 173 392 173 c 0
 447 173 512 233 512 233 c 1
 529 217 l 1
 439 119 l 1
 420 116 398 112 387 112 c 0
 347 112 313 123 287 138 c 1
 260 162 246 185 230 222 c 1
 224 250 219 283 219 319 c 0
EndSplineSet
EndChar

StartChar: ordfeminine
Encoding: 170 170 103
Width: 310
GlyphClass: 2
Flags: MW
HStem: 439 37<124 143> 449 15<300 310 300 310> 597 22<210 210> 699 35<112.5 178>
VStem: 40 54<503 529.5 503 558.5> 55 25<629 629> 210 57<619 686 665 686>
LayerCount: 2
Fore
SplineSet
40 511 m 0xba
 40 606 123 601 210 619 c 1
 210 665 l 2
 210 680 159 699 132 699 c 0
 93 699 80 629 80 629 c 1
 55 629 l 1
 62 702 l 1
 99 723 148 734 169 734 c 0
 187 734 224 723 249 708 c 0
 260 701 265 695 267 686 c 1
 265 494 l 1
 267 473 290 464 310 464 c 1
 310 449 l 1x76
 276 449 234 440 234 440 c 1
 214 482 l 1
 147 442 l 1
 124 439 l 1
 55 442 40 464 40 511 c 0xba
94 517 m 0xba
 94 489 109 476 140 476 c 0
 146 476 157 478 173 483 c 1
 211 506 l 1
 210 597 l 1
 184 592 145 579 112 565 c 1
 99 556 94 542 94 517 c 0xba
EndSplineSet
EndChar

StartChar: guillemotleft
Encoding: 171 171 104
Width: 523
GlyphClass: 2
Flags: W
LayerCount: 2
Fore
SplineSet
28 245 m 1
 89 288 235 422 250 437 c 1
 282 421 l 1
 129 242 l 1
 280 65 l 1
 251 50 l 1
 187 113 89 203 28 245 c 1
225 245 m 1
 286 288 432 422 447 437 c 1
 479 421 l 1
 325 242 l 1
 477 65 l 1
 448 50 l 1
 384 113 286 203 225 245 c 1
EndSplineSet
EndChar

StartChar: softhyphen
Encoding: 173 173 105
Width: 270
GlyphClass: 2
Flags: MW
HStem: 250 66<17 242 31 241>
VStem: 17 236<250 305>
LayerCount: 2
Fore
SplineSet
17 250 m 1
 31 316 l 1
 242 316 l 1
 253 305 l 1
 241 250 l 1
 17 250 l 1
EndSplineSet
EndChar

StartChar: registered
Encoding: 174 174 106
Width: 625
GlyphClass: 2
Flags: MW
HStem: 251 36<249 378.5 249 386.5> 372 18<179 179> 515 22<299 306 306 318> 647 23<316 337> 742 37<253 381>
VStem: 50 47<451.5 575.5 451.5 586.5> 218 43<400.5 409 400.5 409.5> 364 46<581.5 616> 532 43<454.5 575.5>
LayerCount: 2
Fore
SplineSet
50 515 m 0
 50 658 170 779 315 779 c 0
 481 779 575 658 575 515 c 0
 575 371 458 251 315 251 c 0
 141 251 50 371 50 515 c 0
97 515 m 0
 97 388 183 287 315 287 c 0
 442 287 532 394 532 515 c 0
 532 636 447 742 315 742 c 0
 191 742 97 636 97 515 c 0
179 372 m 1
 179 390 l 1
 201 391 218 393 218 408 c 0
 218 411 218 553 215 633 c 0
 215 645 205 647 185 648 c 1
 179 649 l 1
 179 667 l 1
 191 666 215 666 240 666 c 0
 302 666 310 670 328 670 c 2
 337 670 l 2
 374 670 410 643 410 598 c 0
 410 561 390 545 356 525 c 1
 356 525 403 442 435 396 c 1
 459 387 l 1
 459 372 l 1
 435 372 420 372 395 370 c 1
 318 515 l 1
 306 515 l 2
 291 515 274 516 262 520 c 1
 261 464 261 410 261 408 c 0
 261 393 278 391 301 390 c 1
 301 372 l 1
 289 373 263 373 240 373 c 0
 216 373 191 373 179 372 c 1
263 544 m 1
 271 539 289 537 309 537 c 0
 353 537 364 570 364 593 c 0
 364 639 328 647 322 647 c 0
 310 647 279 646 269 642 c 1
 264 638 l 1
 264 619 263 583 263 544 c 1
EndSplineSet
EndChar

StartChar: macron
Encoding: 175 175 107
Width: 500
GlyphClass: 4
Flags: MW
HStem: 602 61<125 375 138 363>
VStem: 125 250<602 663>
AnchorPoint: "Anchor-0" 250 510 mark 0
LayerCount: 2
Fore
SplineSet
125 602 m 1
 138 663 l 1
 375 663 l 1
 363 602 l 1
 125 602 l 1
EndSplineSet
EndChar

StartChar: degree
Encoding: 176 176 108
Width: 310
GlyphClass: 2
Flags: MW
HStem: 442 36<151 158.5> 678 36<167.5 197>
VStem: 40 52<534.5 590> 244 51<574.5 619.5>
LayerCount: 2
Fore
SplineSet
40 566 m 0
 40 614 56 644 67 658 c 0
 89 687 152 714 183 714 c 0
 238 714 295 685 295 607 c 0
 295 542 275 514 265 503 c 0
 262 499 230 463 200 451 c 0
 185 445 168 442 149 442 c 0
 105 442 40 460 40 566 c 0
92 571 m 0
 92 498 126 478 176 478 c 0
 185 478 195 479 200 480 c 0
 231 491 244 539 244 598 c 0
 244 641 230 678 164 678 c 0
 124 678 92 669 92 571 c 0
EndSplineSet
EndChar

StartChar: plusminus
Encoding: 177 177 109
Width: 480
GlyphClass: 2
Flags: MW
HStem: 0 66<11 460 25 459> 275 66<11 208 25 208 25 208 275 275 275 459> 494 20G<264 264>
VStem: 208 66<117 117 117 275>
LayerCount: 2
Fore
SplineSet
11 275 m 1
 25 341 l 1
 208 341 l 1
 208 501 l 1
 264 514 l 1
 275 502 l 1
 274 341 l 1
 460 341 l 1
 472 330 l 1
 459 275 l 1
 275 275 l 1
 274 117 l 1
 208 103 l 1
 208 275 l 1
 11 275 l 1
11 0 m 1
 25 66 l 1
 460 66 l 1
 472 55 l 1
 459 0 l 1
 11 0 l 1
EndSplineSet
EndChar

StartChar: acute
Encoding: 180 180 110
Width: 500
GlyphClass: 4
Flags: MW
HStem: 558 201<162 312>
VStem: 144 212
AnchorPoint: "Anchor-0" 201 510 mark 0
LayerCount: 2
Fore
SplineSet
144 579 m 1
 198 635 266 719 298 759 c 1
 326 759 354 738 356 714 c 1
 318 679 218 595 162 558 c 1
 144 579 l 1
EndSplineSet
EndChar

StartChar: paragraph
Encoding: 182 182 111
Width: 480
GlyphClass: 2
Flags: MW
HStem: 703 35<305 383 305 305>
VStem: 30 275<469 642> 270 35<-170 348 348 348> 383 36<-170 703 703 703>
LayerCount: 2
Fore
SplineSet
30 550 m 0xd0
 30 734 156 737 290 738 c 1
 419 738 l 1
 419 -170 l 1
 383 -170 l 1
 383 703 l 1
 305 703 l 1
 305 -170 l 1
 270 -170 l 1
 270 348 l 1xb0
 241 348 l 2
 182 348 30 388 30 550 c 0xd0
EndSplineSet
EndChar

StartChar: periodcentered
Encoding: 183 183 112
Width: 250
GlyphClass: 2
Flags: MW
HStem: 208 158<102 123>
VStem: 63 114<267.5 308>
LayerCount: 2
Fore
SplineSet
177 278 m 0
 177 257 135 208 111 208 c 0
 90 208 63 294 63 302 c 0
 63 314 89 366 115 366 c 0
 140 366 177 292 177 278 c 0
EndSplineSet
EndChar

StartChar: cedilla
Encoding: 184 184 113
Width: 500
GlyphClass: 2
Flags: MW
HStem: -206 38<178 178>
VStem: 274 50<-139 -120>
LayerCount: 2
Fore
SplineSet
176 -168 m 1
 243 -168 274 -149 274 -129 c 0
 274 -111 247 -93 201 -91 c 1
 189 -80 l 1
 220 8 l 1
 244 6 l 1
 234 -43 l 1
 279 -52 324 -73 324 -119 c 0
 324 -169 297 -184 265 -199 c 1
 243 -203 201 -205 178 -206 c 1
 176 -168 l 1
EndSplineSet
EndChar

StartChar: ordmasculine
Encoding: 186 186 114
Width: 350
GlyphClass: 2
Flags: MW
HStem: 434 40<166 178> 694 39<172 177>
VStem: 40 58<544.5 606> 264 55<582 622>
LayerCount: 2
Fore
SplineSet
40 587 m 0
 40 625 55 658 65 672 c 0
 87 704 155 733 189 733 c 0
 252 733 319 699 319 606 c 0
 319 558 312 528 292 501 c 0
 289 496 255 457 223 444 c 0
 207 437 189 434 167 434 c 0
 117 434 40 455 40 587 c 0
98 591 m 0
 98 498 137 474 195 474 c 0
 205 474 216 474 222 476 c 0
 241 483 264 507 264 591 c 0
 264 653 248 678 203 690 c 0
 194 693 183 694 171 694 c 0
 134 694 98 694 98 591 c 0
EndSplineSet
EndChar

StartChar: guillemotright
Encoding: 187 187 115
Width: 523
GlyphClass: 2
Flags: W
LayerCount: 2
Fore
SplineSet
45 421 m 1
 77 437 l 1
 91 422 238 288 298 245 c 1
 238 203 140 113 75 50 c 1
 46 65 l 1
 198 242 l 1
 45 421 l 1
242 421 m 1
 273 437 l 1
 288 422 435 288 495 245 c 1
 435 203 337 113 272 50 c 1
 243 65 l 1
 395 242 l 1
 242 421 l 1
EndSplineSet
EndChar

StartChar: questiondown
Encoding: 191 191 116
Width: 445
GlyphClass: 2
Flags: MW
HStem: -10 62<202 294 202 317> 359 70<214.5 246.5 165 274> 501 20G<327 327>
VStem: 56 78<214 266.5 210 288> 286 114<627 667.5> 327 33<515 521> 357 25<144 144>
LayerCount: 2
Fore
SplineSet
286 657 m 0xf8
 286 678 328 727 352 727 c 0
 373 727 400 641 400 633 c 0
 400 621 374 569 348 569 c 0
 323 569 286 643 286 657 c 0xf8
313 402 m 1
 318 449 323 500 327 521 c 1
 360 515 l 1xf4
 371 307 l 1
 323 348 285 359 263 359 c 0
 166 359 134 309 134 224 c 0
 134 196 138 165 143 131 c 0
 152 72 176 52 228 52 c 0
 360 52 346 102 357 144 c 1
 382 144 l 1xf2
 384 104 386 74 386 51 c 0
 386 6 369 -10 265 -10 c 0
 137 -10 71 109 69 117 c 0
 61 157 56 196 56 232 c 0
 56 344 100 429 230 429 c 0
 263 429 290 418 313 402 c 1
EndSplineSet
EndChar

StartChar: Agrave
Encoding: 192 192 117
Width: 755
GlyphClass: 2
Flags: MW
HStem: 0 36<0 0 0 236> 249 43<222 484 222 497 208 484> 723 20<406.5 410> 803 174
VStem: 217 231<827 927 827 938>
LayerCount: 2
Fore
SplineSet
217 923 m 1
 217 927 l 2
 217 949 240 973 266 977 c 1
 304 943 386 872 448 827 c 1
 435 803 l 1
 373 830 260 895 217 923 c 1
0 0 m 1
 0 36 l 1
 60 42 71 53 134 210 c 2
 342 730 l 1
 353 738 403 743 410 743 c 1
 410 743 666 110 673 96 c 0
 689 68 705 43 755 36 c 1
 755 0 l 1
 469 0 l 1
 469 34 l 1
 505 37 558 45 558 78 c 0
 558 98 550 123 537 153 c 2
 518 197 l 2
 511 213 504 230 497 249 c 1
 208 249 l 1
 186 200 146 98 146 83 c 0
 146 50 193 43 236 39 c 1
 236 0 l 1
 0 0 l 1
222 292 m 1
 484 292 l 1
 351 621 l 1
 222 292 l 1
EndSplineSet
EndChar

StartChar: Aacute
Encoding: 193 193 118
Width: 755
GlyphClass: 2
Flags: MW
HStem: 0 36<0 0 0 236> 249 43<222 484 222 497 208 484> 723 20<406.5 410> 803 174
VStem: 305 231<827 927>
LayerCount: 2
Fore
SplineSet
305 827 m 1
 367 872 449 943 487 977 c 1
 513 973 536 949 536 927 c 2
 536 923 l 1
 493 895 380 830 318 803 c 1
 305 827 l 1
0 0 m 1
 0 36 l 1
 60 42 71 53 134 210 c 2
 342 730 l 1
 353 738 403 743 410 743 c 1
 410 743 666 110 673 96 c 0
 689 68 705 43 755 36 c 1
 755 0 l 1
 469 0 l 1
 469 34 l 1
 505 37 558 45 558 78 c 0
 558 98 550 123 537 153 c 2
 518 197 l 2
 511 213 504 230 497 249 c 1
 208 249 l 1
 186 200 146 98 146 83 c 0
 146 50 193 43 236 39 c 1
 236 0 l 1
 0 0 l 1
222 292 m 1
 484 292 l 1
 351 621 l 1
 222 292 l 1
EndSplineSet
EndChar

StartChar: Acircumflex
Encoding: 194 194 119
Width: 755
GlyphClass: 2
Flags: MW
HStem: 0 36<0 0 0 236> 249 43<222 484 222 497 208 484> 723 20<406.5 410> 795 139<365 484>
VStem: 263 240<811 812>
LayerCount: 2
Fore
SplineSet
263 811 m 1
 309 859 330 886 365 934 c 1
 405 934 l 1
 444 877 464 854 503 812 c 1
 484 795 l 1
 381 863 l 1
 281 793 l 1
 263 811 l 1
0 0 m 1
 0 36 l 1
 60 42 71 53 134 210 c 2
 342 730 l 1
 353 738 403 743 410 743 c 1
 410 743 666 110 673 96 c 0
 689 68 705 43 755 36 c 1
 755 0 l 1
 469 0 l 1
 469 34 l 1
 505 37 558 45 558 78 c 0
 558 98 550 123 537 153 c 2
 518 197 l 2
 511 213 504 230 497 249 c 1
 208 249 l 1
 186 200 146 98 146 83 c 0
 146 50 193 43 236 39 c 1
 236 0 l 1
 0 0 l 1
222 292 m 1
 484 292 l 1
 351 621 l 1
 222 292 l 1
EndSplineSet
EndChar

StartChar: Atilde
Encoding: 195 195 120
Width: 755
GlyphClass: 2
Flags: MW
HStem: 0 36<0 0 0 236> 249 43<222 484 222 497 208 484> 723 20<406.5 410> 869 60<318 329>
VStem: 218 318<830 907>
LayerCount: 2
Fore
SplineSet
218 830 m 1
 237 858 308 929 328 929 c 0
 358 929 387 894 454 876 c 1
 478 883 501 900 521 919 c 1
 536 907 l 1
 517 879 456 816 436 816 c 0
 402 816 348 869 310 869 c 1
 286 862 251 835 231 816 c 1
 218 830 l 1
0 0 m 1
 0 36 l 1
 60 42 71 53 134 210 c 2
 342 730 l 1
 353 738 403 743 410 743 c 1
 410 743 666 110 673 96 c 0
 689 68 705 43 755 36 c 1
 755 0 l 1
 469 0 l 1
 469 34 l 1
 505 37 558 45 558 78 c 0
 558 98 550 123 537 153 c 2
 518 197 l 2
 511 213 504 230 497 249 c 1
 208 249 l 1
 186 200 146 98 146 83 c 0
 146 50 193 43 236 39 c 1
 236 0 l 1
 0 0 l 1
222 292 m 1
 484 292 l 1
 351 621 l 1
 222 292 l 1
EndSplineSet
EndChar

StartChar: Adieresis
Encoding: 196 196 121
Width: 755
GlyphClass: 2
Flags: MW
HStem: 0 36<0 0 0 236> 249 43<222 484 222 497 208 484> 723 20<406.5 410> 812 133<275.5 293 269 296.5 462.5 480.5>
VStem: 231 113<867 876.5> 418 114<867 876.5>
LayerCount: 2
Fore
SplineSet
231 873 m 0
 231 880 252 945 286 945 c 0
 300 945 344 920 344 884 c 0
 344 850 307 812 286 812 c 0
 265 812 231 860 231 873 c 0
418 873 m 0
 418 880 440 945 473 945 c 0
 488 945 532 920 532 884 c 0
 532 850 494 812 473 812 c 0
 452 812 418 860 418 873 c 0
0 0 m 1
 0 36 l 1
 60 42 71 53 134 210 c 2
 342 730 l 1
 353 738 403 743 410 743 c 1
 410 743 666 110 673 96 c 0
 689 68 705 43 755 36 c 1
 755 0 l 1
 469 0 l 1
 469 34 l 1
 505 37 558 45 558 78 c 0
 558 98 550 123 537 153 c 2
 518 197 l 2
 511 213 504 230 497 249 c 1
 208 249 l 1
 186 200 146 98 146 83 c 0
 146 50 193 43 236 39 c 1
 236 0 l 1
 0 0 l 1
222 292 m 1
 484 292 l 1
 351 621 l 1
 222 292 l 1
EndSplineSet
EndChar

StartChar: Aring
Encoding: 197 197 122
Width: 755
GlyphClass: 2
Flags: MW
HStem: 0 36<0 0 0 236> 249 43<222 484 222 497 208 484> 723 20<406.5 410> 792 33<369 375.5> 939 33<371.5 374.5>
VStem: 292 42<861.5 895.5> 420 40<880.5 901.5>
LayerCount: 2
Fore
SplineSet
292 884 m 0
 292 907 301 926 307 935 c 0
 321 954 361 972 382 972 c 0
 420 972 460 951 460 895 c 0
 460 866 456 849 444 832 c 0
 442 830 421 806 402 798 c 0
 392 794 382 792 369 792 c 0
 338 792 292 805 292 884 c 0
334 886 m 0
 334 837 354 825 384 825 c 0
 389 825 395 825 398 826 c 0
 408 830 420 842 420 885 c 0
 420 918 411 930 388 937 c 0
 383 938 378 939 371 939 c 0
 352 939 334 939 334 886 c 0
0 0 m 1
 0 36 l 1
 60 42 71 53 134 210 c 2
 342 730 l 1
 353 738 403 743 410 743 c 1
 410 743 666 110 673 96 c 0
 689 68 705 43 755 36 c 1
 755 0 l 1
 469 0 l 1
 469 34 l 1
 505 37 558 45 558 78 c 0
 558 98 550 123 537 153 c 2
 518 197 l 2
 511 213 504 230 497 249 c 1
 208 249 l 1
 186 200 146 98 146 83 c 0
 146 50 193 43 236 39 c 1
 236 0 l 1
 0 0 l 1
222 292 m 1
 484 292 l 1
 351 621 l 1
 222 292 l 1
EndSplineSet
EndChar

StartChar: AE
Encoding: 198 198 123
Width: 1033
GlyphClass: 2
Flags: MW
HStem: 0 36<0 0 0 236> 0 44<724 797.5 724 982> 249 43<270 515 270 515 249 515> 344 74<839 867 839 867> 370 43<619 619> 681 53<495 591> 701 37<364 364>
VStem: 513 104<83 87.5 66.5 93> 515 104 907 34<542 542> 954 37<232 232>
AnchorPoint: "Anchor-0" 568 737 basechar 0
LayerCount: 2
Fore
SplineSet
0 0 m 1xa0e0
 0 36 l 1
 60 42 76 53 167 210 c 1
 430 673 l 1
 430 673 434 678 434 684 c 0
 434 698 418 697 378 700 c 2
 364 701 l 1
 364 738 l 1xa2e0
 391 736 516 734 568 734 c 0x24e0
 614 734 663 735 694 737 c 0
 699 737 956 738 956 738 c 1
 968 727 l 1
 966 716 942 556 941 542 c 1
 907 542 l 1
 903 569 886 648 886 650 c 0
 882 660 879 669 870 676 c 1
 838 682 821 685 706 685 c 0
 650 685 625 680 624 651 c 0
 622 593 621 499 620 413 c 1x2ae0
 680 413 846 417 867 418 c 1
 857 344 l 1
 839 344 l 1x30e0
 798 374 648 367 619 370 c 1x28e0
 618 222 617 92 617 83 c 0
 617 50 664 44 784 44 c 0
 811 44 878 47 889 56 c 0
 915 78 930 140 940 178 c 2
 954 232 l 1
 991 232 l 1
 988 191 982 10 982 0 c 1
 423 0 l 1
 423 37 l 1
 472 40 512 45 513 83 c 0x6960
 513 103 514 167 515 249 c 1
 249 249 l 1
 247 246 157 101 157 77 c 0
 157 49 195 43 236 39 c 1
 236 0 l 1
 0 0 l 1xa0e0
270 292 m 1
 515 292 l 1x2ce0
 516 330 516 371 516 413 c 0
 516 499 515 588 513 661 c 0
 512 671 505 681 497 681 c 0x2d60
 493 681 488 678 485 671 c 2
 270 292 l 1
EndSplineSet
EndChar

StartChar: Ccedilla
Encoding: 199 199 124
Width: 728
GlyphClass: 2
Flags: MW
HStem: -206 38<313 313> -16 54<406 437 374 460.5> 690 62<315 497>
VStem: 73 100<330.5 406> 408 51<-139 -120> 622 37<232 232>
AnchorPoint: "Anchor-0" 438 738 basechar 0
LayerCount: 2
Fore
SplineSet
73 366 m 0
 73 446 84 516 108 572 c 0
 129 621 216 728 344 745 c 0
 373 749 421 752 461 752 c 0
 533 752 612 740 643 723 c 1
 655 712 l 1
 655 702 646 550 645 536 c 1
 611 536 l 1
 583 635 572 663 561 671 c 1
 503 686 457 690 413 690 c 0
 217 690 173 605 173 362 c 0
 173 299 178 150 307 72 c 0
 338 53 380 38 432 38 c 0
 489 38 539 58 579 89 c 1
 583 96 598 140 608 178 c 2
 622 232 l 1
 659 232 l 1
 655 191 655 43 655 33 c 1
 597 12 520 -11 437 -16 c 1
 374 -16 l 1
 369 -43 l 1
 413 -52 459 -73 459 -119 c 0
 459 -169 431 -184 400 -199 c 1
 378 -203 336 -205 313 -206 c 1
 310 -168 l 1
 377 -168 408 -149 408 -129 c 0
 408 -111 381 -93 335 -91 c 1
 323 -80 l 1
 347 -13 l 1
 188 5 73 104 73 366 c 0
EndSplineSet
EndChar

StartChar: Egrave
Encoding: 200 200 125
Width: 640
GlyphClass: 2
Flags: MW
HStem: 0 37<29 29 29 589> 0 44<331 404.5 331 589> 344 74<446 473 446 473> 370 43<226 226> 685 52<300 302.5 300 335> 701 37<37 37> 803 174
VStem: 119 105<66.5 83> 175 231<827 927 827 938> 514 34<542 542> 561 37<232 232>
LayerCount: 2
Fore
SplineSet
175 923 m 1x02e0
 175 927 l 2x02e0
 175 949 198 973 224 977 c 1x0360
 262 943 344 872 406 827 c 1
 393 803 l 1
 331 830 218 895 175 923 c 1x02e0
29 0 m 1x8360
 29 37 l 1
 79 40 119 45 119 83 c 1
 120 115 123 260 123 413 c 0
 123 499 122 588 119 661 c 0
 118 693 97 697 51 700 c 2
 37 701 l 1
 37 738 l 1x9760
 64 736 123 734 175 734 c 0
 220 734 270 735 300 737 c 0x0ae0
 305 737 563 738 563 738 c 1x06e0
 575 727 l 1
 572 716 549 556 548 542 c 1
 514 542 l 1
 509 569 493 648 492 650 c 0
 489 660 486 669 476 676 c 1
 463 679 454 680 439 682 c 0
 415 685 357 685 313 685 c 0
 256 685 232 680 231 651 c 0
 229 593 228 499 227 413 c 1x1ae0
 286 413 452 417 473 418 c 1
 463 344 l 1
 446 344 l 1x22e0
 405 374 255 367 226 370 c 1
 224 222 224 92 224 83 c 0
 224 50 271 44 391 44 c 0x5360
 418 44 485 47 496 56 c 0
 521 78 537 140 547 178 c 2
 561 232 l 1
 598 232 l 1
 594 191 589 10 589 0 c 1
 29 0 l 1x8360
EndSplineSet
EndChar

StartChar: Eacute
Encoding: 201 201 126
Width: 640
GlyphClass: 2
Flags: MW
HStem: 0 37<29 29 29 589> 0 44<331 404.5 331 589> 344 74<446 473 446 473> 370 43<226 226> 685 52<300 302.5 300 335> 701 37<37 37> 803 174
VStem: 119 105<66.5 83> 263 231<827 927> 514 34<542 542> 561 37<232 232>
LayerCount: 2
Fore
SplineSet
263 827 m 1x03e0
 325 872 407 943 445 977 c 1
 471 973 494 949 494 927 c 2
 494 923 l 1
 451 895 338 830 276 803 c 1
 263 827 l 1x03e0
29 0 m 1x83e0
 29 37 l 1
 79 40 119 45 119 83 c 1
 120 115 123 260 123 413 c 0
 123 499 122 588 119 661 c 0
 118 693 97 697 51 700 c 2
 37 701 l 1
 37 738 l 1x97e0
 64 736 123 734 175 734 c 0
 220 734 270 735 300 737 c 0x0be0
 305 737 563 738 563 738 c 1x07e0
 575 727 l 1
 572 716 549 556 548 542 c 1
 514 542 l 1
 509 569 493 648 492 650 c 0
 489 660 486 669 476 676 c 1
 463 679 454 680 439 682 c 0
 415 685 357 685 313 685 c 0
 256 685 232 680 231 651 c 0
 229 593 228 499 227 413 c 1x1be0
 286 413 452 417 473 418 c 1
 463 344 l 1
 446 344 l 1x23e0
 405 374 255 367 226 370 c 1
 224 222 224 92 224 83 c 0
 224 50 271 44 391 44 c 0x53e0
 418 44 485 47 496 56 c 0
 521 78 537 140 547 178 c 2
 561 232 l 1
 598 232 l 1
 594 191 589 10 589 0 c 1
 29 0 l 1x83e0
EndSplineSet
EndChar

StartChar: Ecircumflex
Encoding: 202 202 127
Width: 640
GlyphClass: 2
Flags: MW
HStem: 0 37<29 29 29 589> 0 44<331 404.5 331 589> 344 74<446 473 446 473> 370 43<226 226> 685 52<300 302.5 300 335> 701 37<37 37> 795 139<323 442>
VStem: 119 105<66.5 83> 221 240<811 812> 514 34<542 542> 561 37<232 232>
LayerCount: 2
Fore
SplineSet
221 811 m 1x02e0
 267 859 288 886 323 934 c 1
 363 934 l 1
 402 877 422 854 461 812 c 1
 442 795 l 1
 339 863 l 1
 239 793 l 1
 221 811 l 1x02e0
29 0 m 1x8360
 29 37 l 1
 79 40 119 45 119 83 c 1
 120 115 123 260 123 413 c 0
 123 499 122 588 119 661 c 0
 118 693 97 697 51 700 c 2
 37 701 l 1
 37 738 l 1x9760
 64 736 123 734 175 734 c 0
 220 734 270 735 300 737 c 0x0b60
 305 737 563 738 563 738 c 1x0760
 575 727 l 1
 572 716 549 556 548 542 c 1
 514 542 l 1
 509 569 493 648 492 650 c 0
 489 660 486 669 476 676 c 1
 463 679 454 680 439 682 c 0
 415 685 357 685 313 685 c 0
 256 685 232 680 231 651 c 0
 229 593 228 499 227 413 c 1x1b60
 286 413 452 417 473 418 c 1
 463 344 l 1
 446 344 l 1x2360
 405 374 255 367 226 370 c 1
 224 222 224 92 224 83 c 0
 224 50 271 44 391 44 c 0x5360
 418 44 485 47 496 56 c 0
 521 78 537 140 547 178 c 2
 561 232 l 1
 598 232 l 1
 594 191 589 10 589 0 c 1
 29 0 l 1x8360
EndSplineSet
EndChar

StartChar: Edieresis
Encoding: 203 203 128
Width: 640
GlyphClass: 2
Flags: MW
HStem: 0 37<29 29 29 589> 0 44<331 404.5 331 589> 344 74<446 473 446 473> 370 43<226 226> 685 52<300 302.5 300 335> 701 37<37 37> 812 133<233.5 251 227 254.5 420.5 438.5>
VStem: 119 105<66.5 83> 189 113<867 876.5> 376 114<867 876.5> 514 34<542 542> 561 37<232 232>
LayerCount: 2
Fore
SplineSet
189 873 m 0x02f0
 189 880 210 945 244 945 c 0
 258 945 302 920 302 884 c 0
 302 850 265 812 244 812 c 0
 223 812 189 860 189 873 c 0x02f0
376 873 m 0
 376 880 398 945 431 945 c 0
 446 945 490 920 490 884 c 0
 490 850 452 812 431 812 c 0
 410 812 376 860 376 873 c 0
29 0 m 1x8370
 29 37 l 1
 79 40 119 45 119 83 c 1
 120 115 123 260 123 413 c 0
 123 499 122 588 119 661 c 0
 118 693 97 697 51 700 c 2
 37 701 l 1
 37 738 l 1x9770
 64 736 123 734 175 734 c 0
 220 734 270 735 300 737 c 0x0b70
 305 737 563 738 563 738 c 1x0770
 575 727 l 1
 572 716 549 556 548 542 c 1
 514 542 l 1
 509 569 493 648 492 650 c 0
 489 660 486 669 476 676 c 1
 463 679 454 680 439 682 c 0
 415 685 357 685 313 685 c 0
 256 685 232 680 231 651 c 0
 229 593 228 499 227 413 c 1x1b70
 286 413 452 417 473 418 c 1
 463 344 l 1
 446 344 l 1x2370
 405 374 255 367 226 370 c 1
 224 222 224 92 224 83 c 0
 224 50 271 44 391 44 c 0x5370
 418 44 485 47 496 56 c 0
 521 78 537 140 547 178 c 2
 561 232 l 1
 598 232 l 1
 594 191 589 10 589 0 c 1
 29 0 l 1x8370
EndSplineSet
EndChar

StartChar: Igrave
Encoding: 204 204 129
Width: 335
GlyphClass: 2
Flags: MW
HStem: 0 37<29 29 29 306> 701 37<29 306 29 306> 803 174
VStem: 7 231<827 927 827 938> 112 111<661 661> 119 97<64.5 87>
LayerCount: 2
Fore
SplineSet
7 923 m 1xf0
 7 927 l 2
 7 949 30 973 56 977 c 1
 94 943 176 872 238 827 c 1
 225 803 l 1
 163 830 50 895 7 923 c 1xf0
29 0 m 1
 29 37 l 1
 79 40 119 45 119 83 c 0xe4
 119 91 118 462 112 661 c 0
 111 693 90 697 43 700 c 2
 29 701 l 1
 29 738 l 1
 306 738 l 1
 306 701 l 1
 292 700 l 2
 245 697 224 693 223 661 c 0xe8
 218 518 216 92 216 83 c 0xe4
 216 46 254 41 306 37 c 1
 306 0 l 1
 29 0 l 1
EndSplineSet
EndChar

StartChar: Iacute
Encoding: 205 205 130
Width: 335
GlyphClass: 2
Flags: MW
HStem: 0 37<29 29 29 306> 701 37<29 306 29 306> 803 174
VStem: 95 231<827 927> 112 111<661 661> 119 97<64.5 87>
LayerCount: 2
Fore
SplineSet
95 827 m 1xf0
 157 872 239 943 277 977 c 1
 303 973 326 949 326 927 c 2
 326 923 l 1
 283 895 170 830 108 803 c 1
 95 827 l 1xf0
29 0 m 1
 29 37 l 1
 79 40 119 45 119 83 c 0xe4
 119 91 118 462 112 661 c 0
 111 693 90 697 43 700 c 2
 29 701 l 1
 29 738 l 1
 306 738 l 1
 306 701 l 1
 292 700 l 2
 245 697 224 693 223 661 c 0xe8
 218 518 216 92 216 83 c 0xe4
 216 46 254 41 306 37 c 1
 306 0 l 1
 29 0 l 1
EndSplineSet
EndChar

StartChar: Icircumflex
Encoding: 206 206 131
Width: 335
GlyphClass: 2
Flags: MW
HStem: 0 37<29 29 29 306> 701 37<29 306 29 306> 795 139<155 274>
VStem: 53 240<811 812> 112 111<661 661> 119 97<64.5 87>
LayerCount: 2
Fore
SplineSet
53 811 m 1xf0
 99 859 120 886 155 934 c 1
 195 934 l 1
 234 877 254 854 293 812 c 1
 274 795 l 1
 171 863 l 1
 71 793 l 1
 53 811 l 1xf0
29 0 m 1
 29 37 l 1
 79 40 119 45 119 83 c 0xe4
 119 91 118 462 112 661 c 0
 111 693 90 697 43 700 c 2
 29 701 l 1
 29 738 l 1
 306 738 l 1
 306 701 l 1
 292 700 l 2
 245 697 224 693 223 661 c 0xe8
 218 518 216 92 216 83 c 0xe4
 216 46 254 41 306 37 c 1
 306 0 l 1
 29 0 l 1
EndSplineSet
EndChar

StartChar: Idieresis
Encoding: 207 207 132
Width: 335
GlyphClass: 2
Flags: MW
HStem: 0 37<29 29 29 306> 701 37<29 306 29 306> 812 133<65.5 83 59 86.5 252.5 270.5>
VStem: 21 113<867 876.5> 112 111<661 661> 119 97<64.5 87> 208 114<867 876.5>
LayerCount: 2
Fore
SplineSet
21 873 m 0xf0
 21 880 42 945 76 945 c 0
 90 945 134 920 134 884 c 0
 134 850 97 812 76 812 c 0
 55 812 21 860 21 873 c 0xf0
208 873 m 0xe2
 208 880 230 945 263 945 c 0
 278 945 322 920 322 884 c 0
 322 850 284 812 263 812 c 0
 242 812 208 860 208 873 c 0xe2
29 0 m 1
 29 37 l 1
 79 40 119 45 119 83 c 0xe4
 119 91 118 462 112 661 c 0
 111 693 90 697 43 700 c 2
 29 701 l 1
 29 738 l 1
 306 738 l 1
 306 701 l 1
 292 700 l 2
 245 697 224 693 223 661 c 0xe8
 218 518 216 92 216 83 c 0xe4
 216 46 254 41 306 37 c 1
 306 0 l 1
 29 0 l 1
EndSplineSet
EndChar

StartChar: Ntilde
Encoding: 209 209 133
Width: 777
GlyphClass: 2
Flags: MW
HStem: 0 39<19 255> 700 38<535 535> 869 60<339 350>
VStem: 109 55<450 482 482 516.5> 239 318<830 907> 629 61 633 50
LayerCount: 2
Fore
SplineSet
239 830 m 1xf8
 258 858 329 929 349 929 c 0
 379 929 408 894 475 876 c 1
 499 883 522 900 542 919 c 1
 557 907 l 1
 538 879 477 816 457 816 c 0
 423 816 369 869 331 869 c 1
 307 862 272 835 252 816 c 1
 239 830 l 1xf8
15 701 m 1
 15 738 l 1
 204 738 l 1
 212 714 389 477 633 159 c 1xfa
 632 173 629 378 629 467 c 0
 629 517 626 601 625 634 c 0
 624 677 621 692 535 700 c 1
 535 738 l 1
 777 738 l 1
 777 702 l 1
 743 699 709 694 696 675 c 0
 693 670 690 644 690 644 c 1xfc
 686 505 683 173 683 164 c 0xfa
 683 122 685 0 685 0 c 1
 626 0 l 1
 576 77 573 75 164 597 c 1
 164 290 l 1
 164 290 169 99 169 83 c 0
 169 50 211 43 255 39 c 1
 255 0 l 1
 19 0 l 1
 19 36 l 1
 62 40 98 48 102 80 c 0
 107 116 109 229 109 450 c 2
 109 482 l 2
 109 551 108 664 108 667 c 0
 106 679 100 692 65 696 c 2
 15 701 l 1
EndSplineSet
EndChar

StartChar: Ograve
Encoding: 210 210 134
Width: 745
GlyphClass: 2
Flags: MW
HStem: -14 66<381 388> 689 62<366.5 367.5> 803 174
VStem: 42 102<362 415> 227 231<827 927 827 938> 601 103<375.5 473.5>
LayerCount: 2
Fore
SplineSet
227 923 m 1
 227 927 l 2
 227 949 250 973 276 977 c 1
 314 943 396 872 458 827 c 1
 445 803 l 1
 383 830 270 895 227 923 c 1
42 358 m 0
 42 472 69 554 106 610 c 0
 181 722 338 751 395 751 c 0
 609 751 704 621 704 411 c 0
 704 340 696 214 633 122 c 0
 561 16 417 -14 359 -14 c 0
 136 -14 42 149 42 358 c 0
144 379 m 0
 144 345 144 147 285 75 c 0
 327 54 357 52 405 52 c 0
 522 52 601 128 601 351 c 0
 601 596 507 673 413 687 c 0
 404 689 376 689 359 689 c 0
 237 689 144 610 144 379 c 0
EndSplineSet
EndChar

StartChar: Oacute
Encoding: 211 211 135
Width: 745
GlyphClass: 2
Flags: MW
HStem: -14 66<381 388> 689 62<366.5 367.5> 803 174
VStem: 42 102<362 415> 315 231<827 927> 601 103<375.5 473.5>
LayerCount: 2
Fore
SplineSet
315 827 m 1
 377 872 459 943 497 977 c 1
 523 973 546 949 546 927 c 2
 546 923 l 1
 503 895 390 830 328 803 c 1
 315 827 l 1
42 358 m 0
 42 472 69 554 106 610 c 0
 181 722 338 751 395 751 c 0
 609 751 704 621 704 411 c 0
 704 340 696 214 633 122 c 0
 561 16 417 -14 359 -14 c 0
 136 -14 42 149 42 358 c 0
144 379 m 0
 144 345 144 147 285 75 c 0
 327 54 357 52 405 52 c 0
 522 52 601 128 601 351 c 0
 601 596 507 673 413 687 c 0
 404 689 376 689 359 689 c 0
 237 689 144 610 144 379 c 0
EndSplineSet
EndChar

StartChar: Ocircumflex
Encoding: 212 212 136
Width: 745
GlyphClass: 2
Flags: MW
HStem: -14 66<381 388> 689 62<366.5 367.5> 795 139<375 494>
VStem: 42 102<362 415> 273 240<811 812> 601 103<375.5 473.5>
LayerCount: 2
Fore
SplineSet
273 811 m 1
 319 859 340 886 375 934 c 1
 415 934 l 1
 454 877 474 854 513 812 c 1
 494 795 l 1
 391 863 l 1
 291 793 l 1
 273 811 l 1
42 358 m 0
 42 472 69 554 106 610 c 0
 181 722 338 751 395 751 c 0
 609 751 704 621 704 411 c 0
 704 340 696 214 633 122 c 0
 561 16 417 -14 359 -14 c 0
 136 -14 42 149 42 358 c 0
144 379 m 0
 144 345 144 147 285 75 c 0
 327 54 357 52 405 52 c 0
 522 52 601 128 601 351 c 0
 601 596 507 673 413 687 c 0
 404 689 376 689 359 689 c 0
 237 689 144 610 144 379 c 0
EndSplineSet
EndChar

StartChar: Otilde
Encoding: 213 213 137
Width: 745
GlyphClass: 2
Flags: MW
HStem: -14 66<381 388> 689 62<366.5 367.5> 869 60<328 339>
VStem: 42 102<362 415> 228 318<830 907> 601 103<375.5 473.5>
LayerCount: 2
Fore
SplineSet
228 830 m 1
 247 858 318 929 338 929 c 0
 368 929 397 894 464 876 c 1
 488 883 511 900 531 919 c 1
 546 907 l 1
 527 879 466 816 446 816 c 0
 412 816 358 869 320 869 c 1
 296 862 261 835 241 816 c 1
 228 830 l 1
42 358 m 0
 42 472 69 554 106 610 c 0
 181 722 338 751 395 751 c 0
 609 751 704 621 704 411 c 0
 704 340 696 214 633 122 c 0
 561 16 417 -14 359 -14 c 0
 136 -14 42 149 42 358 c 0
144 379 m 0
 144 345 144 147 285 75 c 0
 327 54 357 52 405 52 c 0
 522 52 601 128 601 351 c 0
 601 596 507 673 413 687 c 0
 404 689 376 689 359 689 c 0
 237 689 144 610 144 379 c 0
EndSplineSet
EndChar

StartChar: Odieresis
Encoding: 214 214 138
Width: 745
GlyphClass: 2
Flags: MW
HStem: -14 66<381 388> 689 62<366.5 367.5> 812 133<285.5 303 279 306.5 472.5 490.5>
VStem: 42 102<362 415> 241 113<867 876.5> 428 114<867 876.5> 601 103<375.5 473.5>
LayerCount: 2
Fore
SplineSet
241 873 m 0
 241 880 262 945 296 945 c 0
 310 945 354 920 354 884 c 0
 354 850 317 812 296 812 c 0
 275 812 241 860 241 873 c 0
428 873 m 0
 428 880 450 945 483 945 c 0
 498 945 542 920 542 884 c 0
 542 850 504 812 483 812 c 0
 462 812 428 860 428 873 c 0
42 358 m 0
 42 472 69 554 106 610 c 0
 181 722 338 751 395 751 c 0
 609 751 704 621 704 411 c 0
 704 340 696 214 633 122 c 0
 561 16 417 -14 359 -14 c 0
 136 -14 42 149 42 358 c 0
144 379 m 0
 144 345 144 147 285 75 c 0
 327 54 357 52 405 52 c 0
 522 52 601 128 601 351 c 0
 601 596 507 673 413 687 c 0
 404 689 376 689 359 689 c 0
 237 689 144 610 144 379 c 0
EndSplineSet
EndChar

StartChar: Oslash
Encoding: 216 216 139
Width: 745
GlyphClass: 2
Flags: MW
HStem: -14 66<381 388> 689 62<366.5 367.5>
VStem: 42 102<364 415> 601 103<375.5 414>
LayerCount: 2
Fore
SplineSet
42 358 m 0
 42 472 69 554 106 610 c 0
 181 722 338 751 395 751 c 0
 454 751 503 741 545 722 c 1
 579 791 l 1
 620 772 l 1
 584 700 l 1
 666 644 704 543 704 411 c 0
 704 340 696 214 633 122 c 0
 561 16 417 -14 359 -14 c 0
 314 -14 274 -7 239 5 c 1
 205 -63 l 1
 166 -45 l 1
 199 23 l 1
 90 82 42 208 42 358 c 0
144 379 m 0
 144 349 144 192 240 106 c 1
 507 645 l 1
 478 669 445 682 413 687 c 0
 404 689 376 689 359 689 c 0
 237 689 144 610 144 379 c 0
601 351 m 0
 601 477 576 558 539 609 c 1
 276 79 l 1
 285 75 l 1
 327 54 357 52 405 52 c 0
 522 52 601 128 601 351 c 0
EndSplineSet
EndChar

StartChar: Ugrave
Encoding: 217 217 140
Width: 757
GlyphClass: 2
Flags: MW
HStem: -14 60<350 439> 701 37<34 310 34 310> 803 174
VStem: 118 103<182 390> 255 231<827 927 827 938> 618 53<243.5 258 126 400.5>
LayerCount: 2
Fore
SplineSet
255 923 m 1
 255 927 l 2
 255 949 278 973 304 977 c 1
 342 943 424 872 486 827 c 1
 473 803 l 1
 411 830 298 895 255 923 c 1
34 701 m 1
 34 738 l 1
 310 738 l 1
 310 701 l 1
 257 697 220 692 220 655 c 0
 220 606 221 493 221 390 c 2
 221 310 l 1
 222 255 222 212 222 197 c 0
 222 142 266 46 434 46 c 0
 597 46 618 131 618 356 c 0
 618 445 616 535 616 655 c 0
 616 688 569 695 526 699 c 1
 526 738 l 1
 762 738 l 1
 762 702 l 1
 718 697 684 685 682 658 c 2
 681 640 l 2
 678 599 671 278 671 238 c 0
 671 14 516 -14 362 -14 c 0
 154 -14 118 150 118 214 c 2
 118 214 116 639 115 650 c 0
 110 694 92 697 34 701 c 1
EndSplineSet
EndChar

StartChar: Uacute
Encoding: 218 218 141
Width: 757
GlyphClass: 2
Flags: MW
HStem: -14 60<350 439> 701 37<34 310 34 310> 803 174
VStem: 118 103<182 390> 343 231<827 927> 618 53<243.5 258 126 400.5>
LayerCount: 2
Fore
SplineSet
343 827 m 1
 405 872 487 943 525 977 c 1
 551 973 574 949 574 927 c 2
 574 923 l 1
 531 895 418 830 356 803 c 1
 343 827 l 1
34 701 m 1
 34 738 l 1
 310 738 l 1
 310 701 l 1
 257 697 220 692 220 655 c 0
 220 606 221 493 221 390 c 2
 221 310 l 1
 222 255 222 212 222 197 c 0
 222 142 266 46 434 46 c 0
 597 46 618 131 618 356 c 0
 618 445 616 535 616 655 c 0
 616 688 569 695 526 699 c 1
 526 738 l 1
 762 738 l 1
 762 702 l 1
 718 697 684 685 682 658 c 2
 681 640 l 2
 678 599 671 278 671 238 c 0
 671 14 516 -14 362 -14 c 0
 154 -14 118 150 118 214 c 2
 118 214 116 639 115 650 c 0
 110 694 92 697 34 701 c 1
EndSplineSet
EndChar

StartChar: Ucircumflex
Encoding: 219 219 142
Width: 757
GlyphClass: 2
Flags: MW
HStem: -14 60<350 439> 701 37<34 310 34 310> 795 139<403 522>
VStem: 118 103<182 390> 301 240<811 812> 618 53<243.5 258 126 400.5>
LayerCount: 2
Fore
SplineSet
301 811 m 1
 347 859 368 886 403 934 c 1
 443 934 l 1
 482 877 502 854 541 812 c 1
 522 795 l 1
 419 863 l 1
 319 793 l 1
 301 811 l 1
34 701 m 1
 34 738 l 1
 310 738 l 1
 310 701 l 1
 257 697 220 692 220 655 c 0
 220 606 221 493 221 390 c 2
 221 310 l 1
 222 255 222 212 222 197 c 0
 222 142 266 46 434 46 c 0
 597 46 618 131 618 356 c 0
 618 445 616 535 616 655 c 0
 616 688 569 695 526 699 c 1
 526 738 l 1
 762 738 l 1
 762 702 l 1
 718 697 684 685 682 658 c 2
 681 640 l 2
 678 599 671 278 671 238 c 0
 671 14 516 -14 362 -14 c 0
 154 -14 118 150 118 214 c 2
 118 214 116 639 115 650 c 0
 110 694 92 697 34 701 c 1
EndSplineSet
EndChar

StartChar: Udieresis
Encoding: 220 220 143
Width: 757
GlyphClass: 2
Flags: MW
HStem: -14 60<350 439> 701 37<34 310 34 310> 812 133<313.5 331 307 334.5 500.5 518.5>
VStem: 118 103<182 390> 269 113<867 876.5> 456 114<867 876.5> 618 53<243.5 258 126 400.5>
LayerCount: 2
Fore
SplineSet
269 873 m 0
 269 880 290 945 324 945 c 0
 338 945 382 920 382 884 c 0
 382 850 345 812 324 812 c 0
 303 812 269 860 269 873 c 0
456 873 m 0
 456 880 478 945 511 945 c 0
 526 945 570 920 570 884 c 0
 570 850 532 812 511 812 c 0
 490 812 456 860 456 873 c 0
34 701 m 1
 34 738 l 1
 310 738 l 1
 310 701 l 1
 257 697 220 692 220 655 c 0
 220 606 221 493 221 390 c 2
 221 310 l 1
 222 255 222 212 222 197 c 0
 222 142 266 46 434 46 c 0
 597 46 618 131 618 356 c 0
 618 445 616 535 616 655 c 0
 616 688 569 695 526 699 c 1
 526 738 l 1
 762 738 l 1
 762 702 l 1
 718 697 684 685 682 658 c 2
 681 640 l 2
 678 599 671 278 671 238 c 0
 671 14 516 -14 362 -14 c 0
 154 -14 118 150 118 214 c 2
 118 214 116 639 115 650 c 0
 110 694 92 697 34 701 c 1
EndSplineSet
EndChar

StartChar: Yacute
Encoding: 221 221 144
Width: 649
GlyphClass: 2
Flags: MW
HStem: 0 35<162 472 162 162> 701 37<0 276 0 276> 803 174
VStem: 267 100<133 165.5> 286 231<827 927>
LayerCount: 2
Fore
SplineSet
286 827 m 1xe8
 348 872 430 943 468 977 c 1
 494 973 517 949 517 927 c 2
 517 923 l 1
 474 895 361 830 299 803 c 1
 286 827 l 1xe8
0 701 m 1
 0 738 l 1
 276 738 l 1
 276 701 l 1
 210 696 193 688 193 668 c 0
 193 646 293 488 344 408 c 1
 381 461 511 652 511 673 c 0
 511 693 486 696 441 699 c 1
 441 738 l 1
 649 738 l 1
 649 702 l 1
 615 698 602 687 594 677 c 2
 370 367 l 1
 368 323 367 258 367 149 c 0
 367 117 368 74 372 67 c 0
 385 43 432 38 472 35 c 1
 472 0 l 1
 162 0 l 1
 162 35 l 1
 212 39 267 45 267 83 c 0xf0
 267 248 263 358 263 358 c 1
 246 389 145 537 64 654 c 1
 64 654 36 698 0 701 c 1
EndSplineSet
EndChar

StartChar: germandbls
Encoding: 223 223 145
Width: 598
GlyphClass: 2
Flags: MW
HStem: -17 64<369.5 404.5> 0 34<26 269 26 26> 764 34<277 354.962>
VStem: 106 89<84 119.5> 304 86<406.5 482.5> 407.003 76.998 503 65
LayerCount: 2
Fore
SplineSet
195 131 m 0xbe
 195 37 196 43 269 34 c 1
 269 0 l 1
 26 0 l 1
 26 34 l 1x7e
 99 45 106 43 106 102 c 0
 106 137 103 310 100 448 c 2
 99 497 l 1
 99 643 168 798 324 798 c 0
 429.287109375 798 484.000976562 735 484.000976562 662.517578125 c 0
 484.000976562 583.887695312 390 545 390 469 c 0
 390 344 568 330 568 157 c 0
 568 140 568 105 553 80 c 0
 533 48 524 33 492 8 c 0
 469 -9 412 -17 397 -17 c 0
 342 -17 278 22 278 53 c 0
 278 162 281 171 305 171 c 0
 345 171 309 47 412 47 c 0
 466 47 503 71 503 122 c 0
 503 213 304 313 304 410 c 0
 304 555 407.002929688 551.333007812 407.002929688 645 c 0
 407.002929688 715 380.923828125 764 329 764 c 0
 225 764 199 593 199 519 c 0
 199 402 195 208 195 131 c 0xbe
EndSplineSet
EndChar

StartChar: agrave
Encoding: 224 224 146
Width: 478
GlyphClass: 2
Flags: MW
HStem: -10 67<178 184.5> 462 64<178.5 237.5> 559 201<134 285>
VStem: 40 90<104.5 178 104.5 205.5> 66 41<338 342> 91 210 323 88<106.5 205>
LayerCount: 2
Fore
SplineSet
91 715 m 1xe6
 92 739 120 760 148 760 c 1
 180 720 248 636 301 580 c 1
 285 559 l 1
 228 596 128 680 91 715 c 1xe6
411 128 m 0
 411 85 456 44 456 26 c 0
 456 22 454 20 447 18 c 2
 447 18 377 -5 370 -5 c 0
 348 -5 334 55 328 67 c 1
 242 11 231 -10 138 -10 c 0
 62 -10 40 58 40 121 c 0xf2
 40 290 170 282 322 316 c 1
 322 340 323 364 323 376 c 0
 323 444 261 462 214 462 c 0
 143 462 133 432 107 338 c 1
 66 342 l 1xea
 70 376 50 526 259 526 c 0
 413 526 415 441 415 392 c 0
 415 260 411 179 411 128 c 0
130 131 m 0
 130 78 159 57 197 57 c 0
 234 57 280 77 316 107 c 0
 323 113 323 153 323 192 c 0
 323 218 323 247 322 277 c 1
 154 221 130 225 130 131 c 0
EndSplineSet
EndChar

StartChar: aacute
Encoding: 225 225 147
Width: 478
GlyphClass: 2
Flags: MW
HStem: -10 67<178 184.5> 462 64<178.5 237.5> 558 201<206 356>
VStem: 40 90<104.5 178 104.5 205.5> 66 41<338 342> 189 211 323 88<106.5 205>
LayerCount: 2
Fore
SplineSet
189 579 m 1xe4
 242 635 310 719 342 759 c 1
 370 759 398 738 400 714 c 1
 362 679 262 595 206 558 c 1
 189 579 l 1xe4
411 128 m 0xea
 411 85 456 44 456 26 c 0
 456 22 454 20 447 18 c 2
 447 18 377 -5 370 -5 c 0
 348 -5 334 55 328 67 c 1
 242 11 231 -10 138 -10 c 0
 62 -10 40 58 40 121 c 0xf2
 40 290 170 282 322 316 c 1
 322 340 323 364 323 376 c 0
 323 444 261 462 214 462 c 0
 143 462 133 432 107 338 c 1
 66 342 l 1
 70 376 50 526 259 526 c 0
 413 526 415 441 415 392 c 0
 415 260 411 179 411 128 c 0xea
130 131 m 0
 130 78 159 57 197 57 c 0
 234 57 280 77 316 107 c 0
 323 113 323 153 323 192 c 0
 323 218 323 247 322 277 c 1
 154 221 130 225 130 131 c 0
EndSplineSet
EndChar

StartChar: acircumflex
Encoding: 226 226 148
Width: 478
GlyphClass: 2
Flags: MW
HStem: -10 67<178 184.5> 462 64<178.5 237.5> 570 182<239 360>
VStem: 40 90<104.5 178 104.5 205.5> 66 41<338 342> 128 248<581 583> 323 88<106.5 205>
LayerCount: 2
Fore
SplineSet
128 581 m 1xe4
 174 648 229 735 239 752 c 1
 279 752 l 1
 288 735 344 631 376 583 c 1
 360 570 l 1
 247 676 l 1
 148 568 l 1
 128 581 l 1xe4
411 128 m 0xea
 411 85 456 44 456 26 c 0
 456 22 454 20 447 18 c 2
 447 18 377 -5 370 -5 c 0
 348 -5 334 55 328 67 c 1
 242 11 231 -10 138 -10 c 0
 62 -10 40 58 40 121 c 0xf2
 40 290 170 282 322 316 c 1
 322 340 323 364 323 376 c 0
 323 444 261 462 214 462 c 0
 143 462 133 432 107 338 c 1
 66 342 l 1
 70 376 50 526 259 526 c 0
 413 526 415 441 415 392 c 0
 415 260 411 179 411 128 c 0xea
130 131 m 0
 130 78 159 57 197 57 c 0
 234 57 280 77 316 107 c 0
 323 113 323 153 323 192 c 0
 323 218 323 247 322 277 c 1
 154 221 130 225 130 131 c 0
EndSplineSet
EndChar

StartChar: atilde
Encoding: 227 227 149
Width: 478
GlyphClass: 2
Flags: MW
HStem: -10 67<178 184.5> 462 64<178.5 237.5> 641 60<187 198>
VStem: 40 90<104.5 178 104.5 205.5> 66 41<338 342> 87 318<602 679> 323 88<106.5 205>
LayerCount: 2
Fore
SplineSet
87 602 m 1xe4
 106 630 177 701 197 701 c 0
 227 701 256 666 323 648 c 1xe2
 347 655 370 672 390 691 c 1
 405 679 l 1
 386 651 325 588 305 588 c 0
 271 588 217 641 179 641 c 1
 155 634 120 607 100 588 c 1
 87 602 l 1xe4
411 128 m 0
 411 85 456 44 456 26 c 0
 456 22 454 20 447 18 c 2
 447 18 377 -5 370 -5 c 0
 348 -5 334 55 328 67 c 1
 242 11 231 -10 138 -10 c 0
 62 -10 40 58 40 121 c 0xf2
 40 290 170 282 322 316 c 1
 322 340 323 364 323 376 c 0
 323 444 261 462 214 462 c 0
 143 462 133 432 107 338 c 1
 66 342 l 1xea
 70 376 50 526 259 526 c 0
 413 526 415 441 415 392 c 0
 415 260 411 179 411 128 c 0
130 131 m 0
 130 78 159 57 197 57 c 0
 234 57 280 77 316 107 c 0
 323 113 323 153 323 192 c 0
 323 218 323 247 322 277 c 1
 154 221 130 225 130 131 c 0
EndSplineSet
EndChar

StartChar: adieresis
Encoding: 228 228 150
Width: 478
GlyphClass: 2
Flags: MW
HStem: -10 67<178 184.5> 462 64<178.5 237.5> 584 133<144.5 162 138 165.5 331.5 349.5>
VStem: 40 90<104.5 178 104.5 205.5> 66 41<338 342> 100 113<639 648.5> 287 114<639 648.5> 323 88<106.5 205>
LayerCount: 2
Fore
SplineSet
100 645 m 0xe4
 100 652 121 717 155 717 c 0
 169 717 213 692 213 656 c 0
 213 622 176 584 155 584 c 0
 134 584 100 632 100 645 c 0xe4
287 645 m 0xe2
 287 652 309 717 342 717 c 0
 357 717 401 692 401 656 c 0
 401 622 363 584 342 584 c 0
 321 584 287 632 287 645 c 0xe2
411 128 m 0xe9
 411 85 456 44 456 26 c 0
 456 22 454 20 447 18 c 2
 447 18 377 -5 370 -5 c 0
 348 -5 334 55 328 67 c 1
 242 11 231 -10 138 -10 c 0
 62 -10 40 58 40 121 c 0xf1
 40 290 170 282 322 316 c 1
 322 340 323 364 323 376 c 0
 323 444 261 462 214 462 c 0
 143 462 133 432 107 338 c 1
 66 342 l 1
 70 376 50 526 259 526 c 0
 413 526 415 441 415 392 c 0
 415 260 411 179 411 128 c 0xe9
130 131 m 0
 130 78 159 57 197 57 c 0
 234 57 280 77 316 107 c 0
 323 113 323 153 323 192 c 0
 323 218 323 247 322 277 c 1
 154 221 130 225 130 131 c 0
EndSplineSet
EndChar

StartChar: aring
Encoding: 229 229 151
Width: 478
GlyphClass: 2
Flags: MW
HStem: -10 67<178 184.5> 462 64<178.5 237.5> 564 33<238 244.5> 711 33<240.5 243.5>
VStem: 40 90<104.5 178 104.5 205.5> 66 41<338 342> 161 42<633.5 667.5> 289 40<652.5 673.5> 323 88<106.5 205>
LayerCount: 2
Fore
SplineSet
161 656 m 0xf3
 161 679 170 698 176 707 c 0
 190 726 230 744 251 744 c 0
 289 744 329 723 329 667 c 0
 329 638 325 621 313 604 c 0
 311 602 290 578 271 570 c 0
 261 566 251 564 238 564 c 0
 207 564 161 577 161 656 c 0xf3
203 658 m 0
 203 609 223 597 253 597 c 0
 258 597 264 597 267 598 c 0
 277 602 289 614 289 657 c 0
 289 690 280 702 257 709 c 0
 252 710 247 711 240 711 c 0
 221 711 203 711 203 658 c 0
411 128 m 0xf680
 411 85 456 44 456 26 c 0
 456 22 454 20 447 18 c 2
 447 18 377 -5 370 -5 c 0
 348 -5 334 55 328 67 c 1
 242 11 231 -10 138 -10 c 0
 62 -10 40 58 40 121 c 0xfa80
 40 290 170 282 322 316 c 1
 322 340 323 364 323 376 c 0
 323 444 261 462 214 462 c 0
 143 462 133 432 107 338 c 1
 66 342 l 1
 70 376 50 526 259 526 c 0
 413 526 415 441 415 392 c 0
 415 260 411 179 411 128 c 0xf680
130 131 m 0
 130 78 159 57 197 57 c 0
 234 57 280 77 316 107 c 0
 323 113 323 153 323 192 c 0
 323 218 323 247 322 277 c 1
 154 221 130 225 130 131 c 0
EndSplineSet
EndChar

StartChar: ae
Encoding: 230 230 152
Width: 760
GlyphClass: 2
Flags: MW
HStem: -10 67<178 184.5> 261 45<421 478 478 519 421 624 419 478> 462 64<178.5 237.5>
VStem: 40 90<104.5 178 104.5 205.5> 66 41<338 342> 323 96<172.5 261> 636 93
AnchorPoint: "Anchor-0" 397 509 basechar 0
LayerCount: 2
Fore
SplineSet
40 121 m 0xf6
 40 290 170 282 322 316 c 1
 322 340 323 364 323 376 c 0
 323 444 261 462 214 462 c 0
 143 462 133 432 107 338 c 1
 66 342 l 1xee
 70 376 50 526 259 526 c 0
 347 526 386 498 402 464 c 1
 441 496 491 523 536 523 c 0
 740 523 728 350 729 281 c 1
 703 265 666 261 624 261 c 2
 419 261 l 1
 419 162 421 62 549 62 c 0
 610 62 659 85 708 133 c 1
 730 110 l 1
 672 51 616 -15 529 -15 c 0
 438 -15 385 27 355 85 c 1
 328 67 l 1
 242 11 231 -10 138 -10 c 0
 62 -10 40 58 40 121 c 0xf6
130 131 m 0xf6
 130 78 159 57 197 57 c 0
 234 57 280 77 316 107 c 0
 323 113 323 153 323 192 c 0
 323 218 323 247 322 277 c 1
 154 221 130 225 130 131 c 0xf6
421 306 m 1
 478 306 l 2
 560 306 612 307 636 324 c 1
 636 370 622 458 532 458 c 0
 436 458 421 411 421 306 c 1
EndSplineSet
EndChar

StartChar: ccedilla
Encoding: 231 231 153
Width: 441
GlyphClass: 2
Flags: MW
HStem: -206 38<155 155> -15 74<229.5 238 217 277.5 238 251> 456 69<235 247.5>
VStem: 30 88<247 258> 250 51<-139 -120> 363 29<354 354>
AnchorPoint: "Anchor-0" 243 509 basechar 0
LayerCount: 2
Fore
SplineSet
30 240 m 0
 30 276 36 395 54 413 c 0
 168 525 211 525 259 525 c 0
 319 525 385 508 396 504 c 1
 393 484 392 364 392 354 c 1
 363 354 l 1
 347 418 l 2
 340 443 276 456 219 456 c 0
 139 456 118 415 118 272 c 0
 118 222 123 184 130 154 c 1
 141 125 155 105 170 88 c 1
 191 71 215 59 244 59 c 0
 311 59 392 134 392 134 c 1
 413 114 l 1
 302 -7 l 1
 289 -9 l 2
 276 -12 262 -14 251 -15 c 1
 238 -15 l 1
 217 -15 l 1
 211 -43 l 1
 255 -52 301 -73 301 -119 c 0
 301 -169 273 -184 242 -199 c 1
 220 -203 178 -205 155 -206 c 1
 152 -168 l 1
 220 -168 250 -149 250 -129 c 0
 250 -111 224 -93 177 -91 c 1
 165 -80 l 1
 190 -11 l 1
 161 -6 135 4 114 16 c 1
 81 46 63 74 44 120 c 1
 36 154 30 195 30 240 c 0
EndSplineSet
EndChar

StartChar: egrave
Encoding: 232 232 154
Width: 467
GlyphClass: 2
Flags: MW
HStem: -15 77<191.5 279.5> 261 45<128 185 185 226 128 331 126 185> 458 65<204.5 284> 559 201<136 287>
VStem: 30 96<211.5 261 211.5 281.5> 93 210 343 93
LayerCount: 2
Fore
SplineSet
93 715 m 1xf6
 94 739 122 760 150 760 c 1
 182 720 250 636 303 580 c 1
 287 559 l 1
 230 596 130 680 93 715 c 1xf6
30 246 m 0xfa
 30 317 44 380 52 399 c 0
 71 442 166 523 243 523 c 0
 447 523 435 350 436 281 c 1
 410 265 373 261 331 261 c 2
 126 261 l 1
 126 162 127 62 256 62 c 0
 317 62 366 85 415 133 c 1
 437 110 l 1
 379 51 323 -15 236 -15 c 0
 68 -15 30 127 30 246 c 0xfa
128 306 m 1
 185 306 l 2
 267 306 319 307 343 324 c 1
 343 370 329 458 239 458 c 0
 143 458 128 411 128 306 c 1
EndSplineSet
EndChar

StartChar: eacute
Encoding: 233 233 155
Width: 467
GlyphClass: 2
Flags: MW
HStem: -15 77<191.5 279.5> 261 45<128 185 185 226 128 331 126 185> 458 65<204.5 284> 558 201<208 358>
VStem: 30 96<211.5 261 211.5 281.5> 191 211 343 93
LayerCount: 2
Fore
SplineSet
191 579 m 1xfc
 244 635 312 719 344 759 c 1
 372 759 400 738 402 714 c 1
 364 679 264 595 208 558 c 1
 191 579 l 1xfc
30 246 m 0
 30 317 44 380 52 399 c 0
 71 442 166 523 243 523 c 0
 447 523 435 350 436 281 c 1xfa
 410 265 373 261 331 261 c 2
 126 261 l 1
 126 162 127 62 256 62 c 0
 317 62 366 85 415 133 c 1
 437 110 l 1
 379 51 323 -15 236 -15 c 0
 68 -15 30 127 30 246 c 0
128 306 m 1
 185 306 l 2
 267 306 319 307 343 324 c 1
 343 370 329 458 239 458 c 0
 143 458 128 411 128 306 c 1
EndSplineSet
EndChar

StartChar: ecircumflex
Encoding: 234 234 156
Width: 467
GlyphClass: 2
Flags: MW
HStem: -15 77<191.5 279.5> 261 45<128 185 185 226 128 331 126 185> 458 65<204.5 284> 570 182<241 362>
VStem: 30 96<211.5 261 211.5 281.5> 130 248<581 583> 343 93
LayerCount: 2
Fore
SplineSet
130 581 m 1xfc
 176 648 231 735 241 752 c 1
 281 752 l 1
 290 735 346 631 378 583 c 1
 362 570 l 1
 249 676 l 1
 150 568 l 1
 130 581 l 1xfc
30 246 m 0
 30 317 44 380 52 399 c 0
 71 442 166 523 243 523 c 0
 447 523 435 350 436 281 c 1xfa
 410 265 373 261 331 261 c 2
 126 261 l 1
 126 162 127 62 256 62 c 0
 317 62 366 85 415 133 c 1
 437 110 l 1
 379 51 323 -15 236 -15 c 0
 68 -15 30 127 30 246 c 0
128 306 m 1
 185 306 l 2
 267 306 319 307 343 324 c 1
 343 370 329 458 239 458 c 0
 143 458 128 411 128 306 c 1
EndSplineSet
EndChar

StartChar: edieresis
Encoding: 235 235 157
Width: 467
GlyphClass: 2
Flags: MW
HStem: -15 77<191.5 279.5> 261 45<128 185 185 226 128 331 126 185> 458 65<204.5 284> 584 133<146.5 164 140 167.5 333.5 351.5>
VStem: 30 96<211.5 261 211.5 281.5> 102 113<639 648.5> 289 114<639 648.5> 343 93
LayerCount: 2
Fore
SplineSet
102 645 m 0xf4
 102 652 123 717 157 717 c 0
 171 717 215 692 215 656 c 0
 215 622 178 584 157 584 c 0
 136 584 102 632 102 645 c 0xf4
289 645 m 0xf2
 289 652 311 717 344 717 c 0
 359 717 403 692 403 656 c 0
 403 622 365 584 344 584 c 0
 323 584 289 632 289 645 c 0xf2
30 246 m 0xf9
 30 317 44 380 52 399 c 0
 71 442 166 523 243 523 c 0
 447 523 435 350 436 281 c 1
 410 265 373 261 331 261 c 2
 126 261 l 1
 126 162 127 62 256 62 c 0
 317 62 366 85 415 133 c 1
 437 110 l 1
 379 51 323 -15 236 -15 c 0
 68 -15 30 127 30 246 c 0xf9
128 306 m 1
 185 306 l 2
 267 306 319 307 343 324 c 1
 343 370 329 458 239 458 c 0
 143 458 128 411 128 306 c 1
EndSplineSet
EndChar

StartChar: igrave
Encoding: 236 236 158
Width: 282
GlyphClass: 2
Flags: MW
HStem: 0 34<30 30 30 262> 469 33<33 50 33 35> 506 20<177.5 187> 559 201<25 176>
VStem: -18 210 107 88<87 211 61 295 61 378.5>
LayerCount: 2
Fore
SplineSet
-18 715 m 1xf8
 -17 739 11 760 39 760 c 1
 71 720 139 636 192 580 c 1
 176 559 l 1
 119 596 19 680 -18 715 c 1xf8
30 0 m 1
 30 34 l 1
 100 39 107 48 107 87 c 2
 107 295 l 2
 107 462 101 469 50 469 c 2
 35 469 l 1
 33 502 l 1
 131 511 172 526 183 526 c 0
 191 526 200 522 200 510 c 0
 200 467 195 347 195 75 c 0xf4
 195 47 218 37 262 34 c 1
 262 0 l 1
 30 0 l 1
EndSplineSet
EndChar

StartChar: iacute
Encoding: 237 237 159
Width: 282
GlyphClass: 2
Flags: MW
HStem: 0 34<30 30 30 262> 469 33<33 50 33 35> 506 20<177.5 187> 558 201<97 247>
VStem: 80 211 107 88<87 211 61 295 61 378.5>
LayerCount: 2
Fore
SplineSet
80 579 m 1xf8
 133 635 201 719 233 759 c 1
 261 759 289 738 291 714 c 1
 253 679 153 595 97 558 c 1
 80 579 l 1xf8
30 0 m 1
 30 34 l 1
 100 39 107 48 107 87 c 2
 107 295 l 2
 107 462 101 469 50 469 c 2
 35 469 l 1
 33 502 l 1
 131 511 172 526 183 526 c 0
 191 526 200 522 200 510 c 0
 200 467 195 347 195 75 c 0xf4
 195 47 218 37 262 34 c 1
 262 0 l 1
 30 0 l 1
EndSplineSet
EndChar

StartChar: icircumflex
Encoding: 238 238 160
Width: 282
GlyphClass: 2
Flags: MW
HStem: 0 34<30 30 30 262> 469 33<33 50 33 35> 506 20<177.5 187> 570 182<130 251>
VStem: 19 248<581 583> 107 88<87 211 61 295 61 378.5>
LayerCount: 2
Fore
SplineSet
19 581 m 1xf8
 65 648 120 735 130 752 c 1
 170 752 l 1
 179 735 235 631 267 583 c 1
 251 570 l 1
 138 676 l 1
 39 568 l 1
 19 581 l 1xf8
30 0 m 1
 30 34 l 1
 100 39 107 48 107 87 c 2
 107 295 l 2
 107 462 101 469 50 469 c 2
 35 469 l 1
 33 502 l 1
 131 511 172 526 183 526 c 0
 191 526 200 522 200 510 c 0
 200 467 195 347 195 75 c 0xf4
 195 47 218 37 262 34 c 1
 262 0 l 1
 30 0 l 1
EndSplineSet
EndChar

StartChar: idieresis
Encoding: 239 239 161
Width: 282
GlyphClass: 2
Flags: MW
HStem: 0 34<30 30 30 262> 469 33<33 50 33 35> 506 20<177.5 187> 584 133<35.5 53 29 56.5 222.5 240.5>
VStem: -9 113<639 648.5> 107 88<87 211 61 295 61 378.5> 178 114<639 648.5>
LayerCount: 2
Fore
SplineSet
-9 645 m 0xf8
 -9 652 12 717 46 717 c 0
 60 717 104 692 104 656 c 0
 104 622 67 584 46 584 c 0
 25 584 -9 632 -9 645 c 0xf8
178 645 m 0xfa
 178 652 200 717 233 717 c 0
 248 717 292 692 292 656 c 0
 292 622 254 584 233 584 c 0
 212 584 178 632 178 645 c 0xfa
30 0 m 1
 30 34 l 1
 100 39 107 48 107 87 c 2
 107 295 l 2
 107 462 101 469 50 469 c 2
 35 469 l 1
 33 502 l 1
 131 511 172 526 183 526 c 0
 191 526 200 522 200 510 c 0
 200 467 195 347 195 75 c 0xfc
 195 47 218 37 262 34 c 1
 262 0 l 1
 30 0 l 1
EndSplineSet
EndChar

StartChar: ntilde
Encoding: 241 241 162
Width: 563
GlyphClass: 2
Flags: MW
HStem: 0 34<36 246 36 36> 452 73<293 422> 507 20<153.5 176> 641 60<252 263>
VStem: 91 103 98 89<98 151.5 81 152.5> 152 318<602 679> 393 94<78 395 395 408>
LayerCount: 2
Fore
SplineSet
152 602 m 1x92
 171 630 242 701 262 701 c 0
 292 701 321 666 388 648 c 1
 412 655 435 672 455 691 c 1
 470 679 l 1
 451 651 390 588 370 588 c 0
 336 588 282 641 244 641 c 1
 220 634 185 607 165 588 c 1
 152 602 l 1x92
32 493 m 1
 105 501 140 527 167 527 c 0xb8
 185 527 191 515 191 474 c 2
 191 460 l 1
 274 507 335 525 379 525 c 0
 465 525 487 457 487 408 c 2
 487 74 l 2
 487 47 492 37 540 34 c 1
 540 0 l 1
 336 0 l 1
 336 34 l 1
 390 38 393 50 393 78 c 2
 393 395 l 2
 393 448 343 452 305 452 c 0
 281 452 222 434 194 415 c 1xd9
 191 269 187 179 187 124 c 0
 187 38 198 37 246 34 c 1
 246 0 l 1
 36 0 l 1
 36 34 l 1
 95 43 98 46 98 150 c 0xd4
 98 155 93 415 91 422 c 0xd8
 83 454 67 452 35 455 c 1
 32 493 l 1
EndSplineSet
EndChar

StartChar: ograve
Encoding: 242 242 163
Width: 517
GlyphClass: 2
Flags: MW
HStem: -17 71<238.5 258.5> 455 71<248 256> 559 201<156 307>
VStem: 30 95<183 295> 113 210 400 91<250.5 324>
LayerCount: 2
Fore
SplineSet
113 715 m 1xec
 114 739 142 760 170 760 c 1
 202 720 270 636 323 580 c 1
 307 559 l 1
 250 596 150 680 113 715 c 1xec
30 260 m 0xf4
 30 330 55 389 71 415 c 0
 108 473 220 526 276 526 c 0
 381 526 491 464 491 294 c 0
 491 207 480 154 447 104 c 0
 441 96 386 24 332 0 c 0
 305 -12 276 -17 241 -17 c 0
 156 -17 30 21 30 260 c 0xf4
125 268 m 0
 125 98 190 54 287 54 c 0
 303 54 320 55 331 59 c 0
 362 71 400 115 400 267 c 0
 400 381 373 425 300 448 c 0
 284 452 266 455 246 455 c 0
 185 455 125 455 125 268 c 0
EndSplineSet
EndChar

StartChar: oacute
Encoding: 243 243 164
Width: 517
GlyphClass: 2
Flags: MW
HStem: -17 71<238.5 258.5> 455 71<248 256> 558 201<228 378>
VStem: 30 95<183 295> 211 211 400 91<250.5 324>
LayerCount: 2
Fore
SplineSet
211 579 m 1xf8
 264 635 332 719 364 759 c 1
 392 759 420 738 422 714 c 1
 384 679 284 595 228 558 c 1
 211 579 l 1xf8
30 260 m 0
 30 330 55 389 71 415 c 0
 108 473 220 526 276 526 c 0
 381 526 491 464 491 294 c 0xf4
 491 207 480 154 447 104 c 0
 441 96 386 24 332 0 c 0
 305 -12 276 -17 241 -17 c 0
 156 -17 30 21 30 260 c 0
125 268 m 0
 125 98 190 54 287 54 c 0
 303 54 320 55 331 59 c 0
 362 71 400 115 400 267 c 0
 400 381 373 425 300 448 c 0
 284 452 266 455 246 455 c 0
 185 455 125 455 125 268 c 0
EndSplineSet
EndChar

StartChar: ocircumflex
Encoding: 244 244 165
Width: 517
GlyphClass: 2
Flags: MW
HStem: -17 71<238.5 258.5> 455 71<248 256> 570 182<261 382>
VStem: 30 95<183 295> 150 248<581 583> 400 91<250.5 324>
LayerCount: 2
Fore
SplineSet
150 581 m 1
 196 648 251 735 261 752 c 1
 301 752 l 1
 310 735 366 631 398 583 c 1
 382 570 l 1
 269 676 l 1
 170 568 l 1
 150 581 l 1
30 260 m 0
 30 330 55 389 71 415 c 0
 108 473 220 526 276 526 c 0
 381 526 491 464 491 294 c 0
 491 207 480 154 447 104 c 0
 441 96 386 24 332 0 c 0
 305 -12 276 -17 241 -17 c 0
 156 -17 30 21 30 260 c 0
125 268 m 0
 125 98 190 54 287 54 c 0
 303 54 320 55 331 59 c 0
 362 71 400 115 400 267 c 0
 400 381 373 425 300 448 c 0
 284 452 266 455 246 455 c 0
 185 455 125 455 125 268 c 0
EndSplineSet
EndChar

StartChar: otilde
Encoding: 245 245 166
Width: 517
GlyphClass: 2
Flags: MW
HStem: -17 71<238.5 258.5> 455 71<248 256> 641 60<209 220>
VStem: 30 95<183 295> 109 318<602 679> 400 91<250.5 324>
LayerCount: 2
Fore
SplineSet
109 602 m 1xe8
 128 630 199 701 219 701 c 0
 249 701 278 666 345 648 c 1
 369 655 392 672 412 691 c 1
 427 679 l 1
 408 651 347 588 327 588 c 0
 293 588 239 641 201 641 c 1
 177 634 142 607 122 588 c 1
 109 602 l 1xe8
30 260 m 0xf4
 30 330 55 389 71 415 c 0
 108 473 220 526 276 526 c 0
 381 526 491 464 491 294 c 0
 491 207 480 154 447 104 c 0
 441 96 386 24 332 0 c 0
 305 -12 276 -17 241 -17 c 0
 156 -17 30 21 30 260 c 0xf4
125 268 m 0
 125 98 190 54 287 54 c 0
 303 54 320 55 331 59 c 0
 362 71 400 115 400 267 c 0
 400 381 373 425 300 448 c 0
 284 452 266 455 246 455 c 0
 185 455 125 455 125 268 c 0
EndSplineSet
EndChar

StartChar: odieresis
Encoding: 246 246 167
Width: 517
GlyphClass: 2
Flags: MW
HStem: -17 71<238.5 258.5> 455 71<248 256> 584 133<166.5 184 160 187.5 353.5 371.5>
VStem: 30 95<183 295> 122 113<639 648.5> 309 114<639 648.5> 400 91<250.5 324>
LayerCount: 2
Fore
SplineSet
122 645 m 0xe8
 122 652 143 717 177 717 c 0
 191 717 235 692 235 656 c 0
 235 622 198 584 177 584 c 0
 156 584 122 632 122 645 c 0xe8
309 645 m 0xe4
 309 652 331 717 364 717 c 0
 379 717 423 692 423 656 c 0
 423 622 385 584 364 584 c 0
 343 584 309 632 309 645 c 0xe4
30 260 m 0xf2
 30 330 55 389 71 415 c 0
 108 473 220 526 276 526 c 0
 381 526 491 464 491 294 c 0
 491 207 480 154 447 104 c 0
 441 96 386 24 332 0 c 0
 305 -12 276 -17 241 -17 c 0
 156 -17 30 21 30 260 c 0xf2
125 268 m 0
 125 98 190 54 287 54 c 0
 303 54 320 55 331 59 c 0
 362 71 400 115 400 267 c 0
 400 381 373 425 300 448 c 0
 284 452 266 455 246 455 c 0
 185 455 125 455 125 268 c 0
EndSplineSet
EndChar

StartChar: oslash
Encoding: 248 248 168
Width: 517
GlyphClass: 2
Flags: MW
HStem: -17 71<228 295> 455 71<248 256>
VStem: 30 95<227.5 295> 400 91<250.5 303>
LayerCount: 2
Fore
SplineSet
30 260 m 0
 30 330 55 389 71 415 c 0
 108 473 220 526 276 526 c 0
 306 526 338 520 366 509 c 1
 398 573 l 1
 433 554 l 1
 401 490 l 1
 453 455 491 393 491 294 c 0
 491 207 480 154 447 104 c 0
 441 96 386 24 332 0 c 0
 305 -12 276 -17 241 -17 c 0
 215 -17 185 -13 156 -2 c 1
 126 -63 l 1
 92 -45 l 1
 122 16 l 1
 71 52 30 123 30 260 c 0
400 267 m 0
 400 339 389 383 362 412 c 1
 195 75 l 1
 220 59 251 54 287 54 c 0
 303 54 320 55 331 59 c 0
 362 71 400 115 400 267 c 0
125 268 m 0
 125 187 139 135 165 102 c 1
 330 436 l 1
 300 448 l 1
 284 452 266 455 246 455 c 0
 185 455 125 455 125 268 c 0
EndSplineSet
EndChar

StartChar: ugrave
Encoding: 249 249 169
Width: 556
GlyphClass: 2
Flags: MW
HStem: -9 79<189.5 262> 468 33<321 355 321 323> 505 20<158.5 168 465.5 475> 559 201<167 318>
VStem: 89 89<216 249 195.5 311 195.5 389> 124 210 391 90<132.5 163.5 105.5 206> 393 96<401.5 426.5>
LayerCount: 2
Fore
SplineSet
124 715 m 1xf4
 125 739 153 760 181 760 c 1
 213 720 281 636 334 580 c 1
 318 559 l 1
 261 596 161 680 124 715 c 1xf4
481 127 m 0xf2
 481 84 526 43 526 25 c 0
 526 21 524 19 517 17 c 2
 517 17 447 -6 440 -6 c 0
 418 -6 404 54 398 66 c 1
 306 1 232 -9 213 -9 c 0
 166 -9 114 33 99 92 c 0
 94 108 89 174 89 216 c 2
 89 311 l 2
 89 467 84 463 24 464 c 1
 22 498 l 1
 110 508 153 525 164 525 c 0
 172 525 182 522 182 510 c 0
 182 401 178 280 178 218 c 0
 178 173 180 138 188 116 c 0
 198 87 229 70 248 70 c 0
 276 70 331 82 350 92 c 0
 389 112 391 117 391 148 c 0xfa
 391 264 393 338 393 385 c 0
 393 468 387 468 355 468 c 2
 323 468 l 1
 321 501 l 1
 420 511 460 525 471 525 c 0
 479 525 489 522 489 510 c 0xf1
 489 293 481 200 481 127 c 0xf2
EndSplineSet
EndChar

StartChar: uacute
Encoding: 250 250 170
Width: 556
GlyphClass: 2
Flags: MW
HStem: -9 79<189.5 262> 468 33<321 355 321 323> 505 20<158.5 168 465.5 475> 558 201<239 389>
VStem: 89 89<216 249 195.5 311 195.5 389> 222 211 391 90<132.5 163.5 105.5 206> 393 96<401.5 426.5>
LayerCount: 2
Fore
SplineSet
222 579 m 1xfc
 275 635 343 719 375 759 c 1
 403 759 431 738 433 714 c 1
 395 679 295 595 239 558 c 1
 222 579 l 1xfc
481 127 m 0xfa
 481 84 526 43 526 25 c 0
 526 21 524 19 517 17 c 2
 517 17 447 -6 440 -6 c 0
 418 -6 404 54 398 66 c 1
 306 1 232 -9 213 -9 c 0
 166 -9 114 33 99 92 c 0
 94 108 89 174 89 216 c 2
 89 311 l 2
 89 467 84 463 24 464 c 1
 22 498 l 1
 110 508 153 525 164 525 c 0
 172 525 182 522 182 510 c 0
 182 401 178 280 178 218 c 0
 178 173 180 138 188 116 c 0
 198 87 229 70 248 70 c 0
 276 70 331 82 350 92 c 0
 389 112 391 117 391 148 c 0xfa
 391 264 393 338 393 385 c 0
 393 468 387 468 355 468 c 2
 323 468 l 1
 321 501 l 1
 420 511 460 525 471 525 c 0
 479 525 489 522 489 510 c 0xf9
 489 293 481 200 481 127 c 0xfa
EndSplineSet
EndChar

StartChar: ucircumflex
Encoding: 251 251 171
Width: 556
GlyphClass: 2
Flags: MW
HStem: -9 79<189.5 262> 468 33<321 355 321 323> 505 20<158.5 168 465.5 475> 570 182<272 393>
VStem: 89 89<216 249 195.5 311 195.5 389> 161 248<581 583> 391 90<132.5 163.5 105.5 206> 393 96<401.5 426.5 401.5 570>
LayerCount: 2
Fore
SplineSet
161 581 m 1xf4
 207 648 262 735 272 752 c 1
 312 752 l 1
 321 735 377 631 409 583 c 1xf4
 393 570 l 1xf1
 280 676 l 1
 181 568 l 1
 161 581 l 1xf4
481 127 m 0xf2
 481 84 526 43 526 25 c 0
 526 21 524 19 517 17 c 2
 517 17 447 -6 440 -6 c 0
 418 -6 404 54 398 66 c 1
 306 1 232 -9 213 -9 c 0
 166 -9 114 33 99 92 c 0
 94 108 89 174 89 216 c 2
 89 311 l 2
 89 467 84 463 24 464 c 1
 22 498 l 1
 110 508 153 525 164 525 c 0
 172 525 182 522 182 510 c 0
 182 401 178 280 178 218 c 0
 178 173 180 138 188 116 c 0
 198 87 229 70 248 70 c 0
 276 70 331 82 350 92 c 0
 389 112 391 117 391 148 c 0xfa
 391 264 393 338 393 385 c 0
 393 468 387 468 355 468 c 2
 323 468 l 1
 321 501 l 1
 420 511 460 525 471 525 c 0
 479 525 489 522 489 510 c 0xf1
 489 293 481 200 481 127 c 0xf2
EndSplineSet
EndChar

StartChar: udieresis
Encoding: 252 252 172
Width: 556
GlyphClass: 2
Flags: MW
HStem: -9 79<189.5 262> 468 33<321 355 321 323> 505 20<158.5 168 465.5 475> 584 133<177.5 195 171 198.5 364.5 382.5>
VStem: 89 89<216 249 195.5 311 195.5 389> 133 113<639 648.5> 320 114<639 648.5> 391 90<132.5 163.5 105.5 206> 393 96<401.5 426.5>
LayerCount: 2
Fore
SplineSet
133 645 m 0xf4
 133 652 154 717 188 717 c 0
 202 717 246 692 246 656 c 0
 246 622 209 584 188 584 c 0
 167 584 133 632 133 645 c 0xf4
320 645 m 0xf2
 320 652 342 717 375 717 c 0
 390 717 434 692 434 656 c 0
 434 622 396 584 375 584 c 0
 354 584 320 632 320 645 c 0xf2
481 127 m 0xf1
 481 84 526 43 526 25 c 0
 526 21 524 19 517 17 c 2
 517 17 447 -6 440 -6 c 0
 418 -6 404 54 398 66 c 1
 306 1 232 -9 213 -9 c 0
 166 -9 114 33 99 92 c 0
 94 108 89 174 89 216 c 2
 89 311 l 2
 89 467 84 463 24 464 c 1
 22 498 l 1
 110 508 153 525 164 525 c 0
 172 525 182 522 182 510 c 0
 182 401 178 280 178 218 c 0
 178 173 180 138 188 116 c 0
 198 87 229 70 248 70 c 0
 276 70 331 82 350 92 c 0
 389 112 391 117 391 148 c 0xf9
 391 264 393 338 393 385 c 0
 393 468 387 468 355 468 c 2
 323 468 l 1
 321 501 l 1
 420 511 460 525 471 525 c 0
 479 525 489 522 489 510 c 0xf080
 489 293 481 200 481 127 c 0xf1
EndSplineSet
EndChar

StartChar: yacute
Encoding: 253 253 173
Width: 492
GlyphClass: 2
Flags: MW
HStem: 468 33<0 2> 509 20 558 201<224 374>
VStem: 207 211
LayerCount: 2
Fore
SplineSet
207 579 m 1
 260 635 328 719 360 759 c 1
 388 759 416 738 418 714 c 1
 380 679 280 595 224 558 c 1
 207 579 l 1
0 501 m 1
 88 512 132 529 143 529 c 0
 151 529 160 526 160 514 c 0
 160 482 265 105 265 105 c 1
 367 377 371 430 371 446 c 0
 371 490 335 459 335 493 c 0
 335 508 351 511 369 511 c 0
 384 511 401 509 412 509 c 0
 442 509 461 513 478 513 c 0
 489 513 492 505 492 498 c 0
 492 483 473 492 371 241 c 1
 193 -202 227 -208 193 -208 c 0
 144 -208 127 -196 127 -179 c 0
 127 -142 198 -76 198 -19 c 0
 198 24 94 410 59 450 c 0
 44 467 28 465 2 468 c 1
 0 501 l 1
EndSplineSet
EndChar

StartChar: ydieresis
Encoding: 255 255 174
Width: 492
GlyphClass: 2
Flags: MW
HStem: 468 33<0 2> 509 20 584 133<162.5 180 156 183.5 349.5 367.5>
VStem: 118 113<639 648.5> 305 114<639 648.5>
LayerCount: 2
Fore
SplineSet
118 645 m 0
 118 652 139 717 173 717 c 0
 187 717 231 692 231 656 c 0
 231 622 194 584 173 584 c 0
 152 584 118 632 118 645 c 0
305 645 m 0
 305 652 327 717 360 717 c 0
 375 717 419 692 419 656 c 0
 419 622 381 584 360 584 c 0
 339 584 305 632 305 645 c 0
0 501 m 1
 88 512 132 529 143 529 c 0
 151 529 160 526 160 514 c 0
 160 482 265 105 265 105 c 1
 367 377 371 430 371 446 c 0
 371 490 335 459 335 493 c 0
 335 508 351 511 369 511 c 0
 384 511 401 509 412 509 c 0
 442 509 461 513 478 513 c 0
 489 513 492 505 492 498 c 0
 492 483 473 492 371 241 c 1
 193 -202 227 -208 193 -208 c 0
 144 -208 127 -196 127 -179 c 0
 127 -142 198 -76 198 -19 c 0
 198 24 94 410 59 450 c 0
 44 467 28 465 2 468 c 1
 0 501 l 1
EndSplineSet
EndChar

StartChar: Amacron
Encoding: 256 256 175
Width: 755
GlyphClass: 2
Flags: MW
HStem: 0 36<0 0 0 236> 249 43<222 484 222 497 208 484> 723 20<406.5 410> 830 61<251 501 264 489>
VStem: 251 250<830 891>
LayerCount: 2
Fore
SplineSet
251 830 m 1
 264 891 l 1
 501 891 l 1
 489 830 l 1
 251 830 l 1
0 0 m 1
 0 36 l 1
 60 42 71 53 134 210 c 2
 342 730 l 1
 353 738 403 743 410 743 c 1
 410 743 666 110 673 96 c 0
 689 68 705 43 755 36 c 1
 755 0 l 1
 469 0 l 1
 469 34 l 1
 505 37 558 45 558 78 c 0
 558 98 550 123 537 153 c 2
 518 197 l 2
 511 213 504 230 497 249 c 1
 208 249 l 1
 186 200 146 98 146 83 c 0
 146 50 193 43 236 39 c 1
 236 0 l 1
 0 0 l 1
222 292 m 1
 484 292 l 1
 351 621 l 1
 222 292 l 1
EndSplineSet
EndChar

StartChar: amacron
Encoding: 257 257 176
Width: 478
GlyphClass: 2
Flags: MW
HStem: -10 67<178 184.5> 462 64<178.5 237.5> 602 61<120 370 133 358>
VStem: 40 90<104.5 178 104.5 205.5> 66 41<338 342> 120 250<602 663> 323 88<106.5 205>
LayerCount: 2
Fore
SplineSet
120 602 m 1xe4
 133 663 l 1
 370 663 l 1
 358 602 l 1
 120 602 l 1xe4
411 128 m 0xea
 411 85 456 44 456 26 c 0
 456 22 454 20 447 18 c 2
 447 18 377 -5 370 -5 c 0xe4
 348 -5 334 55 328 67 c 1
 242 11 231 -10 138 -10 c 0
 62 -10 40 58 40 121 c 0xf0
 40 290 170 282 322 316 c 1
 322 340 323 364 323 376 c 0
 323 444 261 462 214 462 c 0
 143 462 133 432 107 338 c 1
 66 342 l 1
 70 376 50 526 259 526 c 0
 413 526 415 441 415 392 c 0
 415 260 411 179 411 128 c 0xea
130 131 m 0xf2
 130 78 159 57 197 57 c 0
 234 57 280 77 316 107 c 0
 323 113 323 153 323 192 c 0
 323 218 323 247 322 277 c 1
 154 221 130 225 130 131 c 0xf2
EndSplineSet
EndChar

StartChar: Abreve
Encoding: 258 258 177
Width: 755
GlyphClass: 2
Flags: MW
HStem: 0 36<0 0 0 236> 249 43<222 484 222 497 208 484> 723 20<406.5 410> 808 58<380 400>
VStem: 249 272<914 927>
LayerCount: 2
Fore
SplineSet
249 914 m 1
 304 939 l 1
 316 927 l 1
 339 885 366 866 394 866 c 0
 428 866 462 894 490 941 c 1
 521 927 l 1
 479 843 425 808 375 808 c 0
 322 808 273 849 249 914 c 1
0 0 m 1
 0 36 l 1
 60 42 71 53 134 210 c 2
 342 730 l 1
 353 738 403 743 410 743 c 1
 410 743 666 110 673 96 c 0
 689 68 705 43 755 36 c 1
 755 0 l 1
 469 0 l 1
 469 34 l 1
 505 37 558 45 558 78 c 0
 558 98 550 123 537 153 c 2
 518 197 l 2
 511 213 504 230 497 249 c 1
 208 249 l 1
 186 200 146 98 146 83 c 0
 146 50 193 43 236 39 c 1
 236 0 l 1
 0 0 l 1
222 292 m 1
 484 292 l 1
 351 621 l 1
 222 292 l 1
EndSplineSet
EndChar

StartChar: abreve
Encoding: 259 259 178
Width: 478
GlyphClass: 2
Flags: MW
HStem: -10 67<178 184.5> 462 64<178.5 237.5> 580 58<249 269>
VStem: 40 90<104.5 178 104.5 205.5> 66 41<338 342> 118 272<686 699> 323 88<106.5 205>
LayerCount: 2
Fore
SplineSet
118 686 m 1xe4
 173 711 l 1
 185 699 l 1
 208 657 235 638 263 638 c 0
 297 638 331 666 359 713 c 1
 390 699 l 1
 348 615 294 580 244 580 c 0
 191 580 142 621 118 686 c 1xe4
411 128 m 0xea
 411 85 456 44 456 26 c 0
 456 22 454 20 447 18 c 2
 447 18 377 -5 370 -5 c 0
 348 -5 334 55 328 67 c 1
 242 11 231 -10 138 -10 c 0
 62 -10 40 58 40 121 c 0xf2
 40 290 170 282 322 316 c 1
 322 340 323 364 323 376 c 0
 323 444 261 462 214 462 c 0
 143 462 133 432 107 338 c 1
 66 342 l 1
 70 376 50 526 259 526 c 0
 413 526 415 441 415 392 c 0
 415 260 411 179 411 128 c 0xea
130 131 m 0
 130 78 159 57 197 57 c 0
 234 57 280 77 316 107 c 0
 323 113 323 153 323 192 c 0
 323 218 323 247 322 277 c 1
 154 221 130 225 130 131 c 0
EndSplineSet
EndChar

StartChar: Cacute
Encoding: 262 262 179
Width: 675
GlyphClass: 2
Flags: MW
HStem: -17 55<375 422.5> 690 62<283.5 466> 803 174
VStem: 42 100<330.5 406> 335 231<827 927> 546 77<644 712> 591 37<232 232>
LayerCount: 2
Fore
SplineSet
335 827 m 1xf8
 397 872 479 943 517 977 c 1
 543 973 566 949 566 927 c 2
 566 923 l 1
 523 895 410 830 348 803 c 1
 335 827 l 1xf8
42 366 m 0
 42 446 53 516 77 572 c 0
 98 621 185 728 313 745 c 0
 342 749 390 752 430 752 c 0
 502 752 581 740 612 723 c 1
 623 712 l 1
 623 702 615 550 614 536 c 1
 579 536 l 1
 571 564 546 643 546 645 c 0xf4
 543 655 539 665 530 671 c 1
 472 686 426 690 381 690 c 0
 186 690 142 605 142 362 c 0
 142 299 147 150 275 72 c 0
 307 53 349 38 401 38 c 0
 458 38 507 58 548 89 c 1
 552 96 567 140 577 178 c 2
 591 232 l 1
 628 232 l 1xf2
 624 191 624 43 624 33 c 1
 559 9 469 -17 376 -17 c 0
 186 -17 42 72 42 366 c 0
EndSplineSet
EndChar

StartChar: cacute
Encoding: 263 263 180
Width: 441
GlyphClass: 2
Flags: MW
HStem: -14 77<206.5 267.5> 456 69<237.5 247.5> 558 201<203 353>
VStem: 30 89<217.5 266.5> 186 211 363 30<354 359>
LayerCount: 2
Fore
SplineSet
186 579 m 1xf8
 239 635 307 719 339 759 c 1
 367 759 395 738 397 714 c 1
 359 679 259 595 203 558 c 1
 186 579 l 1xf8
30 240 m 0
 30 293 33 334 43 383 c 0
 48 406 73 432 78 436 c 0
 175 525 215 525 260 525 c 0
 320 525 386 508 396 504 c 1
 394 484 393 364 393 354 c 1
 363 354 l 1xf4
 363 354 353 398 347 418 c 0
 340 443 276 456 219 456 c 0
 139 456 119 414 119 272 c 0
 119 154 139 63 255 63 c 0
 322 63 392 134 392 134 c 1
 413 114 l 1
 365 61 313 -14 222 -14 c 0
 191 -14 155 -6 114 16 c 1
 81 46 64 74 44 120 c 1
 36 154 30 195 30 240 c 0
EndSplineSet
EndChar

StartChar: Ccircumflex
Encoding: 264 264 181
Width: 675
GlyphClass: 2
Flags: MW
HStem: -17 55<375 422.5> 690 62<283.5 466> 795 139<395 514>
VStem: 42 100<330.5 406> 293 240<811 812> 546 77<644 712> 591 37<232 232>
LayerCount: 2
Fore
SplineSet
293 811 m 1xf8
 339 859 360 886 395 934 c 1
 435 934 l 1
 474 877 494 854 533 812 c 1
 514 795 l 1
 411 863 l 1
 311 793 l 1
 293 811 l 1xf8
42 366 m 0
 42 446 53 516 77 572 c 0
 98 621 185 728 313 745 c 0
 342 749 390 752 430 752 c 0
 502 752 581 740 612 723 c 1
 623 712 l 1
 623 702 615 550 614 536 c 1
 579 536 l 1
 571 564 546 643 546 645 c 0xfc
 543 655 539 665 530 671 c 1
 472 686 426 690 381 690 c 0
 186 690 142 605 142 362 c 0
 142 299 147 150 275 72 c 0
 307 53 349 38 401 38 c 0
 458 38 507 58 548 89 c 1
 552 96 567 140 577 178 c 2
 591 232 l 1
 628 232 l 1xfa
 624 191 624 43 624 33 c 1
 559 9 469 -17 376 -17 c 0
 186 -17 42 72 42 366 c 0
EndSplineSet
EndChar

StartChar: ccircumflex
Encoding: 265 265 182
Width: 441
GlyphClass: 2
Flags: MW
HStem: -14 77<206.5 267.5> 456 69<237.5 247.5> 570 182<236 357>
VStem: 30 89<217.5 266.5> 125 248<581 583> 363 30<354 359>
LayerCount: 2
Fore
SplineSet
125 581 m 1xf8
 171 648 226 735 236 752 c 1
 276 752 l 1
 285 735 341 631 373 583 c 1
 357 570 l 1
 244 676 l 1
 145 568 l 1
 125 581 l 1xf8
30 240 m 0
 30 293 33 334 43 383 c 0
 48 406 73 432 78 436 c 0
 175 525 215 525 260 525 c 0
 320 525 386 508 396 504 c 1
 394 484 393 364 393 354 c 1
 363 354 l 1xf4
 363 354 353 398 347 418 c 0
 340 443 276 456 219 456 c 0
 139 456 119 414 119 272 c 0
 119 154 139 63 255 63 c 0
 322 63 392 134 392 134 c 1
 413 114 l 1
 365 61 313 -14 222 -14 c 0
 191 -14 155 -6 114 16 c 1
 81 46 64 74 44 120 c 1
 36 154 30 195 30 240 c 0
EndSplineSet
EndChar

StartChar: Cdotaccent
Encoding: 266 266 183
Width: 675
GlyphClass: 2
Flags: MW
HStem: -17 55<375 422.5> 690 62<283.5 466> 813 132<394 411.5 387.5 415>
VStem: 42 100<330.5 406> 350 113<867 876.5> 546 77<644 712> 591 37<232 232>
LayerCount: 2
Fore
SplineSet
350 873 m 0xf8
 350 880 371 945 404 945 c 0
 419 945 463 920 463 884 c 0
 463 850 426 813 404 813 c 0
 384 813 350 861 350 873 c 0xf8
42 366 m 0
 42 446 53 516 77 572 c 0
 98 621 185 728 313 745 c 0
 342 749 390 752 430 752 c 0
 502 752 581 740 612 723 c 1
 623 712 l 1
 623 702 615 550 614 536 c 1
 579 536 l 1
 571 564 546 643 546 645 c 0xfc
 543 655 539 665 530 671 c 1
 472 686 426 690 381 690 c 0
 186 690 142 605 142 362 c 0
 142 299 147 150 275 72 c 0
 307 53 349 38 401 38 c 0
 458 38 507 58 548 89 c 1
 552 96 567 140 577 178 c 2
 591 232 l 1
 628 232 l 1xfa
 624 191 624 43 624 33 c 1
 559 9 469 -17 376 -17 c 0
 186 -17 42 72 42 366 c 0
EndSplineSet
EndChar

StartChar: cdotaccent
Encoding: 267 267 184
Width: 441
GlyphClass: 2
Flags: MW
HStem: -14 77<206.5 267.5> 456 69<237.5 247.5> 585 132<230 247.5 223.5 251>
VStem: 30 89<217.5 266.5> 186 113<639 648.5> 363 30<354 359>
LayerCount: 2
Fore
SplineSet
186 645 m 0
 186 652 207 717 240 717 c 0
 255 717 299 692 299 656 c 0
 299 622 262 585 240 585 c 0
 220 585 186 633 186 645 c 0
30 240 m 0
 30 293 33 334 43 383 c 0
 48 406 73 432 78 436 c 0
 175 525 215 525 260 525 c 0
 320 525 386 508 396 504 c 1
 394 484 393 364 393 354 c 1
 363 354 l 1
 363 354 353 398 347 418 c 0
 340 443 276 456 219 456 c 0
 139 456 119 414 119 272 c 0
 119 154 139 63 255 63 c 0
 322 63 392 134 392 134 c 1
 413 114 l 1
 365 61 313 -14 222 -14 c 0
 191 -14 155 -6 114 16 c 1
 81 46 64 74 44 120 c 1
 36 154 30 195 30 240 c 0
EndSplineSet
EndChar

StartChar: Ccaron
Encoding: 268 268 185
Width: 675
GlyphClass: 2
Flags: MW
HStem: -17 55<375 422.5> 690 62<283.5 466> 794 139<318 426 318 386>
VStem: 42 100<330.5 406> 294 236<906 916> 546 77<644 712> 591 37<232 232>
LayerCount: 2
Fore
SplineSet
294 906 m 1xf8
 318 933 l 1
 416 865 l 1
 515 933 l 1
 530 916 l 1
 490 874 439 813 426 794 c 1
 386 794 l 1
 371 815 329 867 294 906 c 1xf8
42 366 m 0
 42 446 53 516 77 572 c 0
 98 621 185 728 313 745 c 0
 342 749 390 752 430 752 c 0
 502 752 581 740 612 723 c 1
 623 712 l 1
 623 702 615 550 614 536 c 1
 579 536 l 1
 571 564 546 643 546 645 c 0xfc
 543 655 539 665 530 671 c 1
 472 686 426 690 381 690 c 0
 186 690 142 605 142 362 c 0
 142 299 147 150 275 72 c 0
 307 53 349 38 401 38 c 0
 458 38 507 58 548 89 c 1
 552 96 567 140 577 178 c 2
 591 232 l 1
 628 232 l 1xfa
 624 191 624 43 624 33 c 1
 559 9 469 -17 376 -17 c 0
 186 -17 42 72 42 366 c 0
EndSplineSet
EndChar

StartChar: ccaron
Encoding: 269 269 186
Width: 441
GlyphClass: 2
Flags: MW
HStem: -14 77<206.5 267.5> 456 69<237.5 247.5> 566 182<142 263 142 223>
VStem: 30 89<217.5 266.5> 115 276<716 732> 363 30<354 359>
LayerCount: 2
Fore
SplineSet
115 716 m 1xe8
 142 748 l 1
 255 642 l 1
 379 750 l 1
 391 732 l 1
 339 668 277 584 263 566 c 1
 223 566 l 1
 211 587 151 668 115 716 c 1xe8
30 240 m 0xf4
 30 293 33 334 43 383 c 0
 48 406 73 432 78 436 c 0
 175 525 215 525 260 525 c 0
 320 525 386 508 396 504 c 1
 394 484 393 364 393 354 c 1
 363 354 l 1
 363 354 353 398 347 418 c 0
 340 443 276 456 219 456 c 0
 139 456 119 414 119 272 c 0
 119 154 139 63 255 63 c 0
 322 63 392 134 392 134 c 1
 413 114 l 1
 365 61 313 -14 222 -14 c 0
 191 -14 155 -6 114 16 c 1
 81 46 64 74 44 120 c 1
 36 154 30 195 30 240 c 0xf4
EndSplineSet
EndChar

StartChar: Dcaron
Encoding: 270 270 187
Width: 776
GlyphClass: 2
Flags: MW
HStem: -6 62<350 377 377 398> 0 37<29 29> 694 50<401 422 422 456.5> 701 37<29 29> 794 139<307 415 307 375>
VStem: 112 112 119 97<64 166.5> 283 236<906 916> 632 103<329.5 486>
LayerCount: 2
Fore
SplineSet
283 906 m 1x0980
 307 933 l 1
 405 865 l 1
 504 933 l 1
 519 916 l 1
 479 874 428 813 415 794 c 1
 375 794 l 1
 360 815 318 867 283 906 c 1x0980
29 0 m 1x4d80
 29 37 l 1
 79 40 119 45 119 83 c 0x4b80
 119 91 118 462 112 661 c 0
 111 693 90 697 43 700 c 2
 29 701 l 1
 29 738 l 1x5d80
 56 736 115 734 168 734 c 0
 332 734 334 744 401 744 c 2
 422 744 l 2
 639 744 735 642 735 409 c 0
 735 96 539 -6 398 -6 c 2
 377 -6 l 2xad80
 323 -6 237 4 168 4 c 0
 115 4 56 2 29 0 c 1x4d80
216 140 m 0
 216 73 255 56 414 56 c 0
 520 56 552 100 592 172 c 0
 615 213 632 282 632 377 c 0
 632 595 549 694 364 694 c 0
 300 694 256 690 235 683 c 1
 224 672 l 1xad80
 220 566 216 193 216 140 c 0
EndSplineSet
EndChar

StartChar: dcaron
Encoding: 271 271 188
Width: 644
GlyphClass: 2
Flags: MW
HStem: -15 86<219.5 249.5> 470 58<225 258.5> 741 33<283 285> 778 20G<428.5 437.5>
VStem: 30 88<206.5 337> 355 96<647 702.5> 358 86<116 200.5 107 262.5> 586 68<650.5 736>
LayerCount: 2
Fore
SplineSet
526 710 m 1xf9
 532 729 554 779 576 798 c 1
 606 782 631 768 654 736 c 1
 654 718 632 612 568 544 c 1
 544 558 l 1
 575 604 586 642 586 659 c 0
 586 681 560 697 542 704 c 2
 526 710 l 1xf9
30 242 m 0
 30 432 78 458 117 482 c 2
 151 502 l 2
 171 514 199 528 251 528 c 0
 278 528 314 524 357 514 c 1
 357 582 355 630 355 664 c 0
 355 741 352 739 285 741 c 1
 283 774 l 1
 382 783 423 798 434 798 c 0
 441 798 451 794 451 782 c 0xfd
 451 410 444 272 444 129 c 0xfb
 444 85 495 37 495 26 c 0
 495 19 460 11 450 7 c 0
 425 -4 411 -10 403 -10 c 0
 385 -10 371 56 359 68 c 1
 314 18 273 -15 226 -15 c 0
 176 -15 30 46 30 242 c 0
237 470 m 0
 168 470 118 454 118 280 c 0
 118 133 184 71 255 71 c 0
 291 71 328 87 358 116 c 1xfb
 358 409 355 377 355 442 c 1
 328 458 280 470 237 470 c 0
EndSplineSet
EndChar

StartChar: Emacron
Encoding: 274 274 189
Width: 640
GlyphClass: 2
Flags: MW
HStem: 0 37<29 29 29 589> 0 44<331 404.5 331 589> 344 74<446 473 446 473> 370 43<226 226> 685 52<300 302.5 300 335> 701 37<37 37> 830 61<209 459 222 447>
VStem: 119 105<66.5 83> 209 250<830 891> 514 34<542 542> 561 37<232 232>
LayerCount: 2
Fore
SplineSet
209 830 m 1x02e0
 222 891 l 1
 459 891 l 1
 447 830 l 1
 209 830 l 1x02e0
29 0 m 1x8360
 29 37 l 1
 79 40 119 45 119 83 c 1
 120 115 123 260 123 413 c 0
 123 499 122 588 119 661 c 0
 118 693 97 697 51 700 c 2
 37 701 l 1
 37 738 l 1x9760
 64 736 123 734 175 734 c 0
 220 734 270 735 300 737 c 0x0b60
 305 737 563 738 563 738 c 1x0760
 575 727 l 1
 572 716 549 556 548 542 c 1
 514 542 l 1
 509 569 493 648 492 650 c 0
 489 660 486 669 476 676 c 1
 463 679 454 680 439 682 c 0
 415 685 357 685 313 685 c 0
 256 685 232 680 231 651 c 0
 229 593 228 499 227 413 c 1x1b60
 286 413 452 417 473 418 c 1
 463 344 l 1
 446 344 l 1x2360
 405 374 255 367 226 370 c 1
 224 222 224 92 224 83 c 0
 224 50 271 44 391 44 c 0x5360
 418 44 485 47 496 56 c 0
 521 78 537 140 547 178 c 2
 561 232 l 1
 598 232 l 1
 594 191 589 10 589 0 c 1
 29 0 l 1x8360
EndSplineSet
EndChar

StartChar: emacron
Encoding: 275 275 190
Width: 467
GlyphClass: 2
Flags: MW
HStem: -15 77<191.5 279.5> 261 45<128 185 185 226 128 331 126 185> 458 65<204.5 284> 602 61<122 372 135 360>
VStem: 30 96<211.5 261 211.5 281.5> 122 250<602 663> 343 93
LayerCount: 2
Fore
SplineSet
122 602 m 1xf4
 135 663 l 1
 372 663 l 1
 360 602 l 1
 122 602 l 1xf4
30 246 m 0xfa
 30 317 44 380 52 399 c 0
 71 442 166 523 243 523 c 0
 447 523 435 350 436 281 c 1
 410 265 373 261 331 261 c 2
 126 261 l 1
 126 162 127 62 256 62 c 0
 317 62 366 85 415 133 c 1
 437 110 l 1
 379 51 323 -15 236 -15 c 0
 68 -15 30 127 30 246 c 0xfa
128 306 m 1
 185 306 l 2
 267 306 319 307 343 324 c 1
 343 370 329 458 239 458 c 0
 143 458 128 411 128 306 c 1
EndSplineSet
EndChar

StartChar: Ebreve
Encoding: 276 276 191
Width: 640
GlyphClass: 2
Flags: MW
HStem: 0 37<29 29 29 589> 0 44<331 404.5 331 589> 344 74<446 473 446 473> 370 43<226 226> 685 52<300 302.5 300 335> 701 37<37 37> 808 58<338 358>
VStem: 119 105<66.5 83> 207 272<914 927> 514 34<542 542> 561 37<232 232>
LayerCount: 2
Fore
SplineSet
207 914 m 1x02e0
 262 939 l 1
 274 927 l 1
 297 885 324 866 352 866 c 0
 386 866 420 894 448 941 c 1
 479 927 l 1
 437 843 383 808 333 808 c 0
 280 808 231 849 207 914 c 1x02e0
29 0 m 1x8360
 29 37 l 1
 79 40 119 45 119 83 c 1
 120 115 123 260 123 413 c 0
 123 499 122 588 119 661 c 0
 118 693 97 697 51 700 c 2
 37 701 l 1
 37 738 l 1x9760
 64 736 123 734 175 734 c 0
 220 734 270 735 300 737 c 0x0b60
 305 737 563 738 563 738 c 1x0760
 575 727 l 1
 572 716 549 556 548 542 c 1
 514 542 l 1
 509 569 493 648 492 650 c 0
 489 660 486 669 476 676 c 1
 463 679 454 680 439 682 c 0
 415 685 357 685 313 685 c 0
 256 685 232 680 231 651 c 0
 229 593 228 499 227 413 c 1x1b60
 286 413 452 417 473 418 c 1
 463 344 l 1
 446 344 l 1x2360
 405 374 255 367 226 370 c 1
 224 222 224 92 224 83 c 0
 224 50 271 44 391 44 c 0x5360
 418 44 485 47 496 56 c 0
 521 78 537 140 547 178 c 2
 561 232 l 1
 598 232 l 1
 594 191 589 10 589 0 c 1
 29 0 l 1x8360
EndSplineSet
EndChar

StartChar: ebreve
Encoding: 277 277 192
Width: 467
GlyphClass: 2
Flags: MW
HStem: -15 77<191.5 279.5> 261 45<128 185 185 226 128 331 126 185> 458 65<204.5 284> 580 58<251 271>
VStem: 30 96<211.5 261 211.5 281.5> 120 272<686 699> 343 93
LayerCount: 2
Fore
SplineSet
120 686 m 1xf4
 175 711 l 1
 187 699 l 1
 210 657 237 638 265 638 c 0
 299 638 333 666 361 713 c 1
 392 699 l 1
 350 615 296 580 246 580 c 0
 193 580 144 621 120 686 c 1xf4
30 246 m 0xfa
 30 317 44 380 52 399 c 0
 71 442 166 523 243 523 c 0
 447 523 435 350 436 281 c 1
 410 265 373 261 331 261 c 2
 126 261 l 1
 126 162 127 62 256 62 c 0
 317 62 366 85 415 133 c 1
 437 110 l 1
 379 51 323 -15 236 -15 c 0
 68 -15 30 127 30 246 c 0xfa
128 306 m 1
 185 306 l 2
 267 306 319 307 343 324 c 1
 343 370 329 458 239 458 c 0
 143 458 128 411 128 306 c 1
EndSplineSet
EndChar

StartChar: Edotaccent
Encoding: 278 278 193
Width: 640
GlyphClass: 2
Flags: MW
HStem: 0 37<29 29 29 589> 0 44<331 404.5 331 589> 344 74<446 473 446 473> 370 43<226 226> 685 52<300 302.5 300 335> 701 37<37 37> 813 132<322 339.5 315.5 343>
VStem: 119 105<66.5 83> 278 113<867 876.5> 514 34<542 542> 561 37<232 232>
LayerCount: 2
Fore
SplineSet
278 873 m 0x03e0
 278 880 299 945 332 945 c 0
 347 945 391 920 391 884 c 0
 391 850 354 813 332 813 c 0
 312 813 278 861 278 873 c 0x03e0
29 0 m 1x83e0
 29 37 l 1
 79 40 119 45 119 83 c 1
 120 115 123 260 123 413 c 0
 123 499 122 588 119 661 c 0
 118 693 97 697 51 700 c 2
 37 701 l 1
 37 738 l 1x97e0
 64 736 123 734 175 734 c 0
 220 734 270 735 300 737 c 0x0be0
 305 737 563 738 563 738 c 1x07e0
 575 727 l 1
 572 716 549 556 548 542 c 1
 514 542 l 1
 509 569 493 648 492 650 c 0
 489 660 486 669 476 676 c 1
 463 679 454 680 439 682 c 0
 415 685 357 685 313 685 c 0
 256 685 232 680 231 651 c 0
 229 593 228 499 227 413 c 1x1be0
 286 413 452 417 473 418 c 1
 463 344 l 1
 446 344 l 1x23e0
 405 374 255 367 226 370 c 1
 224 222 224 92 224 83 c 0
 224 50 271 44 391 44 c 0x53e0
 418 44 485 47 496 56 c 0
 521 78 537 140 547 178 c 2
 561 232 l 1
 598 232 l 1
 594 191 589 10 589 0 c 1
 29 0 l 1x83e0
EndSplineSet
EndChar

StartChar: edotaccent
Encoding: 279 279 194
Width: 467
GlyphClass: 2
Flags: MW
HStem: -15 77<191.5 279.5> 261 45<128 185 185 226 128 331 126 185> 458 65<204.5 284> 585 132<235 252.5 228.5 256>
VStem: 30 96<211.5 261 211.5 281.5> 191 113<639 648.5> 343 93
LayerCount: 2
Fore
SplineSet
191 645 m 0
 191 652 212 717 245 717 c 0
 260 717 304 692 304 656 c 0
 304 622 267 585 245 585 c 0
 225 585 191 633 191 645 c 0
30 246 m 0
 30 317 44 380 52 399 c 0
 71 442 166 523 243 523 c 0
 447 523 435 350 436 281 c 1
 410 265 373 261 331 261 c 2
 126 261 l 1
 126 162 127 62 256 62 c 0
 317 62 366 85 415 133 c 1
 437 110 l 1
 379 51 323 -15 236 -15 c 0
 68 -15 30 127 30 246 c 0
128 306 m 1
 185 306 l 2
 267 306 319 307 343 324 c 1
 343 370 329 458 239 458 c 0
 143 458 128 411 128 306 c 1
EndSplineSet
EndChar

StartChar: Ecaron
Encoding: 282 282 195
Width: 640
GlyphClass: 2
Flags: MW
HStem: 0 37<29 29 29 589> 0 44<331 404.5 331 589> 344 74<446 473 446 473> 370 43<226 226> 685 52<300 302.5 300 335> 701 37<37 37> 794 139<246 354 246 314>
VStem: 119 105<66.5 83> 222 236<906 916> 514 34<542 542> 561 37<232 232>
LayerCount: 2
Fore
SplineSet
222 906 m 1x02e0
 246 933 l 1
 344 865 l 1
 443 933 l 1
 458 916 l 1
 418 874 367 813 354 794 c 1
 314 794 l 1
 299 815 257 867 222 906 c 1x02e0
29 0 m 1x8360
 29 37 l 1
 79 40 119 45 119 83 c 1
 120 115 123 260 123 413 c 0
 123 499 122 588 119 661 c 0
 118 693 97 697 51 700 c 2
 37 701 l 1
 37 738 l 1x9760
 64 736 123 734 175 734 c 0
 220 734 270 735 300 737 c 0x0b60
 305 737 563 738 563 738 c 1x0760
 575 727 l 1
 572 716 549 556 548 542 c 1
 514 542 l 1
 509 569 493 648 492 650 c 0
 489 660 486 669 476 676 c 1
 463 679 454 680 439 682 c 0
 415 685 357 685 313 685 c 0
 256 685 232 680 231 651 c 0
 229 593 228 499 227 413 c 1x1b60
 286 413 452 417 473 418 c 1
 463 344 l 1
 446 344 l 1x2360
 405 374 255 367 226 370 c 1
 224 222 224 92 224 83 c 0
 224 50 271 44 391 44 c 0x5360
 418 44 485 47 496 56 c 0
 521 78 537 140 547 178 c 2
 561 232 l 1
 598 232 l 1
 594 191 589 10 589 0 c 1
 29 0 l 1x8360
EndSplineSet
EndChar

StartChar: ecaron
Encoding: 283 283 196
Width: 467
GlyphClass: 2
Flags: MW
HStem: -15 77<191.5 279.5> 261 45<128 185 185 226 128 331 126 185> 458 65<204.5 284> 566 182<147 268 147 228>
VStem: 30 96<211.5 261 211.5 281.5> 120 276<716 732> 343 93
LayerCount: 2
Fore
SplineSet
120 716 m 1xf4
 147 748 l 1
 260 642 l 1
 384 750 l 1
 396 732 l 1
 344 668 282 584 268 566 c 1
 228 566 l 1
 216 587 156 668 120 716 c 1xf4
30 246 m 0xfa
 30 317 44 380 52 399 c 0
 71 442 166 523 243 523 c 0
 447 523 435 350 436 281 c 1
 410 265 373 261 331 261 c 2
 126 261 l 1
 126 162 127 62 256 62 c 0
 317 62 366 85 415 133 c 1
 437 110 l 1
 379 51 323 -15 236 -15 c 0
 68 -15 30 127 30 246 c 0xfa
128 306 m 1
 185 306 l 2
 267 306 319 307 343 324 c 1
 343 370 329 458 239 458 c 0
 143 458 128 411 128 306 c 1
EndSplineSet
EndChar

StartChar: Gcircumflex
Encoding: 284 284 197
Width: 757
GlyphClass: 2
Flags: MW
HStem: -17 65<313.5 422.5> 272 34<467 468> 690 62<410 431> 795 139<401 520>
VStem: 42 100<279.5 406> 299 240<811 812> 575 94<91 230 230 237 51 246.5>
LayerCount: 2
Fore
SplineSet
299 811 m 1
 345 859 366 886 401 934 c 1
 441 934 l 1
 480 877 500 854 539 812 c 1
 520 795 l 1
 417 863 l 1
 317 793 l 1
 299 811 l 1
42 366 m 0
 42 446 53 516 77 572 c 0
 98 621 185 728 313 745 c 0
 342 749 390 752 430 752 c 0
 502 752 622 740 652 723 c 1
 664 712 l 1
 664 702 656 550 655 536 c 1
 620 536 l 1
 613 560 588 641 584 651 c 1
 562 665 480 690 382 690 c 0
 186 690 142 605 142 362 c 0
 142 197 199 48 428 48 c 0
 500 48 543 61 575 91 c 1
 575 230 l 2
 575 263 534 267 493 270 c 2
 468 272 l 1
 467 306 l 1
 494 304 570 302 623 302 c 0
 676 302 717 304 744 306 c 1
 744 269 l 1
 730 268 l 2
 683 265 669 256 669 237 c 2
 669 51 l 1
 658 40 l 1
 593 17 469 -17 376 -17 c 0
 186 -17 42 72 42 366 c 0
EndSplineSet
EndChar

StartChar: gcircumflex
Encoding: 285 285 198
Width: 475
GlyphClass: 2
Flags: MW
HStem: -204 39<202 283.5 202 312.5> 30 49<213 307> 449 35 463 61<186.5 275> 570 182<244 365>
VStem: 10 86<-86 -67> 43 92<314 330.5> 59 91<103.5 112.5> 133 248<581 583> 321 95<319 362.5 319 388.5> 379 96<-70.5 -26.5>
LayerCount: 2
Fore
SplineSet
133 581 m 1xc880
 179 648 234 735 244 752 c 1
 284 752 l 1
 293 735 349 631 381 583 c 1
 365 570 l 1
 252 676 l 1
 153 568 l 1
 133 581 l 1xc880
10 -83 m 0xec20
 10 -51 18 0 138 51 c 1
 88 58 59 76 59 105 c 0xe9
 59 120 62 151 148 177 c 1
 81 207 56 234 44 299 c 0
 43 303 43 310 43 318 c 0
 43 343 47 381 60 410 c 0
 73 437 159 524 264 524 c 0xda
 286 524 328 521 372 484 c 1
 398 485 439 490 469 497 c 1
 475 491 l 1
 475 449 l 1xea20
 396 449 l 1
 407 433 416 378 416 347 c 0
 416 291 400 255 358 216 c 1
 322 195 284 181 232 170 c 1
 177 156 150 138 150 113 c 0xe940
 150 94 168 79 193 79 c 2
 312 79 l 2
 317 79 383 77 403 69 c 0
 431 58 475 15 475 -37 c 0
 475 -104 410 -204 215 -204 c 0
 138 -204 10 -180 10 -83 c 0xec20
96 -54 m 0xcc20
 96 -118 172 -165 232 -165 c 0
 335 -165 379 -113 379 -46 c 0
 379 -7 352 30 262 30 c 0
 164 30 96 10 96 -54 c 0xcc20
135 324 m 0xda40
 135 266 168 220 236 220 c 0
 301 220 321 248 321 344 c 0
 321 433 299 453 223 462 c 0
 218 463 213 463 209 463 c 0
 164 463 135 434 135 324 c 0xda40
EndSplineSet
EndChar

StartChar: Gbreve
Encoding: 286 286 199
Width: 757
GlyphClass: 2
Flags: MW
HStem: -17 65<313.5 422.5> 272 34<467 468> 690 62<410 431> 808 58<416 436>
VStem: 42 100<279.5 406> 285 272<914 927> 575 94<91 230 230 237 51 246.5>
LayerCount: 2
Fore
SplineSet
285 914 m 1
 340 939 l 1
 352 927 l 1
 375 885 402 866 430 866 c 0
 464 866 498 894 526 941 c 1
 557 927 l 1
 515 843 461 808 411 808 c 0
 358 808 309 849 285 914 c 1
42 366 m 0
 42 446 53 516 77 572 c 0
 98 621 185 728 313 745 c 0
 342 749 390 752 430 752 c 0
 502 752 622 740 652 723 c 1
 664 712 l 1
 664 702 656 550 655 536 c 1
 620 536 l 1
 613 560 588 641 584 651 c 1
 562 665 480 690 382 690 c 0
 186 690 142 605 142 362 c 0
 142 197 199 48 428 48 c 0
 500 48 543 61 575 91 c 1
 575 230 l 2
 575 263 534 267 493 270 c 2
 468 272 l 1
 467 306 l 1
 494 304 570 302 623 302 c 0
 676 302 717 304 744 306 c 1
 744 269 l 1
 730 268 l 2
 683 265 669 256 669 237 c 2
 669 51 l 1
 658 40 l 1
 593 17 469 -17 376 -17 c 0
 186 -17 42 72 42 366 c 0
EndSplineSet
EndChar

StartChar: gbreve
Encoding: 287 287 200
Width: 475
GlyphClass: 2
Flags: MW
HStem: -204 39<202 283.5 202 312.5> 30 49<213 307> 449 35 463 61<186.5 275> 580 58<254 274>
VStem: 10 86<-86 -67> 43 92<314 330.5> 59 91<103.5 112.5> 123 272<686 699> 321 95<319 362.5 319 388.5> 379 96<-70.5 -26.5>
LayerCount: 2
Fore
SplineSet
123 686 m 1xc880
 178 711 l 1
 190 699 l 1
 213 657 240 638 268 638 c 0
 302 638 336 666 364 713 c 1
 395 699 l 1
 353 615 299 580 249 580 c 0
 196 580 147 621 123 686 c 1xc880
10 -83 m 0xec20
 10 -51 18 0 138 51 c 1
 88 58 59 76 59 105 c 0xe9
 59 120 62 151 148 177 c 1
 81 207 56 234 44 299 c 0
 43 303 43 310 43 318 c 0
 43 343 47 381 60 410 c 0
 73 437 159 524 264 524 c 0xda
 286 524 328 521 372 484 c 1
 398 485 439 490 469 497 c 1
 475 491 l 1
 475 449 l 1xea20
 396 449 l 1
 407 433 416 378 416 347 c 0
 416 291 400 255 358 216 c 1
 322 195 284 181 232 170 c 1
 177 156 150 138 150 113 c 0xe940
 150 94 168 79 193 79 c 2
 312 79 l 2
 317 79 383 77 403 69 c 0
 431 58 475 15 475 -37 c 0
 475 -104 410 -204 215 -204 c 0
 138 -204 10 -180 10 -83 c 0xec20
96 -54 m 0xcc20
 96 -118 172 -165 232 -165 c 0
 335 -165 379 -113 379 -46 c 0
 379 -7 352 30 262 30 c 0
 164 30 96 10 96 -54 c 0xcc20
135 324 m 0xda40
 135 266 168 220 236 220 c 0
 301 220 321 248 321 344 c 0
 321 433 299 453 223 462 c 0
 218 463 213 463 209 463 c 0
 164 463 135 434 135 324 c 0xda40
EndSplineSet
EndChar

StartChar: Gdotaccent
Encoding: 288 288 201
Width: 757
GlyphClass: 2
Flags: MW
HStem: -17 65<313.5 422.5> 272 34<467 468> 690 62<410 431> 813 132<400 417.5 393.5 421>
VStem: 42 100<279.5 406> 356 113<867 876.5> 575 94<91 230 230 237 51 246.5>
LayerCount: 2
Fore
SplineSet
356 873 m 0
 356 880 377 945 410 945 c 0
 425 945 469 920 469 884 c 0
 469 850 432 813 410 813 c 0
 390 813 356 861 356 873 c 0
42 366 m 0
 42 446 53 516 77 572 c 0
 98 621 185 728 313 745 c 0
 342 749 390 752 430 752 c 0
 502 752 622 740 652 723 c 1
 664 712 l 1
 664 702 656 550 655 536 c 1
 620 536 l 1
 613 560 588 641 584 651 c 1
 562 665 480 690 382 690 c 0
 186 690 142 605 142 362 c 0
 142 197 199 48 428 48 c 0
 500 48 543 61 575 91 c 1
 575 230 l 2
 575 263 534 267 493 270 c 2
 468 272 l 1
 467 306 l 1
 494 304 570 302 623 302 c 0
 676 302 717 304 744 306 c 1
 744 269 l 1
 730 268 l 2
 683 265 669 256 669 237 c 2
 669 51 l 1
 658 40 l 1
 593 17 469 -17 376 -17 c 0
 186 -17 42 72 42 366 c 0
EndSplineSet
EndChar

StartChar: gdotaccent
Encoding: 289 289 202
Width: 475
GlyphClass: 2
Flags: MW
HStem: -204 39<202 283.5 202 312.5> 30 49<213 307> 449 35 463 61<186.5 275> 585 132<238 255.5 231.5 259>
VStem: 10 86<-86 -67> 43 92<314 330.5> 59 91<103.5 112.5> 194 113<639 648.5> 321 95<319 362.5 319 388.5> 379 96<-70.5 -26.5>
LayerCount: 2
Fore
SplineSet
194 645 m 0xc880
 194 652 215 717 248 717 c 0
 263 717 307 692 307 656 c 0
 307 622 270 585 248 585 c 0
 228 585 194 633 194 645 c 0xc880
10 -83 m 0xeca0
 10 -51 18 0 138 51 c 1
 88 58 59 76 59 105 c 0xe980
 59 120 62 151 148 177 c 1
 81 207 56 234 44 299 c 0
 43 303 43 310 43 318 c 0
 43 343 47 381 60 410 c 0
 73 437 159 524 264 524 c 0xda80
 286 524 328 521 372 484 c 1
 398 485 439 490 469 497 c 1
 475 491 l 1
 475 449 l 1xeaa0
 396 449 l 1
 407 433 416 378 416 347 c 0
 416 291 400 255 358 216 c 1
 322 195 284 181 232 170 c 1
 177 156 150 138 150 113 c 0xe9c0
 150 94 168 79 193 79 c 2
 312 79 l 2
 317 79 383 77 403 69 c 0
 431 58 475 15 475 -37 c 0
 475 -104 410 -204 215 -204 c 0
 138 -204 10 -180 10 -83 c 0xeca0
96 -54 m 0xcca0
 96 -118 172 -165 232 -165 c 0
 335 -165 379 -113 379 -46 c 0
 379 -7 352 30 262 30 c 0
 164 30 96 10 96 -54 c 0xcca0
135 324 m 0xdac0
 135 266 168 220 236 220 c 0
 301 220 321 248 321 344 c 0
 321 433 299 453 223 462 c 0
 218 463 213 463 209 463 c 0
 164 463 135 434 135 324 c 0xdac0
EndSplineSet
EndChar

StartChar: Hcircumflex
Encoding: 292 292 203
Width: 849
GlyphClass: 2
Flags: MW
HStem: 0 37<29 29 29 306> 370 43<219 630 219 630 218 630> 701 37<29 306 29 306> 795 139<413 532>
VStem: 112 106 119 97<64.5 87> 311 240<811 812> 630 106 632 97<64.5 85.5>
LayerCount: 2
Fore
SplineSet
311 811 m 1xf2
 357 859 378 886 413 934 c 1
 453 934 l 1
 492 877 512 854 551 812 c 1
 532 795 l 1
 429 863 l 1
 329 793 l 1
 311 811 l 1xf2
29 0 m 1
 29 37 l 1
 79 40 119 45 119 83 c 0xf6
 119 91 118 462 112 661 c 0
 111 693 90 697 43 700 c 2
 29 701 l 1
 29 738 l 1
 306 738 l 1
 306 701 l 1
 292 700 l 2
 245 697 224 693 223 661 c 0
 222 607 220 511 219 413 c 1
 630 413 l 1
 629 501 627 591 625 661 c 0
 624 693 603 697 556 700 c 2
 542 701 l 1
 542 738 l 1
 819 738 l 1
 819 701 l 1
 805 700 l 2
 758 697 737 693 736 661 c 0xfb
 731 518 729 92 729 83 c 0
 729 46 767 41 819 37 c 1
 819 0 l 1
 542 0 l 1
 542 37 l 1
 592 40 632 45 632 83 c 0xf280
 632 88 632 221 630 370 c 1
 218 370 l 1xfb
 217 222 216 92 216 83 c 0xf6
 216 46 254 41 306 37 c 1
 306 0 l 1
 29 0 l 1
EndSplineSet
EndChar

StartChar: hcircumflex
Encoding: 293 293 204
Width: 565
GlyphClass: 2
Flags: MW
HStem: 0 34<37 241 37 37> 451 73<301.5 428> 740 33<22 59> 777 20<166.5 176> 819 182<128 249>
VStem: 17 248<830 832> 97 90<411 459 411 642> 400 89<131 149.5 77 310>
LayerCount: 2
Fore
SplineSet
17 830 m 1xfd
 63 897 118 984 128 1001 c 1
 168 1001 l 1
 177 984 233 880 265 832 c 1
 249 819 l 1
 136 925 l 1
 37 817 l 1
 17 830 l 1xfd
22 773 m 1
 120 782 161 797 172 797 c 0
 180 797 189 793 189 782 c 0
 189 773 188 727 188 717 c 2
 187 459 l 1
 264 502 338 524 379 524 c 0
 477 524 492 451 492 321 c 0
 492 261 489 190 489 109 c 0
 489 45 492 40 540 34 c 1
 540 0 l 1
 350 0 l 1
 350 34 l 1
 398 45 400 51 400 131 c 2
 400 310 l 2
 400 428 391 451 323 451 c 0
 280 451 213 428 187 411 c 1
 187 411 184 295 184 121 c 0
 184 50 185 37 241 34 c 1
 241 0 l 1
 37 0 l 1
 37 34 l 1
 82 37 96 50 96 76 c 0
 96 263 97 357 97 544 c 0xfb
 97 740 94 740 24 740 c 1
 22 773 l 1
EndSplineSet
EndChar

StartChar: Itilde
Encoding: 296 296 205
Width: 335
GlyphClass: 2
Flags: MW
HStem: 0 37<29 29 29 306> 701 37<29 306 29 306> 869 60<108 119>
VStem: 8 318<830 907> 112 111<661 661> 119 97<64.5 87>
LayerCount: 2
Fore
SplineSet
8 830 m 1xf0
 27 858 98 929 118 929 c 0
 148 929 177 894 244 876 c 1
 268 883 291 900 311 919 c 1
 326 907 l 1
 307 879 246 816 226 816 c 0
 192 816 138 869 100 869 c 1
 76 862 41 835 21 816 c 1
 8 830 l 1xf0
29 0 m 1
 29 37 l 1
 79 40 119 45 119 83 c 0xe4
 119 91 118 462 112 661 c 0
 111 693 90 697 43 700 c 2
 29 701 l 1
 29 738 l 1
 306 738 l 1
 306 701 l 1
 292 700 l 2
 245 697 224 693 223 661 c 0xe8
 218 518 216 92 216 83 c 0xe4
 216 46 254 41 306 37 c 1
 306 0 l 1
 29 0 l 1
EndSplineSet
EndChar

StartChar: itilde
Encoding: 297 297 206
Width: 282
GlyphClass: 2
Flags: MW
HStem: 0 34<30 30 30 262> 469 33<33 50 33 35> 506 20<177.5 187> 641 60<78 89>
VStem: -22 318<602 679> 107 88<87 211 61 295 61 378.5>
LayerCount: 2
Fore
SplineSet
-22 602 m 1xf8
 -3 630 68 701 88 701 c 0
 118 701 147 666 214 648 c 1
 238 655 261 672 281 691 c 1
 296 679 l 1
 277 651 216 588 196 588 c 0
 162 588 108 641 70 641 c 1
 46 634 11 607 -9 588 c 1
 -22 602 l 1xf8
30 0 m 1
 30 34 l 1
 100 39 107 48 107 87 c 2
 107 295 l 2
 107 462 101 469 50 469 c 2
 35 469 l 1
 33 502 l 1
 131 511 172 526 183 526 c 0
 191 526 200 522 200 510 c 0
 200 467 195 347 195 75 c 0xf4
 195 47 218 37 262 34 c 1
 262 0 l 1
 30 0 l 1
EndSplineSet
EndChar

StartChar: Imacron
Encoding: 298 298 207
Width: 335
GlyphClass: 2
Flags: MW
HStem: 0 37<29 29 29 306> 701 37<29 306 29 306> 830 61<41 291 54 279>
VStem: 41 250<830 891> 112 111<661 661> 119 97<64.5 87>
LayerCount: 2
Fore
SplineSet
41 830 m 1xf0
 54 891 l 1
 291 891 l 1
 279 830 l 1
 41 830 l 1xf0
29 0 m 1
 29 37 l 1
 79 40 119 45 119 83 c 0xe4
 119 91 118 462 112 661 c 0
 111 693 90 697 43 700 c 2
 29 701 l 1
 29 738 l 1
 306 738 l 1
 306 701 l 1
 292 700 l 2
 245 697 224 693 223 661 c 0xe8
 218 518 216 92 216 83 c 0xe4
 216 46 254 41 306 37 c 1
 306 0 l 1
 29 0 l 1
EndSplineSet
EndChar

StartChar: imacron
Encoding: 299 299 208
Width: 282
GlyphClass: 2
Flags: MW
HStem: 0 34<30 30 30 262> 469 33<33 50 33 35> 506 20<177.5 187> 602 61<11 261 24 249>
VStem: 11 250<602 663> 107 88<87 211 61 295 61 378.5>
LayerCount: 2
Fore
SplineSet
11 602 m 1xf8
 24 663 l 1
 261 663 l 1
 249 602 l 1
 11 602 l 1xf8
30 0 m 1
 30 34 l 1
 100 39 107 48 107 87 c 2
 107 295 l 2
 107 462 101 469 50 469 c 2
 35 469 l 1
 33 502 l 1
 131 511 172 526 183 526 c 0
 191 526 200 522 200 510 c 0
 200 467 195 347 195 75 c 0xf4
 195 47 218 37 262 34 c 1
 262 0 l 1
 30 0 l 1
EndSplineSet
EndChar

StartChar: Ibreve
Encoding: 300 300 209
Width: 335
GlyphClass: 2
Flags: MW
HStem: 0 37<29 29 29 306> 701 37<29 306 29 306> 808 58<170 190>
VStem: 39 272<914 927> 112 111<661 661> 119 97<64.5 87>
LayerCount: 2
Fore
SplineSet
39 914 m 1xf0
 94 939 l 1
 106 927 l 1
 129 885 156 866 184 866 c 0
 218 866 252 894 280 941 c 1
 311 927 l 1
 269 843 215 808 165 808 c 0
 112 808 63 849 39 914 c 1xf0
29 0 m 1
 29 37 l 1
 79 40 119 45 119 83 c 0xe4
 119 91 118 462 112 661 c 0
 111 693 90 697 43 700 c 2
 29 701 l 1
 29 738 l 1
 306 738 l 1
 306 701 l 1
 292 700 l 2
 245 697 224 693 223 661 c 0xe8
 218 518 216 92 216 83 c 0xe4
 216 46 254 41 306 37 c 1
 306 0 l 1
 29 0 l 1
EndSplineSet
EndChar

StartChar: ibreve
Encoding: 301 301 210
Width: 282
GlyphClass: 2
Flags: MW
HStem: 0 34<30 30 30 262> 469 33<33 50 33 35> 506 20<177.5 187> 580 58<140 160>
VStem: 9 272<686 699> 107 88<87 211 61 295 61 378.5>
LayerCount: 2
Fore
SplineSet
9 686 m 1xf8
 64 711 l 1
 76 699 l 1
 99 657 126 638 154 638 c 0
 188 638 222 666 250 713 c 1
 281 699 l 1
 239 615 185 580 135 580 c 0
 82 580 33 621 9 686 c 1xf8
30 0 m 1
 30 34 l 1
 100 39 107 48 107 87 c 2
 107 295 l 2
 107 462 101 469 50 469 c 2
 35 469 l 1
 33 502 l 1
 131 511 172 526 183 526 c 0
 191 526 200 522 200 510 c 0
 200 467 195 347 195 75 c 0xf4
 195 47 218 37 262 34 c 1
 262 0 l 1
 30 0 l 1
EndSplineSet
EndChar

StartChar: Idotaccent
Encoding: 304 304 211
Width: 335
GlyphClass: 2
Flags: MW
HStem: 0 37<29 29 29 306> 701 37<29 306 29 306> 813 132<154 171.5 147.5 175>
VStem: 110 113<867 876.5> 112 111<661 661> 119 97<64.5 87>
LayerCount: 2
Fore
SplineSet
110 873 m 0xf0
 110 880 131 945 164 945 c 0
 179 945 223 920 223 884 c 0xe8
 223 850 186 813 164 813 c 0
 144 813 110 861 110 873 c 0xf0
29 0 m 1
 29 37 l 1
 79 40 119 45 119 83 c 0xe4
 119 91 118 462 112 661 c 0
 111 693 90 697 43 700 c 2
 29 701 l 1
 29 738 l 1
 306 738 l 1
 306 701 l 1
 292 700 l 2
 245 697 224 693 223 661 c 0xe8
 218 518 216 92 216 83 c 0xe4
 216 46 254 41 306 37 c 1
 306 0 l 1
 29 0 l 1
EndSplineSet
EndChar

StartChar: dotlessi
Encoding: 305 305 212
Width: 282
GlyphClass: 2
Flags: MW
HStem: 0 34<30 30 30 262> 469 33<33 50 33 35> 506 20G<177.5 187>
VStem: 107 88<87 211 61 295 61 378.5>
AnchorPoint: "Anchor-0" 137 510 basechar 0
LayerCount: 2
Fore
SplineSet
30 0 m 1
 30 34 l 1
 100 39 107 48 107 87 c 2
 107 295 l 2
 107 462 101 469 50 469 c 2
 35 469 l 1
 33 502 l 1
 131 511 172 526 183 526 c 0
 191 526 200 522 200 510 c 0
 200 467 195 347 195 75 c 0
 195 47 218 37 262 34 c 1
 262 0 l 1
 30 0 l 1
EndSplineSet
EndChar

StartChar: IJ
Encoding: 306 306 213
Width: 647
GlyphClass: 3
Flags: MW
HStem: 0 37<29 29 29 306> 701 37<29 306 29 306>
VStem: 112 111<661 661> 119 97<64.5 87> 438 90 438 106
LayerCount: 2
Fore
SplineSet
29 0 m 1xd0
 29 37 l 1
 79 40 119 45 119 83 c 0xd0
 119 91 118 462 112 661 c 0
 111 693 90 697 43 700 c 2
 29 701 l 1
 29 738 l 1
 306 738 l 1
 306 701 l 1
 292 700 l 2
 245 697 224 693 223 661 c 0xe0
 218 518 216 92 216 83 c 0
 216 46 254 41 306 37 c 1
 306 0 l 1
 29 0 l 1xd0
335 -162 m 1
 362 -141 l 1
 428 -82 438 -33 438 92 c 0
 438 547 434 640 432 661 c 0
 430 693 411 697 364 700 c 2
 350 701 l 1
 350 738 l 1
 627 738 l 1
 627 701 l 1
 612 700 l 2
 566 697 544 693 544 661 c 0xc4
 542 480 534 39 528 8 c 0xc8
 514 -79 455 -137 399 -170 c 1
 355 -194 l 1
 335 -162 l 1
EndSplineSet
Ligature2: "'dlig' Discretionary Ligatures in Latin lookup 4 subtable" I J
EndChar

StartChar: ij
Encoding: 307 307 214
Width: 534
GlyphClass: 3
Flags: MW
HStem: 0 34<30 30 30 262> 469 33<33 50 33 35> 470 33<298 315 298 300> 506 20<177.5 187> 507 20<442.5 452> 605 132<133 150.5 126.5 154 396.5 414.5>
VStem: 89 113<659 668.5> 107 88<87 211 61 295 61 378.5> 352 114<659 668.5> 372 93<229 412>
LayerCount: 2
Fore
SplineSet
352 665 m 0x8480
 352 672 374 737 407 737 c 0
 422 737 466 712 466 676 c 0
 466 642 428 605 407 605 c 0
 386 605 352 652 352 665 c 0x8480
277 -185 m 1
 368 -71 372 -99 372 368 c 0
 372 456 363 470 315 470 c 2
 300 470 l 1
 298 503 l 1
 397 512 437 527 448 527 c 0
 456 527 465 523 465 511 c 0xac40
 465 -53 461 -66 294 -202 c 1
 277 -185 l 1
89 665 m 0x86
 89 672 110 737 143 737 c 0
 158 737 202 712 202 676 c 0
 202 642 165 605 143 605 c 0
 123 605 89 652 89 665 c 0x86
30 0 m 1
 30 34 l 1
 100 39 107 48 107 87 c 2
 107 295 l 2
 107 462 101 469 50 469 c 2
 35 469 l 1
 33 502 l 1
 131 511 172 526 183 526 c 0
 191 526 200 522 200 510 c 0
 200 467 195 347 195 75 c 0xd5
 195 47 218 37 262 34 c 1
 262 0 l 1
 30 0 l 1
EndSplineSet
Ligature2: "'dlig' Discretionary Ligatures in Latin lookup 4 subtable" i j
EndChar

StartChar: Jcircumflex
Encoding: 308 308 215
Width: 312
GlyphClass: 2
Flags: MW
HStem: 701 37<15 292 15 292> 795 139<141 260>
VStem: 39 240<811 812> 103 90 103 106
LayerCount: 2
Fore
SplineSet
39 811 m 1xe0
 85 859 106 886 141 934 c 1
 181 934 l 1
 220 877 240 854 279 812 c 1
 260 795 l 1
 157 863 l 1
 57 793 l 1
 39 811 l 1xe0
0 -162 m 1
 27 -141 l 1
 93 -82 103 -33 103 92 c 0
 103 547 99 640 97 661 c 0
 95 693 76 697 29 700 c 2
 15 701 l 1
 15 738 l 1
 292 738 l 1
 292 701 l 1
 277 700 l 2
 231 697 209 693 209 661 c 0xc8
 207 480 199 39 193 8 c 0xd0
 179 -79 120 -137 64 -170 c 1
 20 -194 l 1
 0 -162 l 1
EndSplineSet
EndChar

StartChar: jcircumflex
Encoding: 309 309 216
Width: 251
GlyphClass: 2
Flags: MW
HStem: 470 33<16 33 16 18> 507 20<160.5 170> 569 182<100 221>
VStem: -11 248<580 582> 90 93<229 412>
LayerCount: 2
Fore
SplineSet
-11 580 m 1xf0
 35 647 90 734 100 751 c 1
 140 751 l 1
 149 734 205 630 237 582 c 1
 221 569 l 1
 108 675 l 1
 9 567 l 1
 -11 580 l 1xf0
-5 -185 m 1
 86 -71 90 -99 90 368 c 0
 90 456 81 470 33 470 c 2
 18 470 l 1
 16 503 l 1
 115 512 155 527 166 527 c 0
 174 527 183 523 183 511 c 0xe8
 183 -53 179 -66 12 -202 c 1
 -5 -185 l 1
EndSplineSet
EndChar

StartChar: Lacute
Encoding: 313 313 217
Width: 558
GlyphClass: 2
Flags: MW
HStem: 0 37<29 29 29 549> 0 44<314 335 335 342.5 314 549> 701 37<29 319 29 319> 803 174
VStem: 101 231<827 927> 112 111<661 661> 119 97<71.5 87.5 71.5 95> 521 37<232 232>
LayerCount: 2
Fore
SplineSet
101 827 m 1x39
 163 872 245 943 283 977 c 1
 309 973 332 949 332 927 c 2
 332 923 l 1
 289 895 176 830 114 803 c 1
 101 827 l 1x39
29 0 m 1xb3
 29 37 l 1
 82 41 119 46 119 83 c 0xb3
 119 107 118 468 112 661 c 1
 110 693 90 697 43 700 c 2
 29 701 l 1
 29 738 l 1
 319 738 l 1
 319 701 l 1
 305 700 l 2
 258 697 224 693 223 661 c 0xb5
 218 518 216 92 216 83 c 0
 216 60 242 44 314 44 c 2
 335 44 l 2x73
 350 44 443 45 456 56 c 0
 481 78 497 140 507 178 c 2
 521 232 l 1
 558 232 l 1
 554 191 549 10 549 0 c 1
 29 0 l 1xb3
EndSplineSet
EndChar

StartChar: lacute
Encoding: 314 314 218
Width: 284
GlyphClass: 2
Flags: MW
HStem: 0 34<26 26 26 262> 739 33<29 44 29 31> 778 20<173 183> 807 201<101 251>
VStem: 84 211 101 97<462 652> 104 84<138 182.5 68.5 323>
LayerCount: 2
Fore
SplineSet
84 828 m 1xf8
 137 884 205 968 237 1008 c 1
 265 1008 293 987 295 963 c 1xf8
 257 928 157 844 101 807 c 1xf4
 84 828 l 1xf8
26 0 m 1
 26 34 l 1
 95 47 104 36 104 138 c 2
 104 323 l 2xf2
 104 397 103 501 101 652 c 1
 100 700 l 2
 99 735 85 739 44 739 c 2
 31 739 l 1
 29 772 l 1
 128 783 167 798 179 798 c 0
 187 798 196 795 196 783 c 0
 197 742 198 660 198 577 c 0xf4
 198 347 188 270 188 95 c 0xf2
 188 42 197 42 262 34 c 1
 262 0 l 1
 26 0 l 1
EndSplineSet
EndChar

StartChar: Lcaron
Encoding: 317 317 219
Width: 586
GlyphClass: 2
Flags: MW
HStem: 0 37<25 25 25 545> 0 44<310 331 331 338.5 310 545> 536 262<357 399> 701 37<25 315 25 315>
VStem: 108 111<661 661> 115 97<71.5 87.5 71.5 95> 383 69<618 714> 517 37<232 232>
LayerCount: 2
Fore
SplineSet
25 0 m 1x87
 25 37 l 1
 78 41 115 46 115 83 c 0x87
 115 107 114 468 108 661 c 1
 106 693 86 697 39 700 c 2
 25 701 l 1
 25 738 l 1
 315 738 l 1
 315 701 l 1
 301 700 l 2
 254 697 220 693 219 661 c 0x9b
 214 518 212 92 212 83 c 0
 212 60 238 44 310 44 c 2
 331 44 l 2x57
 346 44 439 45 452 56 c 0
 477 78 493 140 503 178 c 2
 517 232 l 1
 554 232 l 1
 550 191 545 10 545 0 c 1
 25 0 l 1x87
343 552 m 0
 343 563 383 596 383 640 c 0
 383 680 338 714 338 738 c 0x13
 338 740 370 798 388 798 c 0
 410 798 452 730 452 698 c 0
 452 646 376 536 358 536 c 0x23
 356 536 343 544 343 552 c 0
EndSplineSet
EndChar

StartChar: lcaron
Encoding: 318 318 220
Width: 420
GlyphClass: 2
Flags: MW
HStem: 0 34<26 26 26 262> 536 262<173 307> 739 33<29 44 29 31> 778 20<173 183 319 339>
VStem: 101 97<462 652> 104 84<138 182.5 68.5 323> 323 69<618 714>
LayerCount: 2
Fore
SplineSet
26 0 m 1xc6
 26 34 l 1
 95 47 104 36 104 138 c 2
 104 323 l 2xc6
 104 397 103 501 101 652 c 1
 100 700 l 2
 99 735 85 739 44 739 c 2
 31 739 l 1
 29 772 l 1xaa
 128 783 167 798 179 798 c 0
 187 798 196 795 196 783 c 0
 197 742 198 660 198 577 c 0xca
 198 347 188 270 188 95 c 0
 188 42 197 42 262 34 c 1
 262 0 l 1
 26 0 l 1xc6
283 552 m 0
 283 563 323 596 323 640 c 0
 323 680 278 714 278 738 c 0
 278 740 310 798 328 798 c 0x92
 350 798 392 730 392 698 c 0
 392 646 316 536 298 536 c 0
 296 536 283 544 283 552 c 0
EndSplineSet
EndChar

StartChar: Nacute
Encoding: 323 323 221
Width: 777
GlyphClass: 2
Flags: MW
HStem: 0 39<19 255> 700 38<535 535> 803 174
VStem: 109 55<450 482 482 516.5> 326 231<827 927> 629 61 633 50
LayerCount: 2
Fore
SplineSet
326 827 m 1xf8
 388 872 470 943 508 977 c 1
 534 973 557 949 557 927 c 2
 557 923 l 1
 514 895 401 830 339 803 c 1
 326 827 l 1xf8
15 701 m 1
 15 738 l 1
 204 738 l 1
 212 714 389 477 633 159 c 1xfa
 632 173 629 378 629 467 c 0
 629 517 626 601 625 634 c 0
 624 677 621 692 535 700 c 1
 535 738 l 1
 777 738 l 1
 777 702 l 1
 743 699 709 694 696 675 c 0
 693 670 690 644 690 644 c 1xfc
 686 505 683 173 683 164 c 0xfa
 683 122 685 0 685 0 c 1
 626 0 l 1
 576 77 573 75 164 597 c 1
 164 290 l 1
 164 290 169 99 169 83 c 0
 169 50 211 43 255 39 c 1
 255 0 l 1
 19 0 l 1
 19 36 l 1
 62 40 98 48 102 80 c 0
 107 116 109 229 109 450 c 2
 109 482 l 2
 109 551 108 664 108 667 c 0
 106 679 100 692 65 696 c 2
 15 701 l 1
EndSplineSet
EndChar

StartChar: nacute
Encoding: 324 324 222
Width: 563
GlyphClass: 2
Flags: MW
HStem: 0 34<36 246 36 36> 452 73<293 422> 507 20<153.5 176> 558 201<271 421>
VStem: 91 103 98 89<98 151.5 81 152.5> 254 211 393 94<78 395 395 408>
LayerCount: 2
Fore
SplineSet
254 579 m 1x92
 307 635 375 719 407 759 c 1
 435 759 463 738 465 714 c 1
 427 679 327 595 271 558 c 1
 254 579 l 1x92
32 493 m 1
 105 501 140 527 167 527 c 0xb8
 185 527 191 515 191 474 c 2
 191 460 l 1
 274 507 335 525 379 525 c 0
 465 525 487 457 487 408 c 2
 487 74 l 2
 487 47 492 37 540 34 c 1
 540 0 l 1
 336 0 l 1
 336 34 l 1
 390 38 393 50 393 78 c 2
 393 395 l 2
 393 448 343 452 305 452 c 0
 281 452 222 434 194 415 c 1xd9
 191 269 187 179 187 124 c 0
 187 38 198 37 246 34 c 1
 246 0 l 1
 36 0 l 1
 36 34 l 1
 95 43 98 46 98 150 c 0xd4
 98 155 93 415 91 422 c 0xd8
 83 454 67 452 35 455 c 1
 32 493 l 1
EndSplineSet
EndChar

StartChar: Ncaron
Encoding: 327 327 223
Width: 777
GlyphClass: 2
Flags: MW
HStem: 0 39<19 255> 700 38<535 535> 794 139<309 417 309 377>
VStem: 109 55<450 482 482 516.5> 285 236<906 916> 629 61 633 50
LayerCount: 2
Fore
SplineSet
285 906 m 1xf8
 309 933 l 1
 407 865 l 1
 506 933 l 1
 521 916 l 1
 481 874 430 813 417 794 c 1
 377 794 l 1
 362 815 320 867 285 906 c 1xf8
15 701 m 1
 15 738 l 1
 204 738 l 1
 212 714 389 477 633 159 c 1xfa
 632 173 629 378 629 467 c 0
 629 517 626 601 625 634 c 0
 624 677 621 692 535 700 c 1
 535 738 l 1
 777 738 l 1
 777 702 l 1
 743 699 709 694 696 675 c 0
 693 670 690 644 690 644 c 1xfc
 686 505 683 173 683 164 c 0xfa
 683 122 685 0 685 0 c 1
 626 0 l 1
 576 77 573 75 164 597 c 1
 164 290 l 1
 164 290 169 99 169 83 c 0
 169 50 211 43 255 39 c 1
 255 0 l 1
 19 0 l 1
 19 36 l 1
 62 40 98 48 102 80 c 0
 107 116 109 229 109 450 c 2
 109 482 l 2
 109 551 108 664 108 667 c 0
 106 679 100 692 65 696 c 2
 15 701 l 1
EndSplineSet
EndChar

StartChar: ncaron
Encoding: 328 328 224
Width: 563
GlyphClass: 2
Flags: MW
HStem: 0 34<36 246 36 36> 452 73<293 422> 507 20<153.5 176> 566 182<210 331 210 291>
VStem: 91 103 98 89<98 151.5 81 152.5> 183 276<716 732> 393 94<78 395 395 408>
LayerCount: 2
Fore
SplineSet
183 716 m 1x92
 210 748 l 1
 323 642 l 1
 447 750 l 1
 459 732 l 1
 407 668 345 584 331 566 c 1
 291 566 l 1
 279 587 219 668 183 716 c 1x92
32 493 m 1
 105 501 140 527 167 527 c 0xb8
 185 527 191 515 191 474 c 2
 191 460 l 1
 274 507 335 525 379 525 c 0
 465 525 487 457 487 408 c 2
 487 74 l 2
 487 47 492 37 540 34 c 1
 540 0 l 1
 336 0 l 1
 336 34 l 1
 390 38 393 50 393 78 c 2
 393 395 l 2
 393 448 343 452 305 452 c 0
 281 452 222 434 194 415 c 1xd9
 191 269 187 179 187 124 c 0
 187 38 198 37 246 34 c 1
 246 0 l 1
 36 0 l 1
 36 34 l 1
 95 43 98 46 98 150 c 0xd4
 98 155 93 415 91 422 c 0xd8
 83 454 67 452 35 455 c 1
 32 493 l 1
EndSplineSet
EndChar

StartChar: Omacron
Encoding: 332 332 225
Width: 745
GlyphClass: 2
Flags: MW
HStem: -14 66<381 388> 689 62<366.5 367.5> 830 61<261 511 274 499>
VStem: 42 102<362 415> 261 250<830 891> 601 103<375.5 473.5>
LayerCount: 2
Fore
SplineSet
261 830 m 1
 274 891 l 1
 511 891 l 1
 499 830 l 1
 261 830 l 1
42 358 m 0
 42 472 69 554 106 610 c 0
 181 722 338 751 395 751 c 0
 609 751 704 621 704 411 c 0
 704 340 696 214 633 122 c 0
 561 16 417 -14 359 -14 c 0
 136 -14 42 149 42 358 c 0
144 379 m 0
 144 345 144 147 285 75 c 0
 327 54 357 52 405 52 c 0
 522 52 601 128 601 351 c 0
 601 596 507 673 413 687 c 0
 404 689 376 689 359 689 c 0
 237 689 144 610 144 379 c 0
EndSplineSet
EndChar

StartChar: omacron
Encoding: 333 333 226
Width: 517
GlyphClass: 2
Flags: MW
HStem: -17 71<238.5 258.5> 455 71<248 256> 602 61<142 392 155 380>
VStem: 30 95<183 295> 142 250<602 663> 400 91<250.5 324>
LayerCount: 2
Fore
SplineSet
142 602 m 1
 155 663 l 1
 392 663 l 1
 380 602 l 1
 142 602 l 1
30 260 m 0
 30 330 55 389 71 415 c 0
 108 473 220 526 276 526 c 0
 381 526 491 464 491 294 c 0
 491 207 480 154 447 104 c 0
 441 96 386 24 332 0 c 0
 305 -12 276 -17 241 -17 c 0
 156 -17 30 21 30 260 c 0
125 268 m 0
 125 98 190 54 287 54 c 0
 303 54 320 55 331 59 c 0
 362 71 400 115 400 267 c 0
 400 381 373 425 300 448 c 0
 284 452 266 455 246 455 c 0
 185 455 125 455 125 268 c 0
EndSplineSet
EndChar

StartChar: Obreve
Encoding: 334 334 227
Width: 745
GlyphClass: 2
Flags: MW
HStem: -14 66<381 388> 689 62<366.5 367.5> 808 58<390 410>
VStem: 42 102<362 415> 259 272<914 927> 601 103<375.5 473.5>
LayerCount: 2
Fore
SplineSet
259 914 m 1
 314 939 l 1
 326 927 l 1
 349 885 376 866 404 866 c 0
 438 866 472 894 500 941 c 1
 531 927 l 1
 489 843 435 808 385 808 c 0
 332 808 283 849 259 914 c 1
42 358 m 0
 42 472 69 554 106 610 c 0
 181 722 338 751 395 751 c 0
 609 751 704 621 704 411 c 0
 704 340 696 214 633 122 c 0
 561 16 417 -14 359 -14 c 0
 136 -14 42 149 42 358 c 0
144 379 m 0
 144 345 144 147 285 75 c 0
 327 54 357 52 405 52 c 0
 522 52 601 128 601 351 c 0
 601 596 507 673 413 687 c 0
 404 689 376 689 359 689 c 0
 237 689 144 610 144 379 c 0
EndSplineSet
EndChar

StartChar: obreve
Encoding: 335 335 228
Width: 517
GlyphClass: 2
Flags: MW
HStem: -17 71<238.5 258.5> 455 71<248 256> 580 58<271 291>
VStem: 30 95<183 295> 140 272<686 699> 400 91<250.5 324>
LayerCount: 2
Fore
SplineSet
140 686 m 1xf8
 195 711 l 1
 207 699 l 1
 230 657 257 638 285 638 c 0
 319 638 353 666 381 713 c 1
 412 699 l 1
 370 615 316 580 266 580 c 0
 213 580 164 621 140 686 c 1xf8
30 260 m 0
 30 330 55 389 71 415 c 0
 108 473 220 526 276 526 c 0
 381 526 491 464 491 294 c 0xf4
 491 207 480 154 447 104 c 0
 441 96 386 24 332 0 c 0
 305 -12 276 -17 241 -17 c 0
 156 -17 30 21 30 260 c 0
125 268 m 0
 125 98 190 54 287 54 c 0
 303 54 320 55 331 59 c 0
 362 71 400 115 400 267 c 0
 400 381 373 425 300 448 c 0
 284 452 266 455 246 455 c 0
 185 455 125 455 125 268 c 0
EndSplineSet
EndChar

StartChar: Ohungarumlaut
Encoding: 336 336 229
Width: 745
GlyphClass: 2
Flags: MW
HStem: -14 66<381 388> 689 62<366.5 367.5> 803 174
VStem: 42 102<362 415> 271 231<827 927> 454 231<827 927> 601 103<375.5 473.5>
AnchorPoint: "Anchor-0" -347 510 mark 0
LayerCount: 2
Fore
SplineSet
271 827 m 1xf8
 333 872 415 943 453 977 c 1
 479 973 502 949 502 927 c 2
 502 923 l 1
 459 895 346 830 284 803 c 1
 271 827 l 1xf8
454 827 m 1xf4
 516 872 598 943 636 977 c 1
 662 973 685 949 685 927 c 2
 685 923 l 1
 642 895 529 830 467 803 c 1
 454 827 l 1xf4
42 358 m 0
 42 472 69 554 106 610 c 0
 181 722 338 751 395 751 c 0
 609 751 704 621 704 411 c 0xf2
 704 340 696 214 633 122 c 0
 561 16 417 -14 359 -14 c 0
 136 -14 42 149 42 358 c 0
144 379 m 0
 144 345 144 147 285 75 c 0
 327 54 357 52 405 52 c 0
 522 52 601 128 601 351 c 0
 601 596 507 673 413 687 c 0
 404 689 376 689 359 689 c 0
 237 689 144 610 144 379 c 0
EndSplineSet
EndChar

StartChar: ohungarumlaut
Encoding: 337 337 230
Width: 517
GlyphClass: 2
Flags: MW
HStem: -17 71<238.5 258.5> 455 71<248 256> 558 201<142 292 278 325>
VStem: 30 95<183 295> 125 211 400 91<250.5 324>
LayerCount: 2
Fore
SplineSet
308 579 m 1xe4
 362 635 430 719 462 759 c 1
 490 759 518 738 519 714 c 1
 482 679 382 595 325 558 c 1
 308 579 l 1xe4
125 579 m 1xec
 178 635 246 719 278 759 c 1
 306 759 334 738 336 714 c 1
 298 679 198 595 142 558 c 1
 125 579 l 1xec
30 260 m 0xf4
 30 330 55 389 71 415 c 0
 108 473 220 526 276 526 c 0
 381 526 491 464 491 294 c 0
 491 207 480 154 447 104 c 0
 441 96 386 24 332 0 c 0
 305 -12 276 -17 241 -17 c 0
 156 -17 30 21 30 260 c 0xf4
125 268 m 0
 125 98 190 54 287 54 c 0
 303 54 320 55 331 59 c 0
 362 71 400 115 400 267 c 0
 400 381 373 425 300 448 c 0
 284 452 266 455 246 455 c 0
 185 455 125 455 125 268 c 0
EndSplineSet
EndChar

StartChar: OE
Encoding: 338 338 231
Width: 1102
GlyphClass: 2
Flags: MW
HStem: -14 49<363.5 411.5> -2 44<861.5 866 793 1051> 343 74<907 935 907 935> 368 43<688 688> 701 44<360 441 360 473.5>
VStem: 42 102<254.5 415> 581 105<64.5 81> 584 104<411 411> 976 34<540 540> 1023 37<230 230>
AnchorPoint: "Anchor-0" 637 737 basechar 0
LayerCount: 2
Fore
SplineSet
42 358 m 0x8ec0
 42 472 69 554 106 610 c 0
 175 714 325 745 395 745 c 0
 487 745 584 732 637 732 c 0
 676 732 637 734 1025 736 c 1
 1037 725 l 1
 1034 714 1011 554 1010 540 c 1
 976 540 l 1
 971 567 955 646 954 648 c 0
 951 658 947 667 938 674 c 1
 925 677 915 678 901 680 c 0
 877 683 819 683 775 683 c 0
 718 683 693 678 693 649 c 0
 691 591 689 497 688 411 c 1x9dc0
 748 411 914 415 935 417 c 1
 925 343 l 1
 907 343 l 1x2dc0
 867 372 716 365 688 368 c 1x1dc0
 686 220 686 90 686 81 c 0
 686 48 733 42 853 42 c 0
 879 42 947 45 958 54 c 0
 983 76 999 138 1009 176 c 2
 1023 230 l 1
 1060 230 l 1
 1056 189 1051 8 1051 -2 c 1x5ec0
 672 -2 798 0 630 0 c 0
 571 0 464 -14 359 -14 c 0
 134 -14 42 151 42 358 c 0x8ec0
144 379 m 0
 144 126 284 35 443 35 c 0
 477 35 581 40 581 81 c 1x9ec0
 582 113 584 258 584 411 c 0x9dc0
 584 497 584 586 581 659 c 0x9ec0
 580 686 527 701 420 701 c 0
 254 701 144 634 144 379 c 0
EndSplineSet
EndChar

StartChar: oe
Encoding: 339 339 232
Width: 836
GlyphClass: 2
Flags: MW
HStem: -17 71<238.5 279> -15 77<560.5 648> 261 45<497 553 553 594 497 700 495 553> 455 71<248 256>
VStem: 30 95<183 295> 400 95<211.5 261 211.5 324> 712 93
AnchorPoint: "Anchor-0" 452 509 basechar 0
LayerCount: 2
Fore
SplineSet
30 260 m 0xbe
 30 330 55 389 71 415 c 0
 108 473 220 526 276 526 c 0
 342 526 410 501 452 441 c 1
 491 480 556 523 612 523 c 0
 816 523 804 350 805 281 c 1
 779 265 741 261 700 261 c 2
 495 261 l 1
 495 162 496 62 625 62 c 0
 686 62 735 85 784 133 c 1
 806 110 l 1
 748 51 691 -15 605 -15 c 0x7e
 514 -15 461 27 431 84 c 1
 365 5 317 -17 241 -17 c 0
 156 -17 30 21 30 260 c 0xbe
125 268 m 0
 125 98 190 54 287 54 c 0xbe
 303 54 320 55 331 59 c 0
 362 71 400 115 400 267 c 0
 400 381 373 425 300 448 c 0
 284 452 266 455 246 455 c 0
 185 455 125 455 125 268 c 0
497 306 m 1
 553 306 l 2
 635 306 687 307 712 324 c 1
 712 370 698 458 608 458 c 0
 512 458 497 411 497 306 c 1
EndSplineSet
EndChar

StartChar: Racute
Encoding: 340 340 233
Width: 669
GlyphClass: 2
Flags: MW
HStem: -4 21<524 524> 0 37<32 32 32 309> 357 50<305 321 321 349> 697 47<344 392> 803 174
VStem: 115 107 122 97<64.5 85.5 64.5 87> 243 231<827 927> 454 104<523.5 610.5>
LayerCount: 2
Fore
SplineSet
243 827 m 1x39
 305 872 387 943 425 977 c 1
 451 973 474 949 474 927 c 2
 474 923 l 1
 431 895 318 830 256 803 c 1
 243 827 l 1x39
32 0 m 1x7a
 32 37 l 1
 82 40 122 45 122 83 c 0x7a
 122 91 121 462 115 661 c 0
 114 693 93 697 46 700 c 2
 32 701 l 1
 32 738 l 1
 60 736 115 734 171 734 c 0
 311 734 331 744 372 744 c 2
 392 744 l 2
 477 744 558 678 558 566 c 0
 558 472 513 433 436 382 c 1
 436 382 541 176 614 60 c 1
 669 36 l 1
 669 0 l 1x7c80
 614 0 579 0 524 -4 c 1
 349 357 l 1
 321 357 l 2
 288 357 248 361 222 370 c 1xbc80
 220 229 219 88 219 83 c 0
 219 46 257 41 309 37 c 1
 309 0 l 1
 32 0 l 1x7a
223 424 m 1
 241 413 282 407 328 407 c 0
 429 407 454 495 454 552 c 0x3880
 454 669 372 697 359 697 c 0
 329 697 260 694 237 684 c 1
 227 673 l 1
 225 627 224 523 223 424 c 1
EndSplineSet
EndChar

StartChar: racute
Encoding: 341 341 234
Width: 398
GlyphClass: 2
Flags: MW
HStem: 0 34<25 25 25 305> 448 75<284 358> 509 20<156 178.5> 558 201<180 330>
VStem: 102 91<68 182 68 325> 163 211 346 36<373 373>
LayerCount: 2
Fore
SplineSet
163 579 m 1x94
 216 635 284 719 316 759 c 1
 344 759 372 738 374 714 c 1
 336 679 236 595 180 558 c 1
 163 579 l 1x94
25 0 m 1
 25 34 l 1
 99 42 102 40 102 149 c 2
 102 182 l 2
 102 468 101 451 37 457 c 1
 35 495 l 1
 107 503 142 529 170 529 c 0xba
 187 529 193 517 193 476 c 0
 193 458 194 438 194 438 c 1
 259 501 303 523 333 523 c 0
 383 523 398 512 398 481 c 0
 398 458 390 423 382 373 c 1
 346 373 l 1
 342 429 320 448 295 448 c 0
 273 448 194 422 194 362 c 0
 194 309 193 130 193 91 c 0xda
 193 45 213 44 305 31 c 1
 305 0 l 1
 25 0 l 1
EndSplineSet
EndChar

StartChar: Rcaron
Encoding: 344 344 235
Width: 669
GlyphClass: 2
Flags: MW
HStem: -4 21<524 524> 0 37<32 32 32 309> 357 50<305 321 321 349> 697 47<344 392> 794 139<226 334 226 294>
VStem: 115 107 122 97<64.5 85.5 64.5 87> 202 236<906 916> 454 104<523.5 610.5>
LayerCount: 2
Fore
SplineSet
202 906 m 1x3980
 226 933 l 1
 324 865 l 1
 423 933 l 1
 438 916 l 1
 398 874 347 813 334 794 c 1
 294 794 l 1
 279 815 237 867 202 906 c 1x3980
32 0 m 1x7a80
 32 37 l 1
 82 40 122 45 122 83 c 0x7a80
 122 91 121 462 115 661 c 0
 114 693 93 697 46 700 c 2
 32 701 l 1
 32 738 l 1
 60 736 115 734 171 734 c 0
 311 734 331 744 372 744 c 2
 392 744 l 2
 477 744 558 678 558 566 c 0
 558 472 513 433 436 382 c 1
 436 382 541 176 614 60 c 1
 669 36 l 1
 669 0 l 1x7c80
 614 0 579 0 524 -4 c 1
 349 357 l 1
 321 357 l 2
 288 357 248 361 222 370 c 1xbc80
 220 229 219 88 219 83 c 0
 219 46 257 41 309 37 c 1
 309 0 l 1
 32 0 l 1x7a80
223 424 m 1
 241 413 282 407 328 407 c 0
 429 407 454 495 454 552 c 0
 454 669 372 697 359 697 c 0
 329 697 260 694 237 684 c 1
 227 673 l 1
 225 627 224 523 223 424 c 1
EndSplineSet
EndChar

StartChar: rcaron
Encoding: 345 345 236
Width: 398
GlyphClass: 2
Flags: MW
HStem: 0 34<25 25 25 305> 448 75<284 358> 509 20<156 178.5> 566 182<119 240 119 200>
VStem: 92 276<716 732> 102 91<68 182 68 325> 346 36<373 373>
LayerCount: 2
Fore
SplineSet
92 716 m 1x98
 119 748 l 1
 232 642 l 1
 356 750 l 1
 368 732 l 1
 316 668 254 584 240 566 c 1
 200 566 l 1
 188 587 128 668 92 716 c 1x98
25 0 m 1
 25 34 l 1
 99 42 102 40 102 149 c 2
 102 182 l 2
 102 468 101 451 37 457 c 1
 35 495 l 1
 107 503 142 529 170 529 c 0xb6
 187 529 193 517 193 476 c 0
 193 458 194 438 194 438 c 1
 259 501 303 523 333 523 c 0
 383 523 398 512 398 481 c 0
 398 458 390 423 382 373 c 1
 346 373 l 1
 342 429 320 448 295 448 c 0
 273 448 194 422 194 362 c 0
 194 309 193 130 193 91 c 0xd6
 193 45 213 44 305 31 c 1
 305 0 l 1
 25 0 l 1
EndSplineSet
EndChar

StartChar: Sacute
Encoding: 346 346 237
Width: 519
GlyphClass: 2
Flags: MW
HStem: -15 71<255 306.5> 528 21<412 447 412 412> 689 64<258 291> 803 174
VStem: 57 80<549.5 581.5> 65 37<211 232> 213 231<715 827> 379 77<636 704> 395 94<168 205.5>
LayerCount: 2
Fore
SplineSet
213 827 m 1xf2
 275 872 357 943 395 977 c 1xf080
 421 973 444 949 444 927 c 2
 444 923 l 1
 401 895 288 830 226 803 c 1
 213 827 l 1xf2
57 543 m 0xf880
 57 620 73 674 169 727 c 0
 191 739 220 753 296 753 c 0
 355 753 412 732 444 715 c 1xfa
 456 704 l 1
 456 694 448 542 447 528 c 1
 412 528 l 1
 404 556 379 635 379 637 c 0
 375 647 372 656 363 663 c 0
 352 673 316 689 266 689 c 0
 189 689 137 668 137 584 c 0xf9
 137 515 183 487 217 469 c 2
 369 390 l 2
 406 371 489 323 489 204 c 0
 489 132 474 102 424 44 c 0
 403 21 360 -15 253 -15 c 0
 175 -15 99 12 58 30 c 1
 61 71 65 190 65 232 c 1
 102 232 l 1xf480
 116 178 l 2
 135 103 140 97 164 78 c 1
 194 65 233 56 277 56 c 0
 351 56 395 78 395 165 c 0
 395 246 333 284 303 300 c 1
 222 340 l 1
 145 380 131 388 115 405 c 2
 107 414 l 2
 72 452 57 498 57 543 c 0xf880
EndSplineSet
EndChar

StartChar: sacute
Encoding: 347 347 238
Width: 387
GlyphClass: 2
Flags: MW
HStem: -17 64<175 190.5> 466 59<184 211> 558 201<169 319>
VStem: 45 67<341.5 371.5> 152 211 292 65<144 183.5> 296 37<361 390.5>
LayerCount: 2
Fore
SplineSet
152 579 m 1xf8
 205 635 273 719 305 759 c 1
 333 759 361 738 363 714 c 1
 325 679 225 595 169 558 c 1
 152 579 l 1xf8
45 358 m 0
 45 385 49 412 62 432 c 0
 111 511 143 525 225 525 c 0
 247 525 276 519 302 508 c 0
 317 502 336 495 336 459 c 0
 336 449 333 420 333 361 c 1
 296 361 l 1xf2
 295 375 284 418 271 437 c 0
 256 459 226 466 196 466 c 0
 120 466 112 418 112 400 c 0
 112 283 357 344 357 158 c 0
 357 130 355 102 342 80 c 0
 322 48 310 33 278 8 c 0
 255 -9 198 -17 183 -17 c 0
 101 -17 65 2 55 19 c 0
 50 27 47 38 47 53 c 0
 47 162 50 171 74 171 c 0
 108 171 87 117 115 79 c 0
 128 61 152 47 198 47 c 0
 257 47 292 75 292 122 c 0xf4
 292 245 45 179 45 358 c 0
EndSplineSet
EndChar

StartChar: Scircumflex
Encoding: 348 348 239
Width: 519
GlyphClass: 2
Flags: MW
HStem: -15 71<255 306.5> 528 21<412 447 412 412> 689 64<258 291> 795 139<273 392>
VStem: 57 80<549.5 581.5> 65 37<211 232> 171 240<811 812> 379 77<636 704> 395 94<168 205.5>
LayerCount: 2
Fore
SplineSet
171 811 m 1xf2
 217 859 238 886 273 934 c 1
 313 934 l 1
 352 877 372 854 411 812 c 1
 392 795 l 1
 289 863 l 1
 189 793 l 1
 171 811 l 1xf2
57 543 m 0xf880
 57 620 73 674 169 727 c 0
 191 739 220 753 296 753 c 0
 355 753 412 732 444 715 c 1
 456 704 l 1
 456 694 448 542 447 528 c 1
 412 528 l 1
 404 556 379 635 379 637 c 0
 375 647 372 656 363 663 c 0
 352 673 316 689 266 689 c 0
 189 689 137 668 137 584 c 0xf9
 137 515 183 487 217 469 c 2
 369 390 l 2
 406 371 489 323 489 204 c 0
 489 132 474 102 424 44 c 0
 403 21 360 -15 253 -15 c 0
 175 -15 99 12 58 30 c 1
 61 71 65 190 65 232 c 1
 102 232 l 1xf480
 116 178 l 2
 135 103 140 97 164 78 c 1
 194 65 233 56 277 56 c 0
 351 56 395 78 395 165 c 0
 395 246 333 284 303 300 c 1
 222 340 l 1
 145 380 131 388 115 405 c 2
 107 414 l 2
 72 452 57 498 57 543 c 0xf880
EndSplineSet
EndChar

StartChar: scircumflex
Encoding: 349 349 240
Width: 387
GlyphClass: 2
Flags: MW
HStem: -17 64<175 190.5> 466 59<184 211> 570 182<202 323>
VStem: 45 67<341.5 371.5> 91 248<581 583> 292 65<144 183.5> 296 37<361 390.5>
LayerCount: 2
Fore
SplineSet
91 581 m 1xe8
 137 648 192 735 202 752 c 1
 242 752 l 1
 251 735 307 631 339 583 c 1
 323 570 l 1
 210 676 l 1
 111 568 l 1
 91 581 l 1xe8
45 358 m 0xf4
 45 385 49 412 62 432 c 0
 111 511 143 525 225 525 c 0
 247 525 276 519 302 508 c 0
 317 502 336 495 336 459 c 0
 336 449 333 420 333 361 c 1
 296 361 l 1xf2
 295 375 284 418 271 437 c 0
 256 459 226 466 196 466 c 0
 120 466 112 418 112 400 c 0
 112 283 357 344 357 158 c 0
 357 130 355 102 342 80 c 0
 322 48 310 33 278 8 c 0
 255 -9 198 -17 183 -17 c 0
 101 -17 65 2 55 19 c 0
 50 27 47 38 47 53 c 0
 47 162 50 171 74 171 c 0
 108 171 87 117 115 79 c 0
 128 61 152 47 198 47 c 0
 257 47 292 75 292 122 c 0
 292 245 45 179 45 358 c 0xf4
EndSplineSet
EndChar

StartChar: Scaron
Encoding: 352 352 241
Width: 519
GlyphClass: 2
Flags: MW
HStem: -15 71<255 306.5> 528 21<412 447 412 412> 689 64<258 291> 794 139<196 304 196 264>
VStem: 57 80<549.5 581.5> 65 37<211 232> 172 236<906 916> 379 77<636 704> 395 94<168 205.5>
LayerCount: 2
Fore
SplineSet
172 906 m 1xf2
 196 933 l 1
 294 865 l 1
 393 933 l 1
 408 916 l 1
 368 874 317 813 304 794 c 1
 264 794 l 1
 249 815 207 867 172 906 c 1xf2
57 543 m 0xf880
 57 620 73 674 169 727 c 0
 191 739 220 753 296 753 c 0
 355 753 412 732 444 715 c 1
 456 704 l 1
 456 694 448 542 447 528 c 1
 412 528 l 1
 404 556 379 635 379 637 c 0
 375 647 372 656 363 663 c 0
 352 673 316 689 266 689 c 0
 189 689 137 668 137 584 c 0xf9
 137 515 183 487 217 469 c 2
 369 390 l 2
 406 371 489 323 489 204 c 0
 489 132 474 102 424 44 c 0
 403 21 360 -15 253 -15 c 0
 175 -15 99 12 58 30 c 1
 61 71 65 190 65 232 c 1
 102 232 l 1xf480
 116 178 l 2
 135 103 140 97 164 78 c 1
 194 65 233 56 277 56 c 0
 351 56 395 78 395 165 c 0
 395 246 333 284 303 300 c 1
 222 340 l 1
 145 380 131 388 115 405 c 2
 107 414 l 2
 72 452 57 498 57 543 c 0xf880
EndSplineSet
EndChar

StartChar: scaron
Encoding: 353 353 242
Width: 387
GlyphClass: 2
Flags: MW
HStem: -17 64<175 190.5> 466 59<184 211> 566 182<108 229 108 189>
VStem: 45 67<341.5 371.5> 81 276 292 65<144 183.5> 296 37<361 390.5>
LayerCount: 2
Fore
SplineSet
81 716 m 1xe8
 108 748 l 1
 221 642 l 1
 345 750 l 1
 357 732 l 1xe4
 305 668 243 584 229 566 c 1
 189 566 l 1
 177 587 117 668 81 716 c 1xe8
45 358 m 0xf4
 45 385 49 412 62 432 c 0
 111 511 143 525 225 525 c 0
 247 525 276 519 302 508 c 0
 317 502 336 495 336 459 c 0
 336 449 333 420 333 361 c 1
 296 361 l 1xf2
 295 375 284 418 271 437 c 0
 256 459 226 466 196 466 c 0
 120 466 112 418 112 400 c 0
 112 283 357 344 357 158 c 0
 357 130 355 102 342 80 c 0
 322 48 310 33 278 8 c 0
 255 -9 198 -17 183 -17 c 0
 101 -17 65 2 55 19 c 0
 50 27 47 38 47 53 c 0
 47 162 50 171 74 171 c 0
 108 171 87 117 115 79 c 0
 128 61 152 47 198 47 c 0
 257 47 292 75 292 122 c 0
 292 245 45 179 45 358 c 0xf4
EndSplineSet
EndChar

StartChar: Tcaron
Encoding: 356 356 243
Width: 608
GlyphClass: 2
Flags: MW
HStem: 0 35<140 460 140 140> 681 57<195.5 211.5 396.5 412.5> 794 139<212 320 212 280>
VStem: 5 35<530 555> 188 236<906 916> 247 105<64 83> 250 110 568 35<530 555>
LayerCount: 2
Fore
SplineSet
188 906 m 1xf9
 212 933 l 1
 310 865 l 1
 409 933 l 1
 424 916 l 1
 384 874 333 813 320 794 c 1
 280 794 l 1
 265 815 223 867 188 906 c 1xf9
0 727 m 1
 11 738 l 1
 597 738 l 1
 608 727 l 1
 607 710 603 580 603 530 c 1
 568 530 l 1
 560 559 535 638 534 640 c 0
 532 646 529 654 525 662 c 1
 519 668 513 670 507 671 c 0
 481 676 423 681 402 681 c 0
 391 681 375 679 360 676 c 1xf3
 355 558 352 261 352 83 c 0
 352 45 410 39 460 35 c 1
 460 0 l 1
 140 0 l 1
 140 35 l 1
 189 39 247 45 247 83 c 2xf5
 247 83 250 277 250 463 c 0xf3
 250 540 250 616 248 676 c 1
 233 679 217 681 206 681 c 0
 185 681 127 676 101 671 c 0
 95 670 89 668 83 662 c 1
 79 654 76 646 74 640 c 0
 73 638 48 559 40 530 c 1
 5 530 l 1
 5 580 1 710 0 727 c 1
EndSplineSet
EndChar

StartChar: tcaron
Encoding: 357 357 244
Width: 424
GlyphClass: 2
Flags: MW
HStem: -15 71<153.5 240> 448 56<187 311 187 314> 536 262<262 304>
VStem: 97 90<397 448 397 448 397 504 504 535 397 587> 288 69<618 714>
LayerCount: 2
Fore
SplineSet
187 448 m 1
 187 346 184 264 184 201 c 0
 184 106 191 56 231 56 c 0
 249 56 272 66 304 85 c 1
 325 65 l 1
 268 6 223 -15 199 -15 c 0
 108 -15 94 45 94 188 c 0
 94 256 97 341 97 448 c 1
 10 448 l 1
 10 478 l 1
 97 495 l 1
 97 587 l 1
 178 610 170 611 174 611 c 0
 182 611 189 608 189 596 c 0
 189 584 187 565 187 535 c 2
 187 504 l 1
 314 504 l 1
 311 448 l 1
 187 448 l 1
248 552 m 0
 248 563 288 596 288 640 c 0
 288 680 243 714 243 738 c 0
 243 740 275 798 293 798 c 0
 315 798 357 730 357 698 c 0
 357 646 281 536 263 536 c 0
 261 536 248 544 248 552 c 0
EndSplineSet
EndChar

StartChar: Utilde
Encoding: 360 360 245
Width: 757
GlyphClass: 2
Flags: MW
HStem: -14 60<350 439> 701 37<34 310 34 310> 869 60<356 367>
VStem: 118 103<182 390> 256 318<830 907> 618 53<243.5 258 126 400.5>
LayerCount: 2
Fore
SplineSet
256 830 m 1
 275 858 346 929 366 929 c 0
 396 929 425 894 492 876 c 1
 516 883 539 900 559 919 c 1
 574 907 l 1
 555 879 494 816 474 816 c 0
 440 816 386 869 348 869 c 1
 324 862 289 835 269 816 c 1
 256 830 l 1
34 701 m 1
 34 738 l 1
 310 738 l 1
 310 701 l 1
 257 697 220 692 220 655 c 0
 220 606 221 493 221 390 c 2
 221 310 l 1
 222 255 222 212 222 197 c 0
 222 142 266 46 434 46 c 0
 597 46 618 131 618 356 c 0
 618 445 616 535 616 655 c 0
 616 688 569 695 526 699 c 1
 526 738 l 1
 762 738 l 1
 762 702 l 1
 718 697 684 685 682 658 c 2
 681 640 l 2
 678 599 671 278 671 238 c 0
 671 14 516 -14 362 -14 c 0
 154 -14 118 150 118 214 c 2
 118 214 116 639 115 650 c 0
 110 694 92 697 34 701 c 1
EndSplineSet
EndChar

StartChar: utilde
Encoding: 361 361 246
Width: 556
GlyphClass: 2
Flags: MW
HStem: -9 79<189.5 262> 468 33<321 355 321 323> 505 20<158.5 168 465.5 475> 641 60<220 231>
VStem: 89 89<216 249 195.5 311 195.5 389> 120 318<602 679> 391 90<132.5 163.5 105.5 206> 393 96<401.5 426.5>
LayerCount: 2
Fore
SplineSet
120 602 m 1xf4
 139 630 210 701 230 701 c 0
 260 701 289 666 356 648 c 1
 380 655 403 672 423 691 c 1
 438 679 l 1
 419 651 358 588 338 588 c 0
 304 588 250 641 212 641 c 1
 188 634 153 607 133 588 c 1
 120 602 l 1xf4
481 127 m 0xf2
 481 84 526 43 526 25 c 0
 526 21 524 19 517 17 c 2
 517 17 447 -6 440 -6 c 0
 418 -6 404 54 398 66 c 1
 306 1 232 -9 213 -9 c 0
 166 -9 114 33 99 92 c 0
 94 108 89 174 89 216 c 2
 89 311 l 2
 89 467 84 463 24 464 c 1
 22 498 l 1
 110 508 153 525 164 525 c 0
 172 525 182 522 182 510 c 0
 182 401 178 280 178 218 c 0
 178 173 180 138 188 116 c 0
 198 87 229 70 248 70 c 0
 276 70 331 82 350 92 c 0
 389 112 391 117 391 148 c 0xfa
 391 264 393 338 393 385 c 0
 393 468 387 468 355 468 c 2
 323 468 l 1
 321 501 l 1
 420 511 460 525 471 525 c 0
 479 525 489 522 489 510 c 0xf1
 489 293 481 200 481 127 c 0xf2
EndSplineSet
EndChar

StartChar: Umacron
Encoding: 362 362 247
Width: 757
GlyphClass: 2
Flags: MW
HStem: -14 60<350 439> 701 37<34 310 34 310> 830 61<289 539 302 527>
VStem: 118 103<182 390> 289 250<830 891> 618 53<243.5 258 126 400.5>
LayerCount: 2
Fore
SplineSet
289 830 m 1
 302 891 l 1
 539 891 l 1
 527 830 l 1
 289 830 l 1
34 701 m 1
 34 738 l 1
 310 738 l 1
 310 701 l 1
 257 697 220 692 220 655 c 0
 220 606 221 493 221 390 c 2
 221 310 l 1
 222 255 222 212 222 197 c 0
 222 142 266 46 434 46 c 0
 597 46 618 131 618 356 c 0
 618 445 616 535 616 655 c 0
 616 688 569 695 526 699 c 1
 526 738 l 1
 762 738 l 1
 762 702 l 1
 718 697 684 685 682 658 c 2
 681 640 l 2
 678 599 671 278 671 238 c 0
 671 14 516 -14 362 -14 c 0
 154 -14 118 150 118 214 c 2
 118 214 116 639 115 650 c 0
 110 694 92 697 34 701 c 1
EndSplineSet
EndChar

